# Max2Obj Version 4.0 Mar 10th, 2001
#
mtllib ./Altar-misc-05.mtl
g
# object (null) to come ...
#
v  1.072363 1.045202 0.144394
v  0.838688 0.874149 0.575640
v  0.852660 -0.871867 0.575640
v  1.065725 -1.068739 0.144393
v  0.619156 0.652144 0.579089
v  0.634418 -0.657206 0.586709
v  0.979191 -0.982493 -0.459582
v  0.985012 0.959132 -0.459582
v  -0.855356 -0.881478 0.575640
v  -1.054356 -1.063923 0.144394
v  -0.637579 -0.657206 0.586708
v  -0.968075 -0.977792 -0.459582
v  -0.869329 0.864537 0.575640
v  -1.071771 1.069602 0.144393
v  -0.652838 0.652144 0.579088
v  -0.985016 0.982491 -0.459582
v  0.364926 0.387353 0.900189
v  -0.027108 0.015756 1.037823
v  0.374013 -0.392255 0.906231
v  -0.383348 -0.392255 0.846305
v  -0.060340 -0.367789 0.865296
v  -0.082167 -0.096873 0.854859
v  -0.304935 -0.417518 1.369033
v  -0.323086 -0.267619 1.360095
v  -0.340024 -0.361723 0.821035
v  -0.506850 -0.459740 1.367158
v  -0.400966 -0.114914 0.817094
v  -0.525010 -0.309841 1.358186
v  -0.416641 -0.286695 1.823705
v  0.276630 -0.313748 1.367224
v  0.020009 -0.046830 0.937561
v  0.331138 -0.467613 1.287807
v  -0.005078 -0.322555 0.907446
v  0.478044 -0.498076 1.324747
v  0.310648 -0.291027 0.871422
v  0.500637 -0.344193 1.354686
v  0.377253 -0.038086 0.894034
v  -0.055408 0.240306 1.533376
v  0.068047 0.032523 0.916972
v  0.004292 0.377011 1.512995
v  0.163489 0.277956 0.913873
v  -0.189397 0.452136 1.538015
v  -0.131778 0.319234 0.914087
v  -0.249091 0.315404 1.558423
v  -0.258908 0.103692 0.917548
v  0.338498 -0.444262 1.590839
v  -0.053091 0.343874 1.856726
v  -0.392434 0.387353 0.900188
# 48 vertices

vt  0.499554 0.085671 0.000000
vt  0.505150 0.155985 0.000000
vt  0.689483 0.156997 0.000000
vt  0.694029 0.086738 0.000000
vt  0.517203 0.176939 0.000000
vt  0.679677 0.178337 0.000000
vt  0.675277 0.229686 0.000000
vt  0.522213 0.229346 0.000000
vt  0.531649 0.238618 0.000000
vt  0.664190 0.239347 0.000000
vt  0.782992 0.261946 0.000000
vt  0.694058 0.261195 0.000000
vt  0.695987 0.168750 0.000000
vt  0.542790 0.262272 0.000000
vt  0.657704 0.262905 0.000000
vt  0.927902 0.539792 0.576217
vt  0.717186 0.539792 0.831457
vt  0.717186 0.435562 0.831457
vt  0.927902 0.435562 0.576217
vt  0.505150 0.155985 0.000000
vt  0.499554 0.085671 0.000000
vt  0.689483 0.156997 0.000000
vt  0.694029 0.086738 0.000000
vt  0.517203 0.176939 0.000000
vt  0.679677 0.178337 0.000000
vt  0.522213 0.229346 0.000000
vt  0.675277 0.229686 0.000000
vt  0.531649 0.238618 0.000000
vt  0.664190 0.239347 0.000000
vt  0.694058 0.261195 0.000000
vt  0.782992 0.261946 0.000000
vt  0.695987 0.168750 0.000000
vt  0.542790 0.262272 0.000000
vt  0.657704 0.262905 0.000000
vt  0.717186 0.539792 0.831457
vt  0.927902 0.539792 0.576217
vt  0.717186 0.435562 0.831457
vt  0.927902 0.435562 0.576217
vt  0.499554 0.085671 0.000000
vt  0.505150 0.155985 0.000000
vt  0.689483 0.156997 0.000000
vt  0.694029 0.086738 0.000000
vt  0.517203 0.176939 0.000000
vt  0.679677 0.178337 0.000000
vt  0.675277 0.229686 0.000000
vt  0.522213 0.229346 0.000000
vt  0.531649 0.238618 0.000000
vt  0.664190 0.239347 0.000000
vt  0.542790 0.262272 0.000000
vt  0.657704 0.262905 0.000000
vt  0.927902 0.539792 0.576217
vt  0.717186 0.539792 0.831457
vt  0.717186 0.435562 0.831457
vt  0.927902 0.435562 0.576217
vt  0.505150 0.155985 0.000000
vt  0.499554 0.085671 0.000000
vt  0.689483 0.156997 0.000000
vt  0.694029 0.086738 0.000000
vt  0.517203 0.176939 0.000000
vt  0.679677 0.178337 0.000000
vt  0.522213 0.229346 0.000000
vt  0.675277 0.229686 0.000000
vt  0.531649 0.238618 0.000000
vt  0.664190 0.239347 0.000000
vt  0.542790 0.262272 0.000000
vt  0.657704 0.262905 0.000000
vt  0.717186 0.539792 0.831457
vt  0.927902 0.539792 0.576217
vt  0.717186 0.435562 0.831457
vt  0.927902 0.435562 0.576217
vt  0.717186 0.597808 0.831457
vt  0.927902 0.388093 0.576217
vt  0.717186 0.388093 0.831457
vt  0.927902 0.597808 0.576217
vt  0.709610 0.665862 0.000000
vt  0.710277 0.586155 0.000000
vt  0.653890 0.560601 0.000000
vt  0.656983 0.666642 0.000000
vt  0.962812 0.657854 0.000000
vt  0.958794 0.590899 0.000000
vt  0.907147 0.569333 0.000000
vt  0.906440 0.669471 0.000000
vt  0.818333 0.668999 0.000000
vt  0.805716 0.586388 0.000000
vt  0.771798 0.570839 0.000000
vt  0.759925 0.651836 0.000000
vt  0.613755 0.571785 0.000000
vt  0.621164 0.666577 0.000000
vt  0.861107 0.584217 0.000000
vt  0.850337 0.652895 0.000000
vt  0.567599 0.590084 0.000000
vt  0.564710 0.657036 0.000000
vt  0.638435 0.529687 0.000000
vt  0.708976 0.529817 0.000000
vt  0.708976 0.529817 0.000000
vt  0.765697 0.537537 0.000000
vt  0.765697 0.537537 0.000000
vt  0.859452 0.535038 0.000000
vt  0.859452 0.535038 0.000000
vt  0.905290 0.535528 0.000000
vt  0.905290 0.535528 0.000000
vt  0.947914 0.532873 0.000000
vt  0.573123 0.528924 0.000000
vt  0.567599 0.590084 0.000000
vt  0.638435 0.529687 0.000000
vt  0.859452 0.535038 0.000000
vt  0.638435 0.529687 0.000000
vt  0.930135 0.152116 0.000000
vt  0.989870 0.217713 0.000000
vt  0.920185 0.239280 0.000000
vt  0.874306 0.208797 0.000000
vt  0.874958 0.211082 0.000000
vt  0.921299 0.244995 0.000000
vt  0.989870 0.217713 0.000000
vt  0.986301 0.215025 0.000000
vt  0.920862 0.244751 0.000000
vt  0.874958 0.211082 0.000000
vt  0.874306 0.208797 0.000000
vt  0.922877 0.242600 0.000000
vt  0.986301 0.215025 0.000000
vt  0.117620 0.489515 0.000000
vt  0.095270 0.502539 0.000000
vt  0.114989 0.527128 0.000000
vt  0.142087 0.527851 0.000000
vt  0.030249 0.533423 0.000000
vt  0.052021 0.511797 0.000000
vt  0.048580 0.497915 0.000000
vt  0.027389 0.521730 0.000000
vt  0.163879 0.529330 0.000000
vt  0.029003 0.457432 0.000000
vt  0.073057 0.480800 0.000000
vt  0.074312 0.452891 0.000000
vt  0.034695 0.436404 0.000000
vt  0.073371 0.538452 0.000000
vt  0.048623 0.565009 0.000000
vt  0.013605 0.472398 0.000000
vt  0.005841 0.452426 0.000000
vt  0.005665 0.476510 0.000000
vt  0.060352 0.417535 0.000000
vt  0.060481 0.418151 0.000000
vt  0.088647 0.342563 0.000000
vt  0.067502 0.253694 0.000000
vt  0.080380 0.317997 0.000000
vt  0.100781 0.302869 0.000000
vt  0.086470 0.243712 0.000000
vt  0.149360 0.288619 0.000000
vt  0.136355 0.208785 0.000000
vt  0.027413 0.205321 0.000000
vt  0.069168 0.177308 0.000000
vt  0.109902 0.171198 0.000000
vt  0.097451 0.575742 0.000000
vt  0.132764 0.559078 0.000000
vt  0.126100 0.635086 0.000000
vt  0.148553 0.603458 0.000000
vt  0.070823 0.601369 0.000000
vt  0.345976 0.243208 0.000000
vt  0.441203 0.634503 0.000000
vt  0.481418 0.664451 0.000000
vt  0.531434 0.635218 0.000000
vt  0.440700 0.633624 0.000000
vt  0.321981 0.657119 0.000000
vt  0.285681 0.653634 0.000000
vt  0.324513 0.594749 0.000000
vt  0.304605 0.592797 0.000000
vt  0.354694 0.650477 0.000000
vt  0.345680 0.589231 0.000000
vt  0.388706 0.643826 0.000000
vt  0.362512 0.584520 0.000000
vt  0.254151 0.634479 0.000000
vt  0.284631 0.579323 0.000000
vt  0.325808 0.540614 0.000000
vt  0.284631 0.579323 0.000000
vt  0.304888 0.583168 0.000000
vt  0.287578 0.649553 0.000000
vt  0.322139 0.586121 0.000000
vt  0.321675 0.657957 0.000000
vt  0.343481 0.581258 0.000000
vt  0.354855 0.653134 0.000000
vt  0.358840 0.574214 0.000000
vt  0.386079 0.641615 0.000000
vt  0.285472 0.573168 0.000000
vt  0.252024 0.635561 0.000000
vt  0.468604 0.586348 0.000000
vt  0.451228 0.655698 0.000000
vt  0.486079 0.589520 0.000000
vt  0.485773 0.664651 0.000000
vt  0.507676 0.584536 0.000000
vt  0.519359 0.659768 0.000000
vt  0.522024 0.584991 0.000000
vt  0.550947 0.647870 0.000000
vt  0.447142 0.578509 0.000000
vt  0.415197 0.640893 0.000000
vt  0.322838 0.548766 0.000000
vt  0.285472 0.573168 0.000000
vt  0.486700 0.550452 0.000000
vt  0.447142 0.578509 0.000000
vt  0.908531 0.618086 0.377841
vt  0.664409 0.611441 0.377928
vt  0.875682 0.666787 0.619439
vt  0.693406 0.665584 0.619505
vt  0.908658 0.618074 0.380106
vt  0.664489 0.611362 0.377841
vt  0.875657 0.666710 0.622461
vt  0.693428 0.665583 0.619439
vt  0.664475 0.611352 0.380193
vt  0.908487 0.617956 0.380106
vt  0.693443 0.665493 0.622527
vt  0.875690 0.666783 0.622461
vt  0.908549 0.618079 0.377928
vt  0.664433 0.611473 0.380193
vt  0.875629 0.666711 0.619505
vt  0.693476 0.665583 0.622527
vt  0.530567 0.634411 0.000000
# 213 texture vertices

vn  0.707606 0.686558 0.167124
vn  0.406340 0.467450 0.785098
vn  0.430405 -0.445479 0.785048
vn  0.697591 -0.696470 0.168212
vn  0.008988 0.008081 0.999927
vn  0.028494 -0.022562 0.999339
vn  0.534952 -0.538338 -0.651167
vn  0.540197 0.532228 -0.651859
vn  -0.437106 -0.459545 0.773147
vn  -0.698151 -0.698626 0.156547
vn  -0.023963 -0.024784 0.999406
vn  -0.534518 -0.538294 -0.651559
vn  -0.436873 0.436219 0.786674
vn  -0.695856 0.698659 0.166313
vn  -0.005160 0.010975 0.999926
vn  -0.536187 0.537865 -0.650541
vn  0.171405 0.178064 0.968975
vn  -0.046834 -0.015627 0.998780
vn  0.122811 -0.193219 0.973439
vn  -0.237065 -0.235436 0.942534
vn  0.777142 -0.563245 0.280723
vn  0.540075 0.689223 0.483002
vn  0.710261 -0.635986 0.301748
vn  0.513907 0.775772 0.366166
vn  -0.577004 -0.760527 -0.297768
vn  -0.606949 -0.792500 0.059644
vn  -0.722427 0.689444 0.052596
vn  -0.880599 0.472850 0.030960
vn  -0.005491 0.161117 0.986920
vn  -0.672418 0.437124 0.597307
vn  -0.498155 0.490309 0.715149
vn  -0.535115 -0.844570 0.018775
vn  -0.729894 -0.544475 0.413281
vn  0.630514 -0.775515 -0.032087
vn  0.582439 -0.650739 -0.487138
vn  0.864552 0.408255 0.293049
vn  0.675545 0.695803 0.243918
vn  0.373430 -0.863014 0.340231
vn  0.449944 -0.815235 0.364612
vn  0.874647 0.456555 0.162944
vn  0.913523 0.381939 0.139997
vn  -0.421419 0.900206 0.109707
vn  -0.436779 0.874834 -0.209497
vn  -0.914058 -0.271456 0.301346
vn  -0.853241 -0.499618 0.149536
vn  -0.195915 -0.184999 0.963012
vn  0.203666 -0.000370 0.979040
vn  -0.000000 1.643227 1.355065
# 48 vertex normals

g (null)
usemtl gate
s 1
f 3/3/3 4/4/4 1/1/1 2/2/2
f 5/5/5 6/6/6 3/3/3 2/2/2
f 7/18/7 8/19/8 1/16/1 4/17/4
f 10/21/10 4/23/4 3/22/3 9/20/9
f 3/22/3 6/25/6 11/24/11 9/20/9
f 10/36/10 12/38/12 7/37/7 4/35/4
f 13/41/13 14/42/14 10/39/10 9/40/9
f 11/43/11 15/44/15 13/41/13 9/40/9
f 16/53/16 12/54/12 10/51/10 14/52/14
f 1/56/1 14/58/14 13/57/13 2/55/2
f 13/57/13 15/60/15 5/59/5 2/55/2
f 1/68/1 8/70/8 16/69/16 14/67/14
f 8/73/8 7/72/7 12/74/12 16/71/16
f 22/162/22 24/164/24 23/163/23 21/161/21
f 21/161/21 23/163/23 26/166/26 25/165/25
f 25/165/25 26/166/26 28/168/28 27/167/27
f 27/169/27 28/170/28 24/164/24 22/162/22
s 0
f 22/162/22 21/161/21 25/165/25 27/169/27
s 1
f 31/174/31 33/176/33 32/175/32 30/173/30
f 33/176/33 35/178/35 34/177/34 32/175/32
f 35/178/35 37/180/37 36/179/36 34/177/34
f 37/182/37 31/174/31 30/173/30 36/181/36
f 39/184/39 41/186/41 40/185/40 38/183/38
f 41/186/41 43/188/43 42/187/42 40/185/40
f 43/188/43 45/190/45 44/189/44 42/187/42
f 45/192/45 39/184/39 38/183/38 44/191/44
s 0
f 35/178/35 33/176/33 31/174/31 37/180/37
f 43/188/43 41/186/41 39/184/39 45/190/45
f 15/198/15 48/200/48 17/199/17 5/197/5
f 5/202/5 17/204/17 19/203/19 6/201/6
f 6/206/6 19/208/19 20/207/20 11/205/11
f 11/210/11 20/212/20 48/211/48 15/209/15
s 1
f 17/157/17 18/158/18 19/159/19
f 20/160/20 19/159/19 18/158/18
f 23/163/23 24/164/24 29/171/29
f 26/166/26 23/163/23 29/171/29
f 28/168/28 26/166/26 29/171/29
f 24/164/24 28/172/28 29/171/29
f 46/193/46 30/173/30 32/175/32
f 46/193/46 32/175/32 34/177/34
f 46/193/46 34/177/34 36/179/36
f 46/193/46 36/194/36 30/173/30
f 47/195/47 38/183/38 40/185/40
f 47/195/47 40/185/40 42/187/42
f 47/195/47 42/187/42 44/189/44
f 47/195/47 44/196/44 38/183/38
f 20/160/20 18/158/18 48/213/48
f 17/157/17 48/213/48 18/158/18
# 48 faces

g
