# Max2Obj Version 4.0 Mar 10th, 2001
#
mtllib ./arena_02.mtl
g
# object (null) to come ...
#
v  1.711842 0.000004 0.450510
v  1.581544 0.655098 0.450509
v  1.292575 0.535404 0.719253
v  1.399069 0.000004 0.719252
v  1.210455 1.210459 0.450510
v  0.989293 0.989294 0.719252
v  0.655098 1.581540 0.450510
v  0.535403 1.292574 0.719252
v  0.000003 1.711846 0.450510
v  0.000002 1.399072 0.719253
v  -0.655095 1.581540 0.450511
v  -0.535396 1.292574 0.719252
v  -1.210455 1.210459 0.450510
v  -0.989286 0.989294 0.719252
v  -1.581537 0.655098 0.450510
v  -1.292575 0.535404 0.719253
v  -1.711844 0.000004 0.450510
v  -1.399067 0.000004 0.719253
v  -1.581537 -0.655089 0.450511
v  -1.292575 -0.535396 0.719253
v  -1.210455 -1.210451 0.450510
v  -0.989291 -0.989286 0.719253
v  -0.655094 -1.581531 0.450510
v  -0.535399 -1.292565 0.719252
v  0.000003 -1.711838 0.450510
v  0.000002 -1.399063 0.719253
v  0.655094 -1.581531 0.450510
v  0.535403 -1.292564 0.719252
v  1.210460 -1.210451 0.450511
v  0.989293 -0.989285 0.719253
v  1.581544 -0.655089 0.450509
v  1.292575 -0.535395 0.719253
v  2.920878 0.000004 0.450510
v  2.698537 1.117774 0.450510
v  2.065370 2.065373 0.450510
v  1.117773 2.698539 0.450510
v  0.000003 2.920877 0.450510
v  -1.117772 2.698539 0.450510
v  -2.065370 2.065373 0.450510
v  -2.698538 1.117774 0.450510
v  -2.920880 0.000004 0.450510
v  -2.698534 -1.117765 0.450509
v  -2.065365 -2.065365 0.450509
v  -1.117772 -2.698531 0.450510
v  0.000000 -2.920869 0.450510
v  1.117770 -2.698529 0.450511
v  2.065370 -2.065365 0.450510
v  2.698536 -1.117765 0.450510
v  3.232703 0.000004 0.281733
v  2.986624 1.237104 0.281733
v  2.285870 2.285867 0.281733
v  1.237105 2.986628 0.281733
v  0.000004 3.232702 0.281733
v  -1.237099 2.986628 0.281733
v  -2.285861 2.285867 0.281732
v  -2.986626 1.237104 0.281733
v  -3.232701 0.000004 0.281733
v  -2.986622 -1.237096 0.281733
v  -2.285867 -2.285858 0.281733
v  -1.237102 -2.986619 0.281733
v  0.000001 -3.232694 0.281733
v  1.237102 -2.986618 0.281733
v  2.285867 -2.285857 0.281733
v  2.986628 -1.237095 0.281733
v  4.483758 0.000004 0.124757
v  4.142445 1.715862 0.124758
v  3.170496 3.170496 0.124757
v  1.715865 4.142450 0.124757
v  0.000005 4.483757 0.124757
v  -1.715860 4.142449 0.124757
v  -3.170492 3.170495 0.124757
v  -4.142450 1.715861 0.124757
v  -4.483755 0.000004 0.124757
v  -4.142448 -1.715853 0.124757
v  -3.170491 -3.170487 0.124756
v  -1.715853 -4.142441 0.124756
v  0.000002 -4.483747 0.124757
v  1.715865 -4.142440 0.124757
v  3.170500 -3.170485 0.124757
v  4.142450 -1.715852 0.124757
v  0.000002 0.000004 0.822634
v  5.685246 0.000004 -0.822633
v  5.252482 2.175651 -0.822634
v  4.020076 4.020075 -0.822633
v  2.175649 5.252481 -0.822633
v  0.000007 5.685242 -0.822633
v  -2.175649 5.252478 -0.822632
v  -4.020069 4.020075 -0.822632
v  -5.252474 2.175650 -0.822633
v  -5.685246 0.000004 -0.822631
v  -5.252484 -2.175642 -0.822632
v  -4.020068 -4.020066 -0.822632
v  -2.175640 -5.252470 -0.822634
v  0.000001 -5.685236 -0.822633
v  2.175655 -5.252469 -0.822633
v  4.020071 -4.020065 -0.822632
v  5.252478 -2.175641 -0.822633
# 97 vertices

vt  1.665987 -0.652486 0.530958
vt  1.514892 -0.652810 0.530958
vt  0.925781 -0.214844 0.469042
vt  0.871094 -0.210938 0.469042
vt  1.365803 -0.652930 0.530958
vt  0.980469 -0.214844 0.469042
vt  1.526731 -0.652538 0.530958
vt  0.921875 -0.210938 0.469042
vt  1.666385 -0.652669 0.530958
vt  0.871094 -0.210938 0.469042
vt  1.516878 -0.652846 0.530958
vt  0.925781 -0.214844 0.469042
vt  1.376962 -0.652784 0.530958
vt  0.972656 -0.214844 0.469042
vt  1.526345 -0.652800 0.530958
vt  0.917969 -0.210938 0.469042
vt  1.668228 -0.652386 0.530958
vt  0.867188 -0.210938 0.469042
vt  1.517651 -0.652723 0.530958
vt  0.921875 -0.210938 0.469042
vt  1.368563 -0.652843 0.530958
vt  0.976563 -0.214844 0.469042
vt  1.523871 -0.652610 0.530958
vt  0.921875 -0.210938 0.469042
vt  1.673076 -0.652554 0.530958
vt  0.867188 -0.210938 0.469042
vt  1.522919 -0.652265 0.530958
vt  0.921875 -0.210938 0.469042
vt  1.366467 -0.652669 0.530958
vt  0.980469 -0.214844 0.469042
vt  1.515851 -0.652685 0.530958
vt  0.925781 -0.214844 0.469042
vt  1.436572 0.069308 0.511359
vt  1.535102 0.069427 0.511359
vt  1.010485 0.475945 0.511359
vt  1.006578 0.706414 0.511359
vt  1.646482 0.068569 0.511359
vt  1.535063 0.068690 0.511359
vt  1.010485 0.475945 0.511359
vt  1.006578 0.706414 0.511359
vt  -0.238147 0.474580 0.504497
vt  -0.095841 0.474656 0.504497
vt  -0.238181 0.474171 0.504497
vt  -0.095089 0.474251 0.504497
vt  -0.238472 0.591861 0.504497
vt  -0.054528 0.591692 0.504497
vt  -0.238507 0.591452 0.504497
vt  -0.055137 0.591254 0.504497
vt  0.921875 -0.042969 0.469042
vt  0.421875 0.257813 0.504497
vt  0.671875 0.257813 0.504497
vt  0.714844 0.050781 0.459595
vt  0.390625 0.050781 0.459595
vt  0.414063 0.257813 0.504497
vt  0.390625 0.050781 0.459595
vt  -0.041629 0.826379 0.500000
vt  -0.050409 0.839519 0.500000
vt  -0.063550 0.848300 0.500000
vt  -0.079051 0.851383 0.500000
vt  -0.094551 0.848300 0.500000
vt  -0.107692 0.839519 0.500000
vt  -0.116472 0.826379 0.500000
vt  -0.119555 0.810878 0.500000
vt  -0.116472 0.795378 0.500000
vt  -0.107692 0.782237 0.500000
vt  -0.094551 0.773457 0.500000
vt  -0.079051 0.770373 0.500000
vt  -0.063550 0.773457 0.500000
vt  -0.050409 0.782237 0.500000
vt  -0.041629 0.795378 0.500000
vt  -0.038546 0.810878 0.500000
vt  1.072985 0.479852 0.504497
vt  1.069078 0.729852 0.504497
vt  1.072985 0.479852 0.504497
vt  1.069078 0.729852 0.504497
vt  1.535185 0.211587 0.511359
vt  1.396860 0.212188 0.511359
vt  1.535146 0.210850 0.511359
vt  1.683272 0.211475 0.511359
vt  1.517486 -0.747636 0.469042
vt  1.627468 -0.747609 0.469042
vt  1.407953 -0.747647 0.469042
vt  1.525871 -0.747609 0.469042
vt  1.627292 -0.747630 0.469042
vt  1.517452 -0.747642 0.469042
vt  1.417909 -0.747636 0.469042
vt  1.527659 -0.747635 0.469042
vt  1.630872 -0.747601 0.469042
vt  1.520246 -0.747626 0.469042
vt  1.410712 -0.747638 0.469042
vt  1.523011 -0.747616 0.469042
vt  1.632629 -0.747614 0.469042
vt  1.523493 -0.747580 0.469042
vt  1.407415 -0.747623 0.469042
vt  1.517165 -0.747623 0.469042
# 95 texture vertices

vn  0.651700 0.000000 0.758477
vn  0.602091 0.249393 0.758479
vn  0.602091 0.249392 0.758479
vn  0.651700 0.000001 0.758477
vn  0.460820 0.460824 0.758476
vn  0.460821 0.460824 0.758476
vn  0.249395 0.602091 0.758477
vn  0.249395 0.602092 0.758477
vn  0.000000 0.651700 0.758477
vn  -0.000001 0.651700 0.758477
vn  -0.249393 0.602089 0.758480
vn  -0.249392 0.602090 0.758480
vn  -0.460818 0.460821 0.758479
vn  -0.460814 0.460822 0.758481
vn  -0.602094 0.249395 0.758475
vn  -0.602095 0.249394 0.758475
vn  -0.651698 0.000002 0.758479
vn  -0.651698 0.000003 0.758479
vn  -0.602094 -0.249397 0.758475
vn  -0.602094 -0.249396 0.758476
vn  -0.460821 -0.460823 0.758476
vn  -0.460821 -0.460824 0.758476
vn  -0.249394 -0.602091 0.758478
vn  -0.249394 -0.602091 0.758478
vn  0.000001 -0.651700 0.758477
vn  0.000001 -0.651700 0.758477
vn  0.249393 -0.602092 0.758478
vn  0.249394 -0.602092 0.758477
vn  0.460818 -0.460821 0.758479
vn  0.460818 -0.460821 0.758479
vn  0.602091 -0.249392 0.758479
vn  0.602090 -0.249392 0.758479
vn  -0.000000 -0.000001 1.000000
vn  -0.000000 -0.000001 1.000000
vn  0.000000 -0.000000 1.000000
vn  -0.000000 -0.000000 1.000000
vn  -0.000001 -0.000000 1.000000
vn  0.000000 0.000001 1.000000
vn  -0.000001 0.000000 1.000000
vn  0.000000 0.000001 1.000000
vn  0.000000 0.000000 1.000000
vn  -0.000001 -0.000001 1.000000
vn  -0.000001 -0.000000 1.000000
vn  -0.000001 0.000000 1.000000
vn  -0.000000 0.000001 1.000000
vn  -0.000000 0.000000 1.000000
vn  0.000000 -0.000000 1.000000
vn  -0.000001 0.000000 1.000000
vn  0.473885 0.094263 0.875527
vn  0.473885 0.094263 0.875527
vn  0.401736 0.268429 0.875531
vn  0.268433 0.401740 0.875528
vn  0.094261 0.473884 0.875528
vn  -0.094261 0.473885 0.875527
vn  -0.268436 0.401741 0.875526
vn  -0.401739 0.268436 0.875527
vn  -0.473889 0.094263 0.875525
vn  -0.473884 -0.094263 0.875528
vn  -0.401732 -0.268426 0.875533
vn  -0.268434 -0.401740 0.875527
vn  -0.094262 -0.473884 0.875528
vn  0.094262 -0.473885 0.875527
vn  0.268433 -0.401740 0.875528
vn  0.401737 -0.268433 0.875529
vn  0.124460 0.024757 0.991916
vn  0.124460 0.024757 0.991916
vn  0.105513 0.070501 0.991916
vn  0.070501 0.105513 0.991916
vn  0.024757 0.124461 0.991916
vn  -0.024757 0.124461 0.991916
vn  -0.070501 0.105512 0.991916
vn  -0.105513 0.070502 0.991916
vn  -0.124461 0.024757 0.991916
vn  -0.124460 -0.024757 0.991916
vn  -0.105513 -0.070502 0.991916
vn  -0.070502 -0.105514 0.991916
vn  -0.024757 -0.124461 0.991916
vn  0.024757 -0.124461 0.991916
vn  0.070501 -0.105513 0.991916
vn  0.105513 -0.070501 0.991916
vn  0.073684 0.014655 0.997174
vn  0.614535 0.122239 0.779362
vn  0.614535 0.122239 0.779362
vn  0.520979 0.348107 0.779360
vn  0.348107 0.520979 0.779360
vn  0.122238 0.614537 0.779360
vn  -0.122238 0.614537 0.779360
vn  -0.348107 0.520979 0.779360
vn  -0.520980 0.348108 0.779359
vn  -0.614535 0.122242 0.779361
vn  -0.614534 -0.122239 0.779362
vn  -0.520977 -0.348109 0.779360
vn  -0.348106 -0.520980 0.779360
vn  -0.122240 -0.614536 0.779360
vn  0.122240 -0.614537 0.779360
vn  0.348108 -0.520980 0.779359
vn  0.520980 -0.348108 0.779360
# 97 vertex normals

g (null)
usemtl statue-03
s 8
f 1/1/1 2/2/2 3/80/3 4/81/4
f 2/2/2 5/5/5 6/82/6 3/80/3
f 5/5/5 7/7/7 8/83/8 6/82/6
f 7/7/7 9/9/9 10/84/10 8/83/8
f 9/9/9 11/11/11 12/85/12 10/84/10
f 11/11/11 13/13/13 14/86/14 12/85/12
f 13/13/13 15/15/15 16/87/16 14/86/14
f 15/15/15 17/17/17 18/88/18 16/87/16
f 17/17/17 19/19/19 20/89/20 18/88/18
f 19/19/19 21/21/21 22/90/22 20/89/20
f 21/21/21 23/23/23 24/91/24 22/90/22
f 23/23/23 25/25/25 26/92/26 24/91/24
f 25/25/25 27/27/27 28/93/28 26/92/26
f 27/27/27 29/29/29 30/94/30 28/93/28
f 29/29/29 31/31/31 32/95/32 30/94/30
f 31/31/31 1/1/1 4/81/4 32/95/32
s 0
f 2/33/2 1/34/1 33/76/33 34/77/34
f 5/34/5 2/33/2 34/77/34 35/76/35
f 7/37/7 5/38/5 35/78/35 36/79/36
f 9/38/9 7/37/7 36/79/36 37/78/37
f 11/33/11 9/34/9 37/76/37 38/77/38
f 13/34/13 11/33/11 38/77/38 39/76/39
f 15/37/15 13/38/13 39/78/39 40/79/40
f 17/38/17 15/37/15 40/79/40 41/78/41
f 19/33/19 17/34/17 41/76/41 42/77/42
f 21/34/21 19/33/19 42/77/42 43/76/43
f 23/37/23 21/38/21 43/78/43 44/79/44
f 25/38/25 23/37/23 44/79/44 45/78/45
f 27/33/27 25/34/25 45/76/45 46/77/46
f 29/34/29 27/33/27 46/77/46 47/76/47
f 31/37/31 29/38/29 47/78/47 48/79/48
f 1/38/1 31/37/31 48/79/48 33/78/33
f 34/36/34 33/35/33 49/72/49 50/73/50
f 35/35/35 34/36/34 50/73/50 51/72/51
f 36/40/36 35/39/35 51/74/51 52/75/52
f 37/39/37 36/40/36 52/75/52 53/74/53
f 38/36/38 37/35/37 53/72/53 54/73/54
f 39/35/39 38/36/38 54/73/54 55/72/55
f 40/40/40 39/39/39 55/74/55 56/75/56
f 41/39/41 40/40/40 56/75/56 57/74/57
f 42/36/42 41/35/41 57/72/57 58/73/58
f 43/35/43 42/36/42 58/73/58 59/72/59
f 44/40/44 43/39/43 59/74/59 60/75/60
f 45/39/45 44/40/44 60/75/60 61/74/61
f 46/36/46 45/35/45 61/72/61 62/73/62
f 47/35/47 46/36/46 62/73/62 63/72/63
f 48/40/48 47/39/47 63/74/63 64/75/64
f 33/39/33 48/40/48 64/75/64 49/74/49
f 50/42/50 49/41/49 65/45/65 66/46/66
f 51/41/51 50/42/50 66/46/66 67/45/67
f 52/44/52 51/43/51 67/47/67 68/48/68
f 53/43/53 52/44/52 68/48/68 69/47/69
f 54/42/54 53/41/53 69/45/69 70/46/70
f 55/41/55 54/42/54 70/46/70 71/45/71
f 56/44/56 55/43/55 71/47/71 72/48/72
f 57/43/57 56/44/56 72/48/72 73/47/73
f 58/42/58 57/41/57 73/45/73 74/46/74
f 59/41/59 58/42/58 74/46/74 75/45/75
f 60/44/60 59/43/59 75/47/75 76/48/76
f 61/43/61 60/44/60 76/48/76 77/47/77
f 62/42/62 61/41/61 77/45/77 78/46/78
f 63/41/63 62/42/62 78/46/78 79/45/79
f 64/44/64 63/43/63 79/47/79 80/48/80
f 49/43/49 64/44/64 80/48/80 65/47/65
f 66/50/66 65/51/65 82/52/82 83/53/83
f 67/51/67 66/50/66 83/53/83 84/52/84
f 68/54/68 67/51/67 84/52/84 85/55/85
f 69/51/69 68/54/68 85/55/85 86/52/86
f 70/50/70 69/51/69 86/52/86 87/53/87
f 71/51/71 70/50/70 87/53/87 88/52/88
f 72/54/72 71/51/71 88/52/88 89/55/89
f 73/51/73 72/54/72 89/55/89 90/52/90
f 74/50/74 73/51/73 90/52/90 91/53/91
f 75/51/75 74/50/74 91/53/91 92/52/92
f 76/54/76 75/51/75 92/52/92 93/55/93
f 77/51/77 76/54/76 93/55/93 94/52/94
f 78/50/78 77/51/77 94/52/94 95/53/95
f 79/51/79 78/50/78 95/53/95 96/52/96
f 80/54/80 79/51/79 96/52/96 97/55/97
f 65/51/65 80/54/80 97/55/97 82/52/82
f 91/62/91 95/58/95 93/60/93 92/61/92
f 89/64/89 87/66/87 91/62/91 90/63/90
f 85/68/85 83/70/83 87/66/87 86/67/86
f 83/70/83 95/58/95 91/62/91 87/66/87
f 97/56/97 95/58/95 83/70/83 82/71/82
f 4/4/4 3/3/3 81/49/81
f 3/3/3 6/6/6 81/49/81
f 6/6/6 8/8/8 81/49/81
f 8/8/8 10/10/10 81/49/81
f 10/10/10 12/12/12 81/49/81
f 12/12/12 14/14/14 81/49/81
f 14/14/14 16/16/16 81/49/81
f 16/16/16 18/18/18 81/49/81
f 18/18/18 20/20/20 81/49/81
f 20/20/20 22/22/22 81/49/81
f 22/22/22 24/24/24 81/49/81
f 24/24/24 26/26/26 81/49/81
f 26/26/26 28/28/28 81/49/81
f 28/28/28 30/30/30 81/49/81
f 30/30/30 32/32/32 81/49/81
f 32/32/32 4/4/4 81/49/81
f 89/64/89 88/65/88 87/66/87
f 85/68/85 84/69/84 83/70/83
f 97/56/97 96/57/96 95/58/95
f 93/60/93 95/58/95 94/59/94
# 105 faces

g
