# Max2Obj Version 4.0 Mar 10th, 2001
#
mtllib ./arena_07.mtl
g
# object (null) to come ...
#
v  0.944190 0.000000 0.162024
v  0.872317 0.361327 0.162025
v  0.712933 0.295308 0.267309
v  0.771673 0.000000 0.267309
v  0.667639 0.667644 0.162025
v  0.545653 0.545658 0.267309
v  0.361322 0.872319 0.162025
v  0.295303 0.712936 0.267309
v  -0.000003 0.944192 0.162024
v  -0.000003 0.771676 0.267309
v  -0.361329 0.872319 0.162025
v  -0.295311 0.712936 0.267309
v  -0.667646 0.667645 0.162024
v  -0.545661 0.545658 0.267309
v  -0.872325 0.361327 0.162024
v  -0.712939 0.295308 0.267309
v  -0.944195 0.000000 0.162025
v  -0.771679 0.000000 0.267309
v  -0.872323 -0.361326 0.162025
v  -0.712939 -0.295307 0.267309
v  -0.667646 -0.667644 0.162025
v  -0.545661 -0.545657 0.267309
v  -0.361329 -0.872319 0.162025
v  -0.295311 -0.712935 0.267309
v  -0.000003 -0.944191 0.162024
v  -0.000003 -0.771676 0.267309
v  0.361322 -0.872319 0.162025
v  0.295303 -0.712935 0.267309
v  0.667641 -0.667644 0.162025
v  0.545653 -0.545657 0.267309
v  0.872317 -0.361326 0.162025
v  0.712933 -0.295307 0.267309
v  1.611049 0.000000 0.141500
v  1.488413 0.616523 0.141500
v  1.139182 1.139185 0.141500
v  0.616519 1.488416 0.141500
v  -0.000003 1.611050 0.141500
v  -0.616524 1.488417 0.141500
v  -1.139189 1.139185 0.141500
v  -1.488420 0.616522 0.141500
v  -1.611054 0.000000 0.141500
v  -1.488420 -0.616522 0.141500
v  -1.139189 -1.139184 0.141500
v  -0.616524 -1.488416 0.141500
v  -0.000003 -1.611050 0.141500
v  0.616519 -1.488416 0.141500
v  1.139182 -1.139184 0.141500
v  1.488413 -0.616522 0.141500
v  1.783038 0.000000 0.075378
v  1.647313 0.682341 0.075378
v  1.260799 1.260801 0.075378
v  0.682337 1.647316 0.075378
v  -0.000003 1.783042 0.075378
v  -0.682345 1.647316 0.075378
v  -1.260806 1.260801 0.075378
v  -1.647319 0.682341 0.075378
v  -1.783045 0.000000 0.075378
v  -1.647319 -0.682340 0.075378
v  -1.260806 -1.260801 0.075378
v  -0.682345 -1.647316 0.075378
v  -0.000003 -1.783041 0.075378
v  0.682338 -1.647315 0.075378
v  1.260799 -1.260800 0.075378
v  1.647311 -0.682340 0.075378
v  2.473076 0.000000 0.047972
v  2.284825 0.946407 0.047972
v  1.748725 1.748731 0.047972
v  0.946403 2.284827 0.047972
v  -0.000003 2.473079 0.047972
v  -0.946412 2.284827 0.047972
v  -1.748734 1.748731 0.047972
v  -2.284834 0.946406 0.047972
v  -2.473083 0.000000 0.047972
v  -2.284832 -0.946406 0.047972
v  -1.748734 -1.748730 0.047972
v  -0.946411 -2.284827 0.047972
v  -0.000003 -2.473079 0.047972
v  0.946403 -2.284826 0.047972
v  1.748728 -1.748730 0.047972
v  2.284825 -0.946406 0.047972
v  -0.000001 0.000000 0.301422
v  2.938805 0.000000 -0.301422
v  2.715103 1.124632 -0.301422
v  2.078047 2.078049 -0.301422
v  1.124631 2.715101 -0.301422
v  -0.000000 2.938804 -0.301422
v  -1.124631 2.715101 -0.301422
v  -2.078049 2.078048 -0.301422
v  -2.715101 1.124632 -0.301422
v  -2.938805 0.000000 -0.301422
v  -2.715103 -1.124632 -0.301422
v  -2.078049 -2.078048 -0.301422
v  -1.124630 -2.715101 -0.301422
v  0.000000 -2.938805 -0.301422
v  1.124631 -2.715100 -0.301422
v  2.078049 -2.078048 -0.301422
v  2.715103 -1.124631 -0.301422
# 97 vertices

vt  0.498453 -0.834518 0.530958
vt  0.499090 -0.713735 0.530958
vt  0.554686 -0.713829 0.469042
vt  0.553522 -0.804164 0.469042
vt  0.499365 -0.835974 0.530958
vt  0.554449 -0.804155 0.469042
vt  0.499041 -0.716179 0.530958
vt  0.554804 -0.716143 0.469042
vt  0.499011 -0.835685 0.530958
vt  0.554199 -0.804887 0.469042
vt  0.498917 -0.714916 0.530958
vt  0.554722 -0.715184 0.469042
vt  0.498817 -0.834714 0.530958
vt  0.554056 -0.803198 0.469042
vt  0.499015 -0.715372 0.530958
vt  0.554653 -0.715044 0.469042
vt  0.498998 -0.835965 0.530958
vt  0.553945 -0.805215 0.469042
vt  0.498783 -0.715096 0.530958
vt  0.554379 -0.715190 0.469042
vt  0.498457 -0.835314 0.530958
vt  0.553542 -0.803495 0.469042
vt  0.498133 -0.715519 0.530958
vt  0.553897 -0.715483 0.469042
vt  0.497780 -0.835270 0.530958
vt  0.553044 -0.804721 0.469042
vt  0.497940 -0.714489 0.530958
vt  0.553746 -0.714757 0.469042
vt  0.497840 -0.834286 0.530958
vt  0.553080 -0.802770 0.469042
vt  0.498541 -0.716636 0.530958
vt  0.554179 -0.716309 0.469042
vt  0.807490 0.801604 0.511359
vt  0.993684 0.801461 0.511359
vt  0.993546 0.594745 0.511359
vt  0.740515 0.594017 0.511359
vt  0.805835 0.802498 0.511359
vt  0.993749 0.802353 0.511359
vt  0.993611 0.595637 0.511359
vt  0.743788 0.594880 0.511359
vt  0.478978 0.118298 0.504497
vt  0.479198 0.293341 0.504497
vt  0.477791 0.118243 0.504497
vt  0.478021 0.292126 0.504497
vt  0.494133 0.743541 0.504497
vt  0.726346 0.743874 0.504497
vt  0.993484 0.723779 0.504497
vt  0.753434 0.723225 0.504497
vt  0.879728 -0.874543 0.469042
vt  0.493791 0.607192 0.459595
vt  0.725911 0.607186 0.459595
vt  -0.041629 0.826379 0.500000
vt  -0.050409 0.839519 0.500000
vt  -0.063550 0.848300 0.500000
vt  -0.079051 0.851383 0.500000
vt  -0.094551 0.848300 0.500000
vt  -0.107692 0.839519 0.500000
vt  -0.116472 0.826379 0.500000
vt  -0.119555 0.810878 0.500000
vt  -0.116472 0.795378 0.500000
vt  -0.107692 0.782237 0.500000
vt  -0.094551 0.773457 0.500000
vt  -0.079051 0.770373 0.500000
vt  -0.063550 0.773457 0.500000
vt  -0.050409 0.782237 0.500000
vt  -0.041629 0.795378 0.500000
vt  -0.038546 0.810878 0.500000
vt  0.381044 0.126827 0.511359
vt  0.381585 0.292676 0.511359
vt  0.379857 0.126772 0.511359
vt  0.381287 0.291960 0.511359
vt  0.992757 0.949946 0.504497
vt  0.753006 0.949946 0.504497
vt  0.880635 -0.751523 0.469042
vt  0.930655 -0.762343 0.469042
vt  0.827972 -0.763097 0.469042
vt  0.879285 -0.751619 0.469042
vt  0.931093 -0.762893 0.469042
vt  0.879845 -0.751553 0.469042
vt  0.828530 -0.762777 0.469042
vt  0.879926 -0.751497 0.469042
vt  0.931291 -0.762687 0.469042
vt  0.879841 -0.751274 0.469042
vt  0.828357 -0.762359 0.469042
vt  0.879670 -0.750882 0.469042
vt  0.930992 -0.761955 0.469042
vt  0.880094 -0.750759 0.469042
vt  0.828779 -0.761983 0.469042
vt  0.879189 -0.751112 0.469042
# 89 texture vertices

vn  0.520939 -0.000000 0.853594
vn  0.481285 0.199356 0.853593
vn  0.481285 0.199356 0.853594
vn  0.520938 -0.000000 0.853594
vn  0.368360 0.368363 0.853592
vn  0.368360 0.368363 0.853592
vn  0.199356 0.481286 0.853593
vn  0.199356 0.481286 0.853593
vn  0.000000 0.520941 0.853593
vn  0.000000 0.520941 0.853593
vn  -0.199355 0.481287 0.853592
vn  -0.199356 0.481287 0.853593
vn  -0.368361 0.368362 0.853592
vn  -0.368363 0.368362 0.853592
vn  -0.481282 0.199354 0.853595
vn  -0.481283 0.199355 0.853595
vn  -0.520938 -0.000001 0.853594
vn  -0.520938 -0.000000 0.853595
vn  -0.481286 -0.199356 0.853593
vn  -0.481285 -0.199355 0.853594
vn  -0.368361 -0.368363 0.853592
vn  -0.368362 -0.368362 0.853592
vn  -0.199356 -0.481287 0.853593
vn  -0.199356 -0.481287 0.853593
vn  0.000000 -0.520941 0.853592
vn  0.000001 -0.520941 0.853592
vn  0.199355 -0.481286 0.853593
vn  0.199356 -0.481286 0.853593
vn  0.368359 -0.368360 0.853594
vn  0.368358 -0.368361 0.853594
vn  0.481285 -0.199355 0.853594
vn  0.481285 -0.199355 0.853594
vn  0.030763 0.006119 0.999508
vn  0.030763 0.006119 0.999508
vn  0.026080 0.017426 0.999508
vn  0.017426 0.026080 0.999508
vn  0.006119 0.030763 0.999508
vn  -0.006120 0.030764 0.999508
vn  -0.017425 0.026080 0.999508
vn  -0.026080 0.017426 0.999508
vn  -0.030763 0.006119 0.999508
vn  -0.030763 -0.006119 0.999508
vn  -0.026080 -0.017426 0.999508
vn  -0.017426 -0.026080 0.999508
vn  -0.006119 -0.030763 0.999508
vn  0.006119 -0.030763 0.999508
vn  0.017426 -0.026080 0.999508
vn  0.026079 -0.017426 0.999508
vn  0.357930 0.071196 0.931030
vn  0.357930 0.071196 0.931030
vn  0.303439 0.202751 0.931030
vn  0.202751 0.303438 0.931030
vn  0.071197 0.357931 0.931030
vn  -0.071196 0.357929 0.931031
vn  -0.202751 0.303439 0.931030
vn  -0.303441 0.202752 0.931029
vn  -0.357932 0.071197 0.931029
vn  -0.357933 -0.071198 0.931029
vn  -0.303440 -0.202750 0.931030
vn  -0.202749 -0.303435 0.931032
vn  -0.071196 -0.357931 0.931030
vn  0.071197 -0.357930 0.931030
vn  0.202751 -0.303438 0.931030
vn  0.303441 -0.202752 0.931029
vn  0.039684 0.007894 0.999181
vn  0.039684 0.007894 0.999181
vn  0.033643 0.022479 0.999181
vn  0.022479 0.033643 0.999181
vn  0.007893 0.039684 0.999181
vn  -0.007894 0.039684 0.999181
vn  -0.022479 0.033643 0.999181
vn  -0.033642 0.022479 0.999181
vn  -0.039684 0.007893 0.999181
vn  -0.039684 -0.007894 0.999181
vn  -0.033643 -0.022480 0.999181
vn  -0.022480 -0.033643 0.999181
vn  -0.007894 -0.039684 0.999181
vn  0.007894 -0.039684 0.999181
vn  0.022480 -0.033643 0.999181
vn  0.033643 -0.022479 0.999181
vn  0.044161 0.008785 0.998986
vn  0.595877 0.118527 0.794281
vn  0.595877 0.118527 0.794281
vn  0.505159 0.337538 0.794281
vn  0.337538 0.505162 0.794279
vn  0.118528 0.595879 0.794279
vn  -0.118528 0.595881 0.794278
vn  -0.337539 0.505164 0.794278
vn  -0.505167 0.337541 0.794275
vn  -0.595882 0.118529 0.794276
vn  -0.595882 -0.118528 0.794277
vn  -0.505164 -0.337540 0.794277
vn  -0.337540 -0.505165 0.794276
vn  -0.118528 -0.595880 0.794278
vn  0.118528 -0.595879 0.794279
vn  0.337537 -0.505161 0.794280
vn  0.505160 -0.337537 0.794281
# 97 vertex normals

g (null)
usemtl arena
s 8
f 1/1/1 2/2/2 3/3/3 4/4/4
f 2/2/2 5/5/5 6/6/6 3/3/3
f 5/5/5 7/7/7 8/8/8 6/6/6
f 7/7/7 9/9/9 10/10/10 8/8/8
f 9/9/9 11/11/11 12/12/12 10/10/10
f 11/11/11 13/13/13 14/14/14 12/12/12
f 13/13/13 15/15/15 16/16/16 14/14/14
f 15/15/15 17/17/17 18/18/18 16/16/16
f 17/17/17 19/19/19 20/20/20 18/18/18
f 19/19/19 21/21/21 22/22/22 20/20/20
f 21/21/21 23/23/23 24/24/24 22/22/22
f 23/23/23 25/25/25 26/26/26 24/24/24
f 25/25/25 27/27/27 28/28/28 26/26/26
f 27/27/27 29/29/29 30/30/30 28/28/28
f 29/29/29 31/31/31 32/32/32 30/30/30
f 31/31/31 1/1/1 4/4/4 32/32/32
s 0
f 2/33/2 1/34/1 33/35/33 34/36/34
f 5/34/5 2/33/2 34/36/34 35/35/35
f 7/37/7 5/38/5 35/39/35 36/40/36
f 9/38/9 7/37/7 36/40/36 37/39/37
f 11/33/11 9/34/9 37/35/37 38/36/38
f 13/34/13 11/33/11 38/36/38 39/35/39
f 15/37/15 13/38/13 39/39/39 40/40/40
f 17/38/17 15/37/15 40/40/40 41/39/41
f 19/33/19 17/34/17 41/35/41 42/36/42
f 21/34/21 19/33/19 42/36/42 43/35/43
f 23/37/23 21/38/21 43/39/43 44/40/44
f 25/38/25 23/37/23 44/40/44 45/39/45
f 27/33/27 25/34/25 45/35/45 46/36/46
f 29/34/29 27/33/27 46/36/46 47/35/47
f 31/37/31 29/38/29 47/39/47 48/40/48
f 1/38/1 31/37/31 48/40/48 33/39/33
f 34/69/34 33/68/33 49/41/49 50/42/50
f 35/68/35 34/69/34 50/42/50 51/41/51
f 36/71/36 35/70/35 51/43/51 52/44/52
f 37/70/37 36/71/36 52/44/52 53/43/53
f 38/69/38 37/68/37 53/41/53 54/42/54
f 39/68/39 38/69/38 54/42/54 55/41/55
f 40/71/40 39/70/39 55/43/55 56/44/56
f 41/70/41 40/71/40 56/44/56 57/43/57
f 42/69/42 41/68/41 57/41/57 58/42/58
f 43/68/43 42/69/42 58/42/58 59/41/59
f 44/71/44 43/70/43 59/43/59 60/44/60
f 45/70/45 44/71/44 60/44/60 61/43/61
f 46/69/46 45/68/45 61/41/61 62/42/62
f 47/68/47 46/69/46 62/42/62 63/41/63
f 48/71/48 47/70/47 63/43/63 64/44/64
f 33/70/33 48/71/48 64/44/64 49/43/49
f 50/73/50 49/72/49 65/47/65 66/48/66
f 51/72/51 50/73/50 66/48/66 67/47/67
f 52/73/52 51/72/51 67/47/67 68/48/68
f 53/72/53 52/73/52 68/48/68 69/47/69
f 54/73/54 53/72/53 69/47/69 70/48/70
f 55/72/55 54/73/54 70/48/70 71/47/71
f 56/73/56 55/72/55 71/47/71 72/48/72
f 57/72/57 56/73/56 72/48/72 73/47/73
f 58/73/58 57/72/57 73/47/73 74/48/74
f 59/72/59 58/73/58 74/48/74 75/47/75
f 60/73/60 59/72/59 75/47/75 76/48/76
f 61/72/61 60/73/60 76/48/76 77/47/77
f 62/73/62 61/72/61 77/47/77 78/48/78
f 63/72/63 62/73/62 78/48/78 79/47/79
f 64/73/64 63/72/63 79/47/79 80/48/80
f 49/72/49 64/73/64 80/48/80 65/47/65
f 66/46/66 65/45/65 82/50/82 83/51/83
f 67/45/67 66/46/66 83/51/83 84/50/84
f 68/46/68 67/45/67 84/50/84 85/51/85
f 69/45/69 68/46/68 85/51/85 86/50/86
f 70/46/70 69/45/69 86/50/86 87/51/87
f 71/45/71 70/46/70 87/51/87 88/50/88
f 72/46/72 71/45/71 88/50/88 89/51/89
f 73/45/73 72/46/72 89/51/89 90/50/90
f 74/46/74 73/45/73 90/50/90 91/51/91
f 75/45/75 74/46/74 91/51/91 92/50/92
f 76/46/76 75/45/75 92/50/92 93/51/93
f 77/45/77 76/46/76 93/51/93 94/50/94
f 78/46/78 77/45/77 94/50/94 95/51/95
f 79/45/79 78/46/78 95/51/95 96/50/96
f 80/46/80 79/45/79 96/50/96 97/51/97
f 65/45/65 80/46/80 97/51/97 82/50/82
f 91/58/91 95/54/95 93/56/93 92/57/92
f 89/60/89 87/62/87 91/58/91 90/59/90
f 85/64/85 83/66/83 87/62/87 86/63/86
f 83/66/83 95/54/95 91/58/91 87/62/87
f 97/52/97 95/54/95 83/66/83 82/67/82
f 4/75/4 3/74/3 81/49/81
f 3/74/3 6/76/6 81/49/81
f 6/76/6 8/77/8 81/49/81
f 8/77/8 10/78/10 81/49/81
f 10/78/10 12/79/12 81/49/81
f 12/79/12 14/80/14 81/49/81
f 14/80/14 16/81/16 81/49/81
f 16/81/16 18/82/18 81/49/81
f 18/82/18 20/83/20 81/49/81
f 20/83/20 22/84/22 81/49/81
f 22/84/22 24/85/24 81/49/81
f 24/85/24 26/86/26 81/49/81
f 26/86/26 28/87/28 81/49/81
f 28/87/28 30/88/30 81/49/81
f 30/88/30 32/89/32 81/49/81
f 32/89/32 4/75/4 81/49/81
f 89/60/89 88/61/88 87/62/87
f 85/64/85 84/65/84 83/66/83
f 97/52/97 96/53/96 95/54/95
f 93/56/93 95/54/95 94/55/94
# 105 faces

g
