# Max2Obj Version 4.0 Mar 10th, 2001
#
mtllib ./arena_01.mtl
g
# object (null) to come ...
#
v  1.823034 0.000004 0.220442
v  1.684273 0.697649 0.220441
v  1.144085 0.473898 0.490211
v  1.238344 0.000005 0.490211
v  1.289080 1.289084 0.220442
v  0.875644 0.875645 0.490211
v  0.697649 1.684267 0.220441
v  0.473896 1.144084 0.490211
v  0.000004 1.823037 0.220441
v  0.000002 1.238347 0.490211
v  -0.697645 1.684267 0.220443
v  -0.473889 1.144084 0.490211
v  -1.289079 1.289083 0.220442
v  -0.875637 0.875645 0.490211
v  -1.684265 0.697649 0.220442
v  -1.144083 0.473898 0.490212
v  -1.823035 0.000004 0.220442
v  -1.238342 0.000005 0.490211
v  -1.684265 -0.697641 0.220442
v  -1.144083 -0.473889 0.490212
v  -1.289079 -1.289075 0.220442
v  -0.875641 -0.875636 0.490212
v  -0.697645 -1.684259 0.220442
v  -0.473892 -1.144075 0.490211
v  0.000004 -1.823029 0.220441
v  0.000002 -1.238338 0.490211
v  0.697646 -1.684258 0.220442
v  0.473896 -1.144074 0.490211
v  1.289085 -1.289075 0.220442
v  0.875644 -0.875635 0.490211
v  1.684273 -0.697640 0.220441
v  1.144085 -0.473888 0.490211
v  2.772862 0.000005 0.220441
v  2.561789 1.061131 0.220442
v  1.960707 1.960710 0.220442
v  1.061130 2.561790 0.220442
v  0.000003 2.772862 0.220441
v  -1.061128 2.561791 0.220442
v  -1.960706 1.960710 0.220441
v  -2.561788 1.061131 0.220442
v  -2.772863 0.000004 0.220442
v  -2.561785 -1.061122 0.220441
v  -1.960701 -1.960701 0.220441
v  -1.061128 -2.561782 0.220442
v  0.000001 -2.772853 0.220442
v  1.061127 -2.561781 0.220442
v  1.960707 -1.960701 0.220442
v  2.561787 -1.061122 0.220442
v  3.232704 0.000004 0.528232
v  2.986625 1.237104 0.528232
v  2.285870 2.285867 0.528232
v  1.237105 2.986628 0.528232
v  0.000005 3.232702 0.528231
v  -1.237099 2.986628 0.528232
v  -2.285861 2.285867 0.528231
v  -2.986625 1.237104 0.528232
v  -3.232700 0.000004 0.528232
v  -2.986622 -1.237096 0.528232
v  -2.285867 -2.285858 0.528232
v  -1.237102 -2.986619 0.528232
v  0.000002 -3.232694 0.528232
v  1.237102 -2.986618 0.528232
v  2.285867 -2.285857 0.528232
v  2.986628 -1.237095 0.528232
v  4.483758 0.000004 0.371256
v  4.142445 1.715862 0.371257
v  3.170497 3.170496 0.371256
v  1.715865 4.142450 0.371255
v  0.000005 4.483757 0.371255
v  -1.715860 4.142449 0.371256
v  -3.170491 3.170495 0.371256
v  -4.142450 1.715861 0.371256
v  -4.483755 0.000004 0.371256
v  -4.142448 -1.715853 0.371256
v  -3.170491 -3.170487 0.371255
v  -1.715853 -4.142441 0.371255
v  0.000002 -4.483747 0.371256
v  1.715865 -4.142440 0.371255
v  3.170500 -3.170485 0.371256
v  4.142451 -1.715852 0.371256
v  0.000002 0.000005 0.576135
v  5.685247 0.000004 -0.576134
v  5.252483 2.175651 -0.576135
v  4.020076 4.020075 -0.576134
v  2.175650 5.252481 -0.576134
v  0.000007 5.685242 -0.576135
v  -2.175648 5.252478 -0.576133
v  -4.020068 4.020075 -0.576133
v  -5.252474 2.175650 -0.576134
v  -5.685246 0.000004 -0.576132
v  -5.252484 -2.175642 -0.576133
v  -4.020068 -4.020066 -0.576133
v  -2.175640 -5.252470 -0.576135
v  0.000001 -5.685236 -0.576134
v  2.175655 -5.252469 -0.576134
v  4.020072 -4.020065 -0.576133
v  5.252479 -2.175641 -0.576134
# 97 vertices

vt  1.425008 -0.002424 0.530958
vt  1.261112 -0.002775 0.530958
vt  1.263926 -0.105634 0.469042
vt  1.383225 -0.105604 0.469042
vt  1.099393 -0.002905 0.530958
vt  1.145114 -0.105646 0.469042
vt  1.273955 -0.002480 0.530958
vt  1.273022 -0.105604 0.469042
vt  1.425439 -0.002622 0.530958
vt  1.383034 -0.105628 0.469042
vt  1.263267 -0.002813 0.530958
vt  1.263889 -0.105641 0.469042
vt  1.111497 -0.002746 0.530958
vt  1.155913 -0.105634 0.469042
vt  1.273535 -0.002764 0.530958
vt  1.274961 -0.105633 0.469042
vt  1.427439 -0.002314 0.530958
vt  1.386918 -0.105596 0.469042
vt  1.264105 -0.002681 0.530958
vt  1.266920 -0.105624 0.469042
vt  1.102386 -0.002810 0.530958
vt  1.148107 -0.105636 0.469042
vt  1.270852 -0.002558 0.530958
vt  1.269919 -0.105613 0.469042
vt  1.432697 -0.002497 0.530958
vt  1.388824 -0.105610 0.469042
vt  1.269819 -0.002183 0.530958
vt  1.270442 -0.105573 0.469042
vt  1.100114 -0.002621 0.530958
vt  1.144531 -0.105620 0.469042
vt  1.262153 -0.002639 0.530958
vt  1.263578 -0.105620 0.469042
vt  0.123451 0.609876 0.511359
vt  0.254956 0.609990 0.511359
vt  0.744601 0.523201 0.511359
vt  0.975322 0.522715 0.511359
vt  0.403612 0.609169 0.511359
vt  0.254905 0.609284 0.511359
vt  0.744541 0.523797 0.511359
vt  0.974012 0.523292 0.511359
vt  -0.238147 0.474580 0.504497
vt  -0.095841 0.474656 0.504497
vt  -0.238181 0.474171 0.504497
vt  -0.095089 0.474251 0.504497
vt  -0.238472 0.591861 0.504497
vt  -0.054528 0.591692 0.504497
vt  -0.238507 0.591452 0.504497
vt  -0.055137 0.591254 0.504497
vt  1.274713 -0.472654 0.469042
vt  0.914671 0.842602 0.504497
vt  0.778556 0.842614 0.504497
vt  0.754881 0.949157 0.459595
vt  0.928141 0.949195 0.459595
vt  0.916280 0.842600 0.504497
vt  0.930475 0.949199 0.459595
vt  -0.041629 0.826379 0.500000
vt  -0.050409 0.839519 0.500000
vt  -0.063550 0.848300 0.500000
vt  -0.079051 0.851383 0.500000
vt  -0.094551 0.848300 0.500000
vt  -0.107692 0.839519 0.500000
vt  -0.116472 0.826379 0.500000
vt  -0.119555 0.810878 0.500000
vt  -0.116472 0.795378 0.500000
vt  -0.107692 0.782237 0.500000
vt  -0.094551 0.773457 0.500000
vt  -0.079051 0.770373 0.500000
vt  -0.063550 0.773457 0.500000
vt  -0.050409 0.782237 0.500000
vt  -0.041629 0.795378 0.500000
vt  -0.038546 0.810878 0.500000
vt  0.744634 0.474012 0.504497
vt  0.994071 0.473901 0.504497
vt  0.744574 0.474608 0.504497
vt  0.994443 0.474492 0.504497
vt  0.255067 0.746068 0.511359
vt  0.070448 0.746643 0.511359
vt  0.255016 0.745363 0.511359
vt  0.452714 0.745960 0.511359
# 79 texture vertices

vn  0.418946 0.000000 0.908011
vn  0.387055 0.160322 0.908012
vn  0.387055 0.160322 0.908012
vn  0.418946 0.000000 0.908011
vn  0.296239 0.296241 0.908011
vn  0.296239 0.296241 0.908011
vn  0.160324 0.387055 0.908011
vn  0.160324 0.387056 0.908011
vn  0.000000 0.418946 0.908011
vn  -0.000001 0.418946 0.908011
vn  -0.160322 0.387054 0.908012
vn  -0.160322 0.387054 0.908012
vn  -0.296238 0.296239 0.908012
vn  -0.296235 0.296240 0.908012
vn  -0.387056 0.160324 0.908011
vn  -0.387056 0.160323 0.908011
vn  -0.418945 0.000001 0.908012
vn  -0.418945 0.000002 0.908012
vn  -0.387056 -0.160325 0.908011
vn  -0.387055 -0.160323 0.908011
vn  -0.296239 -0.296240 0.908011
vn  -0.296238 -0.296241 0.908011
vn  -0.160323 -0.387055 0.908012
vn  -0.160323 -0.387055 0.908012
vn  0.000001 -0.418946 0.908011
vn  0.000001 -0.418946 0.908011
vn  0.160322 -0.387055 0.908012
vn  0.160323 -0.387055 0.908012
vn  0.296237 -0.296239 0.908012
vn  0.296237 -0.296239 0.908012
vn  0.387055 -0.160321 0.908012
vn  0.387054 -0.160322 0.908012
vn  -0.000001 -0.000001 1.000000
vn  -0.000001 -0.000001 1.000000
vn  0.000000 -0.000000 1.000000
vn  -0.000000 -0.000001 1.000000
vn  -0.000001 -0.000000 1.000000
vn  0.000000 0.000001 1.000000
vn  -0.000001 0.000000 1.000000
vn  0.000000 0.000001 1.000000
vn  0.000000 0.000000 1.000000
vn  -0.000001 -0.000001 1.000000
vn  -0.000001 -0.000000 1.000000
vn  -0.000001 0.000000 1.000000
vn  -0.000000 0.000001 1.000000
vn  -0.000000 0.000000 1.000000
vn  0.000000 -0.000000 1.000000
vn  -0.000001 0.000001 1.000000
vn  -0.552864 -0.109974 0.825982
vn  -0.552864 -0.109974 0.825982
vn  -0.468693 -0.313167 0.825986
vn  -0.313171 -0.468695 0.825984
vn  -0.109972 -0.552864 0.825983
vn  0.109972 -0.552865 0.825982
vn  0.313172 -0.468696 0.825982
vn  0.468695 -0.313173 0.825983
vn  0.552867 -0.109972 0.825981
vn  0.552864 0.109973 0.825983
vn  0.468692 0.313168 0.825986
vn  0.313172 0.468695 0.825983
vn  0.109971 0.552864 0.825983
vn  -0.109972 0.552863 0.825983
vn  -0.313171 0.468695 0.825984
vn  -0.468693 0.313171 0.825985
vn  0.124460 0.024757 0.991916
vn  0.124460 0.024757 0.991916
vn  0.105513 0.070501 0.991916
vn  0.070501 0.105513 0.991916
vn  0.024757 0.124461 0.991916
vn  -0.024757 0.124461 0.991916
vn  -0.070501 0.105512 0.991916
vn  -0.105513 0.070502 0.991916
vn  -0.124461 0.024757 0.991916
vn  -0.124460 -0.024757 0.991916
vn  -0.105513 -0.070502 0.991916
vn  -0.070502 -0.105514 0.991916
vn  -0.024757 -0.124461 0.991916
vn  0.024757 -0.124461 0.991916
vn  0.070501 -0.105513 0.991916
vn  0.105513 -0.070501 0.991916
vn  0.069213 0.013766 0.997507
vn  0.614535 0.122239 0.779362
vn  0.614535 0.122239 0.779362
vn  0.520979 0.348107 0.779360
vn  0.348107 0.520979 0.779360
vn  0.122238 0.614537 0.779360
vn  -0.122238 0.614537 0.779360
vn  -0.348107 0.520979 0.779360
vn  -0.520980 0.348108 0.779359
vn  -0.614535 0.122242 0.779361
vn  -0.614535 -0.122239 0.779362
vn  -0.520978 -0.348109 0.779360
vn  -0.348106 -0.520980 0.779360
vn  -0.122240 -0.614536 0.779360
vn  0.122240 -0.614537 0.779360
vn  0.348108 -0.520980 0.779359
vn  0.520980 -0.348108 0.779360
# 97 vertex normals

g (null)
usemtl arena
s 8
f 1/1/1 2/2/2 3/3/3 4/4/4
f 2/2/2 5/5/5 6/6/6 3/3/3
f 5/5/5 7/7/7 8/8/8 6/6/6
f 7/7/7 9/9/9 10/10/10 8/8/8
f 9/9/9 11/11/11 12/12/12 10/10/10
f 11/11/11 13/13/13 14/14/14 12/12/12
f 13/13/13 15/15/15 16/16/16 14/14/14
f 15/15/15 17/17/17 18/18/18 16/16/16
f 17/17/17 19/19/19 20/20/20 18/18/18
f 19/19/19 21/21/21 22/22/22 20/20/20
f 21/21/21 23/23/23 24/24/24 22/22/22
f 23/23/23 25/25/25 26/26/26 24/24/24
f 25/25/25 27/27/27 28/28/28 26/26/26
f 27/27/27 29/29/29 30/30/30 28/28/28
f 29/29/29 31/31/31 32/32/32 30/30/30
f 31/31/31 1/1/1 4/4/4 32/32/32
s 0
f 2/33/2 1/34/1 33/76/33 34/77/34
f 5/34/5 2/33/2 34/77/34 35/76/35
f 7/37/7 5/38/5 35/78/35 36/79/36
f 9/38/9 7/37/7 36/79/36 37/78/37
f 11/33/11 9/34/9 37/76/37 38/77/38
f 13/34/13 11/33/11 38/77/38 39/76/39
f 15/37/15 13/38/13 39/78/39 40/79/40
f 17/38/17 15/37/15 40/79/40 41/78/41
f 19/33/19 17/34/17 41/76/41 42/77/42
f 21/34/21 19/33/19 42/77/42 43/76/43
f 23/37/23 21/38/21 43/78/43 44/79/44
f 25/38/25 23/37/23 44/79/44 45/78/45
f 27/33/27 25/34/25 45/76/45 46/77/46
f 29/34/29 27/33/27 46/77/46 47/76/47
f 31/37/31 29/38/29 47/78/47 48/79/48
f 1/38/1 31/37/31 48/79/48 33/78/33
f 34/36/34 33/35/33 49/72/49 50/73/50
f 35/35/35 34/36/34 50/73/50 51/72/51
f 36/40/36 35/39/35 51/74/51 52/75/52
f 37/39/37 36/40/36 52/75/52 53/74/53
f 38/36/38 37/35/37 53/72/53 54/73/54
f 39/35/39 38/36/38 54/73/54 55/72/55
f 40/40/40 39/39/39 55/74/55 56/75/56
f 41/39/41 40/40/40 56/75/56 57/74/57
f 42/36/42 41/35/41 57/72/57 58/73/58
f 43/35/43 42/36/42 58/73/58 59/72/59
f 44/40/44 43/39/43 59/74/59 60/75/60
f 45/39/45 44/40/44 60/75/60 61/74/61
f 46/36/46 45/35/45 61/72/61 62/73/62
f 47/35/47 46/36/46 62/73/62 63/72/63
f 48/40/48 47/39/47 63/74/63 64/75/64
f 33/39/33 48/40/48 64/75/64 49/74/49
f 50/42/50 49/41/49 65/45/65 66/46/66
f 51/41/51 50/42/50 66/46/66 67/45/67
f 52/44/52 51/43/51 67/47/67 68/48/68
f 53/43/53 52/44/52 68/48/68 69/47/69
f 54/42/54 53/41/53 69/45/69 70/46/70
f 55/41/55 54/42/54 70/46/70 71/45/71
f 56/44/56 55/43/55 71/47/71 72/48/72
f 57/43/57 56/44/56 72/48/72 73/47/73
f 58/42/58 57/41/57 73/45/73 74/46/74
f 59/41/59 58/42/58 74/46/74 75/45/75
f 60/44/60 59/43/59 75/47/75 76/48/76
f 61/43/61 60/44/60 76/48/76 77/47/77
f 62/42/62 61/41/61 77/45/77 78/46/78
f 63/41/63 62/42/62 78/46/78 79/45/79
f 64/44/64 63/43/63 79/47/79 80/48/80
f 49/43/49 64/44/64 80/48/80 65/47/65
f 66/50/66 65/51/65 82/52/82 83/53/83
f 67/51/67 66/50/66 83/53/83 84/52/84
f 68/54/68 67/51/67 84/52/84 85/55/85
f 69/51/69 68/54/68 85/55/85 86/52/86
f 70/50/70 69/51/69 86/52/86 87/53/87
f 71/51/71 70/50/70 87/53/87 88/52/88
f 72/54/72 71/51/71 88/52/88 89/55/89
f 73/51/73 72/54/72 89/55/89 90/52/90
f 74/50/74 73/51/73 90/52/90 91/53/91
f 75/51/75 74/50/74 91/53/91 92/52/92
f 76/54/76 75/51/75 92/52/92 93/55/93
f 77/51/77 76/54/76 93/55/93 94/52/94
f 78/50/78 77/51/77 94/52/94 95/53/95
f 79/51/79 78/50/78 95/53/95 96/52/96
f 80/54/80 79/51/79 96/52/96 97/55/97
f 65/51/65 80/54/80 97/55/97 82/52/82
f 91/62/91 95/58/95 93/60/93 92/61/92
f 89/64/89 87/66/87 91/62/91 90/63/90
f 85/68/85 83/70/83 87/66/87 86/67/86
f 83/70/83 95/58/95 91/62/91 87/66/87
f 97/56/97 95/58/95 83/70/83 82/71/82
f 4/4/4 3/3/3 81/49/81
f 3/3/3 6/6/6 81/49/81
f 6/6/6 8/8/8 81/49/81
f 8/8/8 10/10/10 81/49/81
f 10/10/10 12/12/12 81/49/81
f 12/12/12 14/14/14 81/49/81
f 14/14/14 16/16/16 81/49/81
f 16/16/16 18/18/18 81/49/81
f 18/18/18 20/20/20 81/49/81
f 20/20/20 22/22/22 81/49/81
f 22/22/22 24/24/24 81/49/81
f 24/24/24 26/26/26 81/49/81
f 26/26/26 28/28/28 81/49/81
f 28/28/28 30/30/30 81/49/81
f 30/30/30 32/32/32 81/49/81
f 32/32/32 4/4/4 81/49/81
f 89/64/89 88/65/88 87/66/87
f 85/68/85 84/69/84 83/70/83
f 97/56/97 96/57/96 95/58/95
f 93/60/93 95/58/95 94/59/94
# 105 faces

g
