# Max2Obj Version 4.0 Mar 10th, 2001
#
mtllib ./arena_04.mtl
g
# object (null) to come ...
#
v  2.229560 0.000005 0.299146
v  2.059856 0.853220 0.299145
v  1.445710 0.598834 0.542093
v  1.564822 0.000005 0.542093
v  1.576538 1.576540 0.299146
v  1.106498 1.106497 0.542093
v  0.853222 2.059847 0.299145
v  0.598836 1.445706 0.542093
v  0.000007 2.229562 0.299145
v  0.000006 1.564821 0.542093
v  -0.853214 2.059847 0.299146
v  -0.598823 1.445706 0.542093
v  -1.576535 1.576540 0.299146
v  -1.106485 1.106497 0.542093
v  -2.059843 0.853219 0.299146
v  -1.445704 0.598834 0.542093
v  -2.229558 0.000005 0.299146
v  -1.564812 0.000004 0.542093
v  -2.059843 -0.853210 0.299146
v  -1.445704 -0.598825 0.542093
v  -1.576534 -1.576531 0.299146
v  -1.106490 -1.106488 0.542093
v  -0.853214 -2.059838 0.299146
v  -0.598825 -1.445697 0.542093
v  0.000007 -2.229553 0.299145
v  0.000007 -1.564812 0.542093
v  0.853219 -2.059837 0.299146
v  0.598836 -1.445696 0.542092
v  1.576545 -1.576530 0.299146
v  1.106498 -1.106487 0.542093
v  2.059856 -0.853210 0.299145
v  1.445710 -0.598824 0.542093
v  2.920878 0.000004 0.299145
v  2.698537 1.117774 0.299146
v  2.065370 2.065373 0.299146
v  1.117773 2.698539 0.299146
v  0.000003 2.920877 0.299145
v  -1.117772 2.698539 0.299146
v  -2.065370 2.065373 0.299145
v  -2.698538 1.117774 0.299146
v  -2.920880 0.000004 0.299146
v  -2.698534 -1.117765 0.299145
v  -2.065365 -2.065365 0.299145
v  -1.117772 -2.698531 0.299146
v  0.000000 -2.920869 0.299146
v  1.117770 -2.698529 0.299146
v  2.065370 -2.065365 0.299146
v  2.698536 -1.117765 0.299146
v  3.232703 0.000004 0.179265
v  2.986624 1.237104 0.179266
v  2.285870 2.285867 0.179265
v  1.237105 2.986628 0.179265
v  0.000004 3.232702 0.179265
v  -1.237099 2.986628 0.179266
v  -2.285861 2.285867 0.179265
v  -2.986626 1.237104 0.179266
v  -3.232701 0.000004 0.179266
v  -2.986622 -1.237096 0.179265
v  -2.285867 -2.285858 0.179266
v  -1.237102 -2.986619 0.179265
v  0.000001 -3.232694 0.179266
v  1.237102 -2.986618 0.179266
v  2.285867 -2.285857 0.179265
v  2.986628 -1.237095 0.179265
v  4.483758 0.000004 0.067767
v  4.142445 1.715862 0.067768
v  3.170496 3.170496 0.067768
v  1.715865 4.142450 0.067767
v  0.000005 4.483757 0.067767
v  -1.715860 4.142449 0.067768
v  -3.170492 3.170495 0.067767
v  -4.142450 1.715861 0.067767
v  -4.483755 0.000004 0.067768
v  -4.142448 -1.715853 0.067768
v  -3.170491 -3.170487 0.067767
v  -1.715853 -4.142441 0.067767
v  0.000002 -4.483747 0.067768
v  1.715865 -4.142440 0.067767
v  3.170500 -3.170485 0.067768
v  4.142450 -1.715852 0.067768
v  0.000006 0.000005 0.605151
v  5.685246 0.000004 -0.605151
v  5.252482 2.175651 -0.605151
v  4.020076 4.020075 -0.605151
v  2.175649 5.252481 -0.605151
v  0.000007 5.685242 -0.605151
v  -2.175649 5.252478 -0.605150
v  -4.020069 4.020075 -0.605150
v  -5.252474 2.175650 -0.605151
v  -5.685246 0.000004 -0.605149
v  -5.252484 -2.175642 -0.605150
v  -4.020068 -4.020066 -0.605150
v  -2.175640 -5.252470 -0.605151
v  0.000001 -5.685236 -0.605150
v  2.175655 -5.252469 -0.605151
v  4.020071 -4.020065 -0.605150
v  5.252478 -2.175641 -0.605151
# 97 vertices

vt  0.401528 -0.570779 0.530958
vt  0.451830 -0.570936 0.530958
vt  0.450966 -0.537263 0.469042
vt  0.414352 -0.537172 0.469042
vt  0.501464 -0.570994 0.530958
vt  0.487432 -0.537300 0.469042
vt  0.447888 -0.570804 0.530958
vt  0.448175 -0.537172 0.469042
vt  0.401396 -0.570867 0.530958
vt  0.414411 -0.537244 0.469042
vt  0.451169 -0.570953 0.530958
vt  0.450978 -0.537285 0.469042
vt  0.497749 -0.570923 0.530958
vt  0.484117 -0.537263 0.469042
vt  0.448017 -0.570931 0.530958
vt  0.447580 -0.537261 0.469042
vt  0.400782 -0.570730 0.530958
vt  0.413219 -0.537146 0.469042
vt  0.450911 -0.570894 0.530958
vt  0.450048 -0.537231 0.469042
vt  0.500545 -0.570952 0.530958
vt  0.486513 -0.537269 0.469042
vt  0.448841 -0.570839 0.530958
vt  0.449127 -0.537198 0.469042
vt  0.399168 -0.570812 0.530958
vt  0.412634 -0.537188 0.469042
vt  0.449158 -0.570671 0.530958
vt  0.448967 -0.537074 0.469042
vt  0.501242 -0.570867 0.530958
vt  0.487611 -0.537221 0.469042
vt  0.451511 -0.570875 0.530958
vt  0.451073 -0.537219 0.469042
vt  -0.405956 1.296705 0.511359
vt  -0.406017 1.358140 0.511359
vt  0.574552 0.665889 0.511359
vt  0.852312 0.665304 0.511359
vt  -0.405579 1.427588 0.511359
vt  -0.405640 1.358116 0.511359
vt  0.574480 0.666607 0.511359
vt  0.850735 0.665999 0.511359
vt  -0.093799 1.694925 0.504497
vt  -0.287691 1.694864 0.504497
vt  -0.093752 1.695249 0.504497
vt  -0.288715 1.695185 0.504497
vt  -0.093355 1.602029 0.504497
vt  -0.343978 1.602161 0.504497
vt  -0.093308 1.602353 0.504497
vt  -0.343148 1.602509 0.504497
vt  0.485931 -0.332093 0.469042
vt  -0.039211 1.594496 0.504497
vt  -0.372662 1.594782 0.504497
vt  -0.430663 1.841912 0.459595
vt  -0.006218 1.840913 0.459595
vt  -0.035270 1.594446 0.504497
vt  -0.000499 1.840814 0.459595
vt  -0.041629 0.826379 0.500000
vt  -0.050409 0.839519 0.500000
vt  -0.063550 0.848300 0.500000
vt  -0.079051 0.851383 0.500000
vt  -0.094551 0.848300 0.500000
vt  -0.107692 0.839519 0.500000
vt  -0.116472 0.826379 0.500000
vt  -0.119555 0.810878 0.500000
vt  -0.116472 0.795378 0.500000
vt  -0.107692 0.782237 0.500000
vt  -0.094551 0.773457 0.500000
vt  -0.079051 0.770373 0.500000
vt  -0.063550 0.773457 0.500000
vt  -0.050409 0.782237 0.500000
vt  -0.041629 0.795378 0.500000
vt  -0.038546 0.810878 0.500000
vt  0.574592 0.606672 0.504497
vt  0.874884 0.606538 0.504497
vt  0.574520 0.607389 0.504497
vt  0.875332 0.607249 0.504497
vt  -0.478732 1.358192 0.511359
vt  -0.479038 1.271943 0.511359
vt  -0.478354 1.358168 0.511359
vt  -0.478674 1.450527 0.511359
vt  0.489874 -0.435559 0.469042
vt  0.446259 -0.435492 0.469042
vt  0.533312 -0.435586 0.469042
vt  0.486549 -0.435492 0.469042
vt  0.446328 -0.435545 0.469042
vt  0.489888 -0.435575 0.469042
vt  0.529363 -0.435559 0.469042
vt  0.485840 -0.435558 0.469042
vt  0.444908 -0.435474 0.469042
vt  0.488780 -0.435536 0.469042
vt  0.532217 -0.435563 0.469042
vt  0.487683 -0.435511 0.469042
vt  0.444212 -0.435504 0.469042
vt  0.487492 -0.435420 0.469042
vt  0.533525 -0.435528 0.469042
vt  0.490001 -0.435527 0.469042
# 95 texture vertices

vn  0.343270 0.000000 0.939237
vn  0.317139 0.131362 0.939237
vn  0.317139 0.131362 0.939237
vn  0.343270 0.000001 0.939237
vn  0.242727 0.242729 0.939237
vn  0.242727 0.242729 0.939237
vn  0.131363 0.317139 0.939237
vn  0.131363 0.317139 0.939237
vn  0.000000 0.343269 0.939237
vn  -0.000000 0.343269 0.939237
vn  -0.131362 0.317138 0.939238
vn  -0.131362 0.317138 0.939238
vn  -0.242726 0.242727 0.939238
vn  -0.242724 0.242728 0.939238
vn  -0.317139 0.131363 0.939237
vn  -0.317139 0.131362 0.939237
vn  -0.343268 0.000001 0.939238
vn  -0.343268 0.000001 0.939238
vn  -0.317140 -0.131364 0.939237
vn  -0.317139 -0.131363 0.939237
vn  -0.242727 -0.242728 0.939237
vn  -0.242727 -0.242729 0.939237
vn  -0.131363 -0.317139 0.939237
vn  -0.131362 -0.317139 0.939237
vn  0.000001 -0.343269 0.939237
vn  0.000001 -0.343269 0.939237
vn  0.131363 -0.317139 0.939237
vn  0.131363 -0.317139 0.939237
vn  0.242726 -0.242728 0.939238
vn  0.242726 -0.242728 0.939238
vn  0.317139 -0.131362 0.939237
vn  0.317138 -0.131362 0.939238
vn  -0.000001 -0.000000 1.000000
vn  -0.000001 -0.000000 1.000000
vn  0.000000 -0.000000 1.000000
vn  -0.000000 -0.000000 1.000000
vn  -0.000000 -0.000000 1.000000
vn  0.000000 0.000001 1.000000
vn  -0.000001 0.000000 1.000000
vn  0.000000 0.000000 1.000000
vn  0.000000 0.000000 1.000000
vn  -0.000001 -0.000001 1.000000
vn  -0.000001 -0.000000 1.000000
vn  -0.000000 0.000000 1.000000
vn  0.000000 0.000001 1.000000
vn  -0.000000 0.000000 1.000000
vn  0.000000 -0.000000 1.000000
vn  -0.000001 0.000001 1.000000
vn  0.357932 0.071198 0.931029
vn  0.357932 0.071198 0.931029
vn  0.303436 0.202748 0.931032
vn  0.202751 0.303439 0.931030
vn  0.071197 0.357931 0.931030
vn  -0.071197 0.357932 0.931029
vn  -0.202753 0.303441 0.931029
vn  -0.303439 0.202753 0.931029
vn  -0.357935 0.071198 0.931028
vn  -0.357931 -0.071198 0.931030
vn  -0.303433 -0.202746 0.931033
vn  -0.202752 -0.303440 0.931030
vn  -0.071197 -0.357931 0.931030
vn  0.071198 -0.357932 0.931029
vn  0.202751 -0.303439 0.931030
vn  0.303438 -0.202751 0.931031
vn  0.088757 0.017655 0.995897
vn  0.088757 0.017655 0.995897
vn  0.075245 0.050277 0.995897
vn  0.050277 0.075245 0.995897
vn  0.017655 0.088758 0.995897
vn  -0.017655 0.088758 0.995897
vn  -0.050277 0.075245 0.995897
vn  -0.075245 0.050277 0.995897
vn  -0.088757 0.017655 0.995897
vn  -0.088757 -0.017655 0.995897
vn  -0.075245 -0.050278 0.995897
vn  -0.050277 -0.075246 0.995897
vn  -0.017655 -0.088758 0.995897
vn  0.017655 -0.088758 0.995897
vn  0.050277 -0.075245 0.995897
vn  0.075245 -0.050277 0.995897
vn  0.040264 0.008008 0.999157
vn  0.486357 0.096743 0.868388
vn  0.486357 0.096743 0.868388
vn  0.412315 0.275500 0.868387
vn  0.275500 0.412315 0.868387
vn  0.096742 0.486359 0.868387
vn  -0.096742 0.486359 0.868387
vn  -0.275500 0.412315 0.868387
vn  -0.412316 0.275501 0.868386
vn  -0.486357 0.096745 0.868388
vn  -0.486356 -0.096742 0.868388
vn  -0.412314 -0.275502 0.868387
vn  -0.275499 -0.412316 0.868387
vn  -0.096744 -0.486358 0.868387
vn  0.096743 -0.486358 0.868387
vn  0.275501 -0.412316 0.868386
vn  0.412315 -0.275501 0.868387
# 97 vertex normals

g (null)
usemtl gate
s 8
f 1/1/1 2/2/2 3/3/3 4/4/4
f 2/2/2 5/5/5 6/6/6 3/3/3
f 5/5/5 7/7/7 8/8/8 6/6/6
f 7/7/7 9/9/9 10/10/10 8/8/8
f 9/9/9 11/11/11 12/12/12 10/10/10
f 11/11/11 13/13/13 14/14/14 12/12/12
f 13/13/13 15/15/15 16/16/16 14/14/14
f 15/15/15 17/17/17 18/18/18 16/16/16
f 17/17/17 19/19/19 20/20/20 18/18/18
f 19/19/19 21/21/21 22/22/22 20/20/20
f 21/21/21 23/23/23 24/24/24 22/22/22
f 23/23/23 25/25/25 26/26/26 24/24/24
f 25/25/25 27/27/27 28/28/28 26/26/26
f 27/27/27 29/29/29 30/30/30 28/28/28
f 29/29/29 31/31/31 32/32/32 30/30/30
f 31/31/31 1/1/1 4/4/4 32/32/32
s 0
f 2/33/2 1/34/1 33/76/33 34/77/34
f 5/34/5 2/33/2 34/77/34 35/76/35
f 7/37/7 5/38/5 35/78/35 36/79/36
f 9/38/9 7/37/7 36/79/36 37/78/37
f 11/33/11 9/34/9 37/76/37 38/77/38
f 13/34/13 11/33/11 38/77/38 39/76/39
f 15/37/15 13/38/13 39/78/39 40/79/40
f 17/38/17 15/37/15 40/79/40 41/78/41
f 19/33/19 17/34/17 41/76/41 42/77/42
f 21/34/21 19/33/19 42/77/42 43/76/43
f 23/37/23 21/38/21 43/78/43 44/79/44
f 25/38/25 23/37/23 44/79/44 45/78/45
f 27/33/27 25/34/25 45/76/45 46/77/46
f 29/34/29 27/33/27 46/77/46 47/76/47
f 31/37/31 29/38/29 47/78/47 48/79/48
f 1/38/1 31/37/31 48/79/48 33/78/33
f 34/36/34 33/35/33 49/72/49 50/73/50
f 35/35/35 34/36/34 50/73/50 51/72/51
f 36/40/36 35/39/35 51/74/51 52/75/52
f 37/39/37 36/40/36 52/75/52 53/74/53
f 38/36/38 37/35/37 53/72/53 54/73/54
f 39/35/39 38/36/38 54/73/54 55/72/55
f 40/40/40 39/39/39 55/74/55 56/75/56
f 41/39/41 40/40/40 56/75/56 57/74/57
f 42/36/42 41/35/41 57/72/57 58/73/58
f 43/35/43 42/36/42 58/73/58 59/72/59
f 44/40/44 43/39/43 59/74/59 60/75/60
f 45/39/45 44/40/44 60/75/60 61/74/61
f 46/36/46 45/35/45 61/72/61 62/73/62
f 47/35/47 46/36/46 62/73/62 63/72/63
f 48/40/48 47/39/47 63/74/63 64/75/64
f 33/39/33 48/40/48 64/75/64 49/74/49
f 50/42/50 49/41/49 65/45/65 66/46/66
f 51/41/51 50/42/50 66/46/66 67/45/67
f 52/44/52 51/43/51 67/47/67 68/48/68
f 53/43/53 52/44/52 68/48/68 69/47/69
f 54/42/54 53/41/53 69/45/69 70/46/70
f 55/41/55 54/42/54 70/46/70 71/45/71
f 56/44/56 55/43/55 71/47/71 72/48/72
f 57/43/57 56/44/56 72/48/72 73/47/73
f 58/42/58 57/41/57 73/45/73 74/46/74
f 59/41/59 58/42/58 74/46/74 75/45/75
f 60/44/60 59/43/59 75/47/75 76/48/76
f 61/43/61 60/44/60 76/48/76 77/47/77
f 62/42/62 61/41/61 77/45/77 78/46/78
f 63/41/63 62/42/62 78/46/78 79/45/79
f 64/44/64 63/43/63 79/47/79 80/48/80
f 49/43/49 64/44/64 80/48/80 65/47/65
f 66/50/66 65/51/65 82/52/82 83/53/83
f 67/51/67 66/50/66 83/53/83 84/52/84
f 68/54/68 67/51/67 84/52/84 85/55/85
f 69/51/69 68/54/68 85/55/85 86/52/86
f 70/50/70 69/51/69 86/52/86 87/53/87
f 71/51/71 70/50/70 87/53/87 88/52/88
f 72/54/72 71/51/71 88/52/88 89/55/89
f 73/51/73 72/54/72 89/55/89 90/52/90
f 74/50/74 73/51/73 90/52/90 91/53/91
f 75/51/75 74/50/74 91/53/91 92/52/92
f 76/54/76 75/51/75 92/52/92 93/55/93
f 77/51/77 76/54/76 93/55/93 94/52/94
f 78/50/78 77/51/77 94/52/94 95/53/95
f 79/51/79 78/50/78 95/53/95 96/52/96
f 80/54/80 79/51/79 96/52/96 97/55/97
f 65/51/65 80/54/80 97/55/97 82/52/82
f 91/62/91 95/58/95 93/60/93 92/61/92
f 89/64/89 87/66/87 91/62/91 90/63/90
f 85/68/85 83/70/83 87/66/87 86/67/86
f 83/70/83 95/58/95 91/62/91 87/66/87
f 97/56/97 95/58/95 83/70/83 82/71/82
f 4/81/4 3/80/3 81/49/81
f 3/80/3 6/82/6 81/49/81
f 6/82/6 8/83/8 81/49/81
f 8/83/8 10/84/10 81/49/81
f 10/84/10 12/85/12 81/49/81
f 12/85/12 14/86/14 81/49/81
f 14/86/14 16/87/16 81/49/81
f 16/87/16 18/88/18 81/49/81
f 18/88/18 20/89/20 81/49/81
f 20/89/20 22/90/22 81/49/81
f 22/90/22 24/91/24 81/49/81
f 24/91/24 26/92/26 81/49/81
f 26/92/26 28/93/28 81/49/81
f 28/93/28 30/94/30 81/49/81
f 30/94/30 32/95/32 81/49/81
f 32/95/32 4/81/4 81/49/81
f 89/64/89 88/65/88 87/66/87
f 85/68/85 84/69/84 83/70/83
f 97/56/97 96/57/96 95/58/95
f 93/60/93 95/58/95 94/59/94
# 105 faces

g
