# Max2Obj Version 4.0 Mar 10th, 2001
#
mtllib ./arena_05.mtl
g
# object (null) to come ...
#
v  0.944190 0.000000 0.134825
v  0.872317 0.361327 0.134825
v  0.712933 0.295308 0.269850
v  0.771673 0.000000 0.269850
v  0.667639 0.667644 0.134825
v  0.545653 0.545658 0.269850
v  0.361322 0.872319 0.134825
v  0.295303 0.712936 0.269850
v  -0.000003 0.944192 0.134825
v  -0.000003 0.771676 0.269850
v  -0.361329 0.872319 0.134825
v  -0.295311 0.712936 0.269850
v  -0.667646 0.667645 0.134825
v  -0.545661 0.545658 0.269850
v  -0.872324 0.361327 0.134825
v  -0.712939 0.295308 0.269850
v  -0.944195 0.000000 0.134825
v  -0.771678 0.000000 0.269850
v  -0.872322 -0.361326 0.134825
v  -0.712939 -0.295307 0.269850
v  -0.667646 -0.667644 0.134825
v  -0.545660 -0.545657 0.269850
v  -0.361329 -0.872319 0.134825
v  -0.295311 -0.712935 0.269850
v  -0.000003 -0.944191 0.134825
v  -0.000003 -0.771676 0.269850
v  0.361322 -0.872319 0.134825
v  0.295303 -0.712935 0.269850
v  0.667641 -0.667644 0.134825
v  0.545653 -0.545657 0.269850
v  0.872317 -0.361326 0.134825
v  0.712933 -0.295307 0.269850
v  1.611049 0.000000 0.114300
v  1.488413 0.616523 0.114300
v  1.139182 1.139185 0.114300
v  0.616519 1.488416 0.114300
v  -0.000003 1.611050 0.114300
v  -0.616524 1.488417 0.114300
v  -1.139189 1.139185 0.114300
v  -1.488420 0.616522 0.114300
v  -1.611054 0.000000 0.114300
v  -1.488420 -0.616522 0.114300
v  -1.139189 -1.139184 0.114300
v  -0.616524 -1.488416 0.114300
v  -0.000002 -1.611050 0.114300
v  0.616519 -1.488416 0.114300
v  1.139182 -1.139184 0.114300
v  1.488413 -0.616522 0.114300
v  1.783038 0.000000 -0.019607
v  1.647313 0.682341 -0.019608
v  1.260799 1.260801 -0.019607
v  0.682338 1.647316 -0.019607
v  -0.000003 1.783042 -0.019608
v  -0.682345 1.647316 -0.019607
v  -1.260806 1.260801 -0.019607
v  -1.647318 0.682341 -0.019607
v  -1.783045 0.000000 -0.019607
v  -1.647318 -0.682340 -0.019607
v  -1.260806 -1.260801 -0.019607
v  -0.682345 -1.647316 -0.019607
v  -0.000002 -1.783041 -0.019608
v  0.682338 -1.647315 -0.019607
v  1.260799 -1.260800 -0.019607
v  1.647311 -0.682340 -0.019607
v  2.473077 0.000000 -0.047013
v  2.284825 0.946407 -0.047014
v  1.748726 1.748731 -0.047013
v  0.946403 2.284827 -0.047013
v  -0.000003 2.473079 -0.047013
v  -0.946411 2.284827 -0.047013
v  -1.748734 1.748731 -0.047013
v  -2.284834 0.946406 -0.047013
v  -2.473083 0.000000 -0.047013
v  -2.284832 -0.946406 -0.047013
v  -1.748734 -1.748730 -0.047013
v  -0.946411 -2.284827 -0.047013
v  -0.000003 -2.473079 -0.047013
v  0.946403 -2.284826 -0.047013
v  1.748728 -1.748730 -0.047013
v  2.284825 -0.946406 -0.047014
v  -0.000000 0.000000 0.303963
v  2.938805 0.000000 -0.396407
v  2.715103 1.124632 -0.396408
v  2.078047 2.078049 -0.396407
v  1.124631 2.715101 -0.396408
v  0.000000 2.938804 -0.396407
v  -1.124630 2.715101 -0.396408
v  -2.078049 2.078048 -0.396407
v  -2.715101 1.124632 -0.396408
v  -2.938805 0.000000 -0.396408
v  -2.715102 -1.124632 -0.396407
v  -2.078048 -2.078048 -0.396408
v  -1.124630 -2.715101 -0.396408
v  0.000000 -2.938805 -0.396407
v  1.124631 -2.715100 -0.396407
v  2.078049 -2.078048 -0.396407
v  2.715103 -1.124631 -0.396408
# 97 vertices

vt  0.885790 -0.649705 0.530958
vt  0.819261 -0.650209 0.530958
vt  0.819208 -0.694175 0.469042
vt  0.867888 -0.693255 0.469042
vt  0.749901 -0.650426 0.530958
vt  0.767956 -0.693988 0.469042
vt  0.817874 -0.650170 0.530958
vt  0.817895 -0.694269 0.469042
vt  0.886478 -0.650146 0.530958
vt  0.868315 -0.693790 0.469042
vt  0.818591 -0.650072 0.530958
vt  0.818439 -0.694204 0.469042
vt  0.750616 -0.649992 0.530958
vt  0.768499 -0.693677 0.469042
vt  0.818333 -0.650149 0.530958
vt  0.818518 -0.694150 0.469042
vt  0.886643 -0.650136 0.530958
vt  0.868508 -0.693589 0.469042
vt  0.818489 -0.649966 0.530958
vt  0.818435 -0.693933 0.469042
vt  0.750276 -0.649708 0.530958
vt  0.768330 -0.693271 0.469042
vt  0.818249 -0.649452 0.530958
vt  0.818269 -0.693551 0.469042
vt  0.886234 -0.649172 0.530958
vt  0.868217 -0.692877 0.469042
vt  0.818833 -0.649300 0.530958
vt  0.818681 -0.693432 0.469042
vt  0.750859 -0.649220 0.530958
vt  0.768741 -0.692905 0.469042
vt  0.817615 -0.649775 0.530958
vt  0.817801 -0.693775 0.469042
vt  0.889211 0.494607 0.511359
vt  0.889102 0.352085 0.511359
vt  0.730871 0.352192 0.511359
vt  0.730314 0.545874 0.511359
vt  0.889896 0.495874 0.511359
vt  0.889785 0.352035 0.511359
vt  0.731554 0.352142 0.511359
vt  0.730975 0.543368 0.511359
vt  0.518230 0.177485 0.504497
vt  0.677331 0.177358 0.504497
vt  0.518180 0.178168 0.504497
vt  0.676226 0.178035 0.504497
vt  0.511191 0.239163 0.504497
vt  0.691394 0.238881 0.504497
vt  0.511141 0.238480 0.504497
vt  0.688309 0.238149 0.504497
vt  0.818325 -0.813901 0.469042
vt  0.514954 0.380526 0.504497
vt  0.397701 0.381777 0.504497
vt  0.397611 0.261885 0.459595
vt  0.514850 0.262372 0.459595
vt  0.514615 0.380309 0.504497
vt  0.514596 0.262420 0.459595
vt  -0.041629 0.826379 0.500000
vt  -0.050409 0.839519 0.500000
vt  -0.063550 0.848300 0.500000
vt  -0.079051 0.851383 0.500000
vt  -0.094551 0.848300 0.500000
vt  -0.107692 0.839519 0.500000
vt  -0.116472 0.826379 0.500000
vt  -0.119555 0.810878 0.500000
vt  -0.116472 0.795378 0.500000
vt  -0.107692 0.782237 0.500000
vt  -0.094551 0.773457 0.500000
vt  -0.079051 0.770373 0.500000
vt  -0.063550 0.773457 0.500000
vt  -0.050409 0.782237 0.500000
vt  -0.041629 0.795378 0.500000
vt  -0.038546 0.810878 0.500000
vt  0.525982 0.233814 0.511359
vt  0.676727 0.233502 0.511359
vt  0.525932 0.234497 0.511359
vt  0.676076 0.233674 0.511359
vt  0.511664 0.043429 0.504497
vt  0.690050 0.043556 0.504497
vt  0.511614 0.042747 0.504497
vt  0.688945 0.042880 0.504497
# 79 texture vertices

vn  0.616342 -0.000000 0.787479
vn  0.569427 0.235866 0.787477
vn  0.569426 0.235866 0.787478
vn  0.616342 -0.000001 0.787479
vn  0.435821 0.435824 0.787476
vn  0.435821 0.435824 0.787476
vn  0.235866 0.569428 0.787477
vn  0.235866 0.569428 0.787477
vn  0.000000 0.616345 0.787476
vn  0.000000 0.616345 0.787476
vn  -0.235865 0.569429 0.787476
vn  -0.235865 0.569429 0.787476
vn  -0.435822 0.435822 0.787476
vn  -0.435824 0.435822 0.787475
vn  -0.569424 0.235864 0.787480
vn  -0.569424 0.235865 0.787479
vn  -0.616342 -0.000001 0.787479
vn  -0.616341 -0.000001 0.787479
vn  -0.569428 -0.235865 0.787477
vn  -0.569427 -0.235864 0.787478
vn  -0.435822 -0.435823 0.787475
vn  -0.435822 -0.435823 0.787476
vn  -0.235865 -0.569428 0.787476
vn  -0.235865 -0.569428 0.787476
vn  0.000001 -0.616345 0.787476
vn  0.000001 -0.616345 0.787476
vn  0.235865 -0.569428 0.787477
vn  0.235865 -0.569428 0.787476
vn  0.435819 -0.435821 0.787478
vn  0.435818 -0.435822 0.787478
vn  0.569426 -0.235865 0.787478
vn  0.569426 -0.235865 0.787478
vn  0.030763 0.006119 0.999508
vn  0.030763 0.006119 0.999508
vn  0.026080 0.017426 0.999508
vn  0.017426 0.026080 0.999508
vn  0.006119 0.030763 0.999508
vn  -0.006120 0.030764 0.999508
vn  -0.017425 0.026080 0.999508
vn  -0.026080 0.017426 0.999508
vn  -0.030763 0.006119 0.999508
vn  -0.030763 -0.006119 0.999508
vn  -0.026080 -0.017426 0.999508
vn  -0.017426 -0.026080 0.999508
vn  -0.006119 -0.030763 0.999508
vn  0.006119 -0.030763 0.999508
vn  0.017426 -0.026080 0.999508
vn  0.026079 -0.017426 0.999508
vn  0.609793 0.121294 0.783224
vn  0.609793 0.121294 0.783224
vn  0.516959 0.345420 0.783223
vn  0.345420 0.516958 0.783224
vn  0.121295 0.609795 0.783223
vn  -0.121295 0.609793 0.783224
vn  -0.345420 0.516959 0.783223
vn  -0.516962 0.345420 0.783221
vn  -0.609796 0.121296 0.783222
vn  -0.609797 -0.121297 0.783221
vn  -0.516959 -0.345419 0.783223
vn  -0.345418 -0.516955 0.783227
vn  -0.121295 -0.609795 0.783223
vn  0.121296 -0.609794 0.783223
vn  0.345420 -0.516958 0.783224
vn  0.516962 -0.345421 0.783221
vn  0.039684 0.007894 0.999181
vn  0.039684 0.007894 0.999181
vn  0.033643 0.022479 0.999181
vn  0.022479 0.033643 0.999181
vn  0.007893 0.039684 0.999181
vn  -0.007894 0.039684 0.999181
vn  -0.022479 0.033643 0.999181
vn  -0.033642 0.022479 0.999181
vn  -0.039684 0.007893 0.999181
vn  -0.039684 -0.007894 0.999181
vn  -0.033643 -0.022480 0.999181
vn  -0.022480 -0.033643 0.999181
vn  -0.007894 -0.039684 0.999181
vn  0.007894 -0.039684 0.999181
vn  0.022480 -0.033643 0.999181
vn  0.033643 -0.022479 0.999181
vn  0.044161 0.008785 0.998986
vn  0.595877 0.118527 0.794281
vn  0.595877 0.118527 0.794281
vn  0.505159 0.337538 0.794281
vn  0.337538 0.505162 0.794279
vn  0.118528 0.595879 0.794279
vn  -0.118528 0.595881 0.794278
vn  -0.337539 0.505164 0.794278
vn  -0.505167 0.337541 0.794275
vn  -0.595882 0.118529 0.794276
vn  -0.595882 -0.118528 0.794277
vn  -0.505164 -0.337540 0.794277
vn  -0.337540 -0.505165 0.794276
vn  -0.118528 -0.595880 0.794278
vn  0.118528 -0.595879 0.794279
vn  0.337537 -0.505161 0.794280
vn  0.505160 -0.337538 0.794281
# 97 vertex normals

g (null)
usemtl gate
s 8
f 1/1/1 2/2/2 3/3/3 4/4/4
f 2/2/2 5/5/5 6/6/6 3/3/3
f 5/5/5 7/7/7 8/8/8 6/6/6
f 7/7/7 9/9/9 10/10/10 8/8/8
f 9/9/9 11/11/11 12/12/12 10/10/10
f 11/11/11 13/13/13 14/14/14 12/12/12
f 13/13/13 15/15/15 16/16/16 14/14/14
f 15/15/15 17/17/17 18/18/18 16/16/16
f 17/17/17 19/19/19 20/20/20 18/18/18
f 19/19/19 21/21/21 22/22/22 20/20/20
f 21/21/21 23/23/23 24/24/24 22/22/22
f 23/23/23 25/25/25 26/26/26 24/24/24
f 25/25/25 27/27/27 28/28/28 26/26/26
f 27/27/27 29/29/29 30/30/30 28/28/28
f 29/29/29 31/31/31 32/32/32 30/30/30
f 31/31/31 1/1/1 4/4/4 32/32/32
s 0
f 2/33/2 1/34/1 33/35/33 34/36/34
f 5/34/5 2/33/2 34/36/34 35/35/35
f 7/37/7 5/38/5 35/39/35 36/40/36
f 9/38/9 7/37/7 36/40/36 37/39/37
f 11/33/11 9/34/9 37/35/37 38/36/38
f 13/34/13 11/33/11 38/36/38 39/35/39
f 15/37/15 13/38/13 39/39/39 40/40/40
f 17/38/17 15/37/15 40/40/40 41/39/41
f 19/33/19 17/34/17 41/35/41 42/36/42
f 21/34/21 19/33/19 42/36/42 43/35/43
f 23/37/23 21/38/21 43/39/43 44/40/44
f 25/38/25 23/37/23 44/40/44 45/39/45
f 27/33/27 25/34/25 45/35/45 46/36/46
f 29/34/29 27/33/27 46/36/46 47/35/47
f 31/37/31 29/38/29 47/39/47 48/40/48
f 1/38/1 31/37/31 48/40/48 33/39/33
f 34/73/34 33/72/33 49/41/49 50/42/50
f 35/72/35 34/73/34 50/42/50 51/41/51
f 36/75/36 35/74/35 51/43/51 52/44/52
f 37/74/37 36/75/36 52/44/52 53/43/53
f 38/73/38 37/72/37 53/41/53 54/42/54
f 39/72/39 38/73/38 54/42/54 55/41/55
f 40/75/40 39/74/39 55/43/55 56/44/56
f 41/74/41 40/75/40 56/44/56 57/43/57
f 42/73/42 41/72/41 57/41/57 58/42/58
f 43/72/43 42/73/42 58/42/58 59/41/59
f 44/75/44 43/74/43 59/43/59 60/44/60
f 45/74/45 44/75/44 60/44/60 61/43/61
f 46/73/46 45/72/45 61/41/61 62/42/62
f 47/72/47 46/73/46 62/42/62 63/41/63
f 48/75/48 47/74/47 63/43/63 64/44/64
f 33/74/33 48/75/48 64/44/64 49/43/49
f 50/77/50 49/76/49 65/45/65 66/46/66
f 51/76/51 50/77/50 66/46/66 67/45/67
f 52/79/52 51/78/51 67/47/67 68/48/68
f 53/78/53 52/79/52 68/48/68 69/47/69
f 54/77/54 53/76/53 69/45/69 70/46/70
f 55/76/55 54/77/54 70/46/70 71/45/71
f 56/79/56 55/78/55 71/47/71 72/48/72
f 57/78/57 56/79/56 72/48/72 73/47/73
f 58/77/58 57/76/57 73/45/73 74/46/74
f 59/76/59 58/77/58 74/46/74 75/45/75
f 60/79/60 59/78/59 75/47/75 76/48/76
f 61/78/61 60/79/60 76/48/76 77/47/77
f 62/77/62 61/76/61 77/45/77 78/46/78
f 63/76/63 62/77/62 78/46/78 79/45/79
f 64/79/64 63/78/63 79/47/79 80/48/80
f 49/78/49 64/79/64 80/48/80 65/47/65
f 66/50/66 65/51/65 82/52/82 83/53/83
f 67/51/67 66/50/66 83/53/83 84/52/84
f 68/54/68 67/51/67 84/52/84 85/55/85
f 69/51/69 68/54/68 85/55/85 86/52/86
f 70/50/70 69/51/69 86/52/86 87/53/87
f 71/51/71 70/50/70 87/53/87 88/52/88
f 72/54/72 71/51/71 88/52/88 89/55/89
f 73/51/73 72/54/72 89/55/89 90/52/90
f 74/50/74 73/51/73 90/52/90 91/53/91
f 75/51/75 74/50/74 91/53/91 92/52/92
f 76/54/76 75/51/75 92/52/92 93/55/93
f 77/51/77 76/54/76 93/55/93 94/52/94
f 78/50/78 77/51/77 94/52/94 95/53/95
f 79/51/79 78/50/78 95/53/95 96/52/96
f 80/54/80 79/51/79 96/52/96 97/55/97
f 65/51/65 80/54/80 97/55/97 82/52/82
f 91/62/91 95/58/95 93/60/93 92/61/92
f 89/64/89 87/66/87 91/62/91 90/63/90
f 85/68/85 83/70/83 87/66/87 86/67/86
f 83/70/83 95/58/95 91/62/91 87/66/87
f 97/56/97 95/58/95 83/70/83 82/71/82
f 4/4/4 3/3/3 81/49/81
f 3/3/3 6/6/6 81/49/81
f 6/6/6 8/8/8 81/49/81
f 8/8/8 10/10/10 81/49/81
f 10/10/10 12/12/12 81/49/81
f 12/12/12 14/14/14 81/49/81
f 14/14/14 16/16/16 81/49/81
f 16/16/16 18/18/18 81/49/81
f 18/18/18 20/20/20 81/49/81
f 20/20/20 22/22/22 81/49/81
f 22/22/22 24/24/24 81/49/81
f 24/24/24 26/26/26 81/49/81
f 26/26/26 28/28/28 81/49/81
f 28/28/28 30/30/30 81/49/81
f 30/30/30 32/32/32 81/49/81
f 32/32/32 4/4/4 81/49/81
f 89/64/89 88/65/88 87/66/87
f 85/68/85 84/69/84 83/70/83
f 97/56/97 96/57/96 95/58/95
f 93/60/93 95/58/95 94/59/94
# 105 faces

g
