# Max2Obj Version 4.0 Mar 10th, 2001
#
mtllib ./head_s1.mtl
g
# object (null) to come ...
#
v  -1.368025 1.623787 4.785115
v  -1.937985 -0.059145 2.085635
v  -1.622139 0.004508 4.494473
v  -1.916398 0.516998 3.301795
v  -1.130909 -1.023446 0.871376
v  -1.491595 -0.381462 0.608105
v  -0.577530 -1.612213 1.669990
v  -1.349148 -1.456210 2.376583
v  -1.638416 -0.992873 2.351677
v  -1.646307 -0.892776 3.102176
v  -1.156157 -1.243077 3.818496
v  0.000002 -1.547941 3.604425
v  -0.984248 -0.738125 4.751869
v  0.000002 -0.813718 4.934055
v  0.000002 -1.510587 3.190768
v  -0.459790 -1.580180 2.373188
v  0.000002 -1.815318 1.871907
v  -0.533985 -1.285531 0.755780
v  0.000002 -1.477301 2.342345
v  -0.811287 -1.367869 1.918857
v  -1.072245 -1.344612 3.125336
v  -0.699918 -0.528125 3.131518
v  -0.291166 -1.424809 3.488058
v  -2.151705 1.705072 2.283670
v  -1.917985 1.789022 3.469793
v  -1.898959 1.124017 2.188828
v  -1.977890 0.527986 2.363334
v  -1.037720 -0.083181 0.626807
v  -0.840177 0.527988 2.363335
v  -0.869142 -0.301681 1.877813
v  -0.881574 1.815312 2.236248
v  -0.000001 1.815315 2.410019
v  -0.893197 1.124018 2.188828
v  -0.000000 1.124020 2.362597
v  0.000000 0.563529 2.357429
v  0.000001 -0.266141 1.871907
v  -0.000001 1.712788 4.793089
v  1.368023 1.623790 4.785114
v  1.937986 -0.059141 2.085635
v  1.622140 0.004512 4.494473
v  1.916398 0.517003 3.301795
v  1.130912 -1.023443 0.871377
v  1.491597 -0.381458 0.608104
v  0.577534 -1.612211 1.669990
v  1.349152 -1.456207 2.376584
v  1.638419 -0.992868 2.351678
v  1.646310 -0.892772 3.102176
v  1.156160 -1.243074 3.818497
v  0.984251 -0.738122 4.751870
v  0.000001 0.111859 5.178777
v  0.459794 -1.580178 2.373189
v  0.533989 -1.285529 0.755780
v  0.811291 -1.367867 1.918858
v  1.072249 -1.344609 3.125337
v  0.699921 -0.528123 3.131519
v  0.291170 -1.424808 3.488058
v  2.151703 1.705077 2.283670
v  1.917983 1.789027 3.469793
v  1.898957 1.124021 2.188828
v  1.977890 0.527991 2.363334
v  1.037721 -0.083178 0.626808
v  0.840177 0.527990 2.363335
v  0.869144 -0.301678 1.877813
v  0.881572 1.815315 2.236248
v  0.893196 1.124020 2.188828
# 65 vertices

vt  0.872095 0.306652 0.000000
vt  0.983107 0.290845 0.000000
vt  0.953871 0.249307 0.000000
vt  0.959711 0.188487 0.000000
vt  0.835723 0.244522 0.000000
vt  0.884257 0.180768 0.000000
vt  0.836860 0.090899 0.000000
vt  0.868796 0.083203 0.000000
vt  0.826856 0.144118 0.000000
vt  0.801819 0.015888 0.000000
vt  0.741832 0.054682 0.355302
vt  0.741098 0.065554 0.000000
vt  0.754228 0.029649 0.000000
vt  0.719903 0.029649 0.000000
vt  0.790472 0.081439 0.000000
vt  0.978082 0.075925 0.473120
vt  0.788094 0.011888 0.567089
vt  0.724290 0.105160 0.000000
vt  0.779487 0.178778 0.000000
vt  0.716897 0.150981 0.000000
vt  0.777529 0.242349 0.000000
vt  0.708561 0.253250 0.000000
vt  0.745771 0.304494 0.000000
vt  0.856483 0.027479 0.675558
vt  0.850221 0.100525 0.268193
vt  0.719557 0.029649 0.000000
vt  0.755798 0.000119 0.000000
vt  0.716901 0.066327 0.000000
vt  0.768851 0.055615 0.000000
vt  0.782986 0.109737 0.000000
vt  0.783264 0.137087 0.000000
vt  0.753091 0.149852 0.000000
vt  0.957063 0.169755 0.000000
vt  0.980889 0.095483 0.000000
vt  0.949075 0.074681 0.000000
vt  0.905636 0.094871 0.000000
vt  0.968384 0.045900 0.000000
vt  0.902297 0.041082 0.000000
vt  0.911910 0.220387 0.550085
vt  0.878158 0.239258 0.513500
vt  0.979636 0.137155 0.474938
vt  0.968974 0.084510 0.484843
vt  0.974957 0.022441 0.428473
vt  0.910010 0.026973 0.453912
vt  0.920115 0.102797 0.535293
vt  0.906989 0.141480 0.516723
vt  0.855052 0.139059 0.498768
vt  0.911559 0.080504 0.507331
vt  0.858910 0.078032 0.489655
vt  0.861498 0.027264 0.475143
vt  0.870336 0.103177 0.557020
vt  0.974957 0.033569 0.428473
vt  0.910010 0.029037 0.453912
vt  0.861498 0.028746 0.475143
vt  0.875657 0.073458 0.000000
vt  0.829376 0.019862 0.000000
vt  0.872095 0.306652 0.000000
vt  0.983107 0.290845 0.000000
vt  0.953871 0.249307 0.000000
vt  0.959711 0.188487 0.000000
vt  0.835723 0.244522 0.000000
vt  0.884257 0.180768 0.000000
vt  0.836860 0.090899 0.000000
vt  0.868796 0.083203 0.000000
vt  0.826856 0.144118 0.000000
vt  0.801819 0.015888 0.000000
vt  0.741832 0.054682 0.355302
vt  0.741098 0.065554 0.000000
vt  0.754228 0.029649 0.000000
vt  0.719903 0.029649 0.000000
vt  0.790472 0.081439 0.000000
vt  0.978082 0.075925 0.473120
vt  0.788094 0.011888 0.567089
vt  0.724290 0.105160 0.000000
vt  0.779487 0.178778 0.000000
vt  0.716897 0.150981 0.000000
vt  0.777529 0.242349 0.000000
vt  0.708561 0.253250 0.000000
vt  0.745771 0.304494 0.000000
vt  0.856483 0.027479 0.675558
vt  0.850221 0.100525 0.268193
vt  0.719557 0.029649 0.000000
vt  0.755798 0.000119 0.000000
vt  0.716901 0.066327 0.000000
vt  0.768851 0.055615 0.000000
vt  0.782986 0.109737 0.000000
vt  0.783264 0.137087 0.000000
vt  0.753091 0.149852 0.000000
vt  0.957063 0.169755 0.000000
vt  0.980889 0.095483 0.000000
vt  0.949075 0.074681 0.000000
vt  0.905636 0.094871 0.000000
vt  0.968384 0.045900 0.000000
vt  0.902297 0.041082 0.000000
vt  0.911910 0.220387 0.550085
vt  0.878158 0.239258 0.513500
vt  0.979636 0.137155 0.474938
vt  0.968974 0.084510 0.484843
vt  0.974957 0.022441 0.428473
vt  0.910010 0.026973 0.453912
vt  0.920115 0.102797 0.535293
vt  0.906989 0.141480 0.516723
vt  0.855052 0.139059 0.498768
vt  0.911559 0.080504 0.507331
vt  0.858910 0.078032 0.489655
vt  0.861498 0.027264 0.475143
vt  0.870336 0.103177 0.557020
vt  0.974957 0.033569 0.428473
vt  0.910010 0.029037 0.453912
vt  0.861498 0.028746 0.475143
vt  0.875657 0.073458 0.000000
vt  0.829376 0.019862 0.000000
vt  0.820729 0.129608 0.383263
vt  0.836189 0.089808 0.423002
vt  0.829734 0.161894 0.489140
vt  0.864540 0.099243 0.431922
vt  0.897769 0.224669 0.552190
vt  0.937801 0.215188 0.645805
vt  0.866110 0.206780 0.568903
vt  0.935233 0.186472 0.586929
# 120 texture vertices

vn  -0.483174 0.082666 0.871613
vn  -0.954666 -0.293380 -0.050399
vn  -0.795449 -0.182396 0.577921
vn  -0.977139 -0.112374 0.180478
vn  -0.788992 -0.614273 -0.012688
vn  -0.820128 -0.542111 -0.183046
vn  -0.580052 -0.814475 0.013010
vn  -0.518791 -0.850890 -0.082719
vn  -0.893414 -0.441144 -0.084870
vn  -0.785232 -0.565217 0.252867
vn  -0.500849 -0.864759 0.036621
vn  0.000002 -0.989960 0.141346
vn  -0.453692 -0.511620 0.729663
vn  0.000001 -0.605306 0.795993
vn  0.000002 -0.997876 0.065145
vn  -0.113611 -0.986966 0.113975
vn  0.000002 -0.950119 0.311886
vn  -0.432183 -0.842478 -0.321635
vn  0.000002 -0.957703 0.287760
vn  -0.487578 -0.852312 -0.189295
vn  -0.357918 -0.623075 0.695466
vn  -0.413688 -0.855942 0.310204
vn  -0.375019 -0.923436 -0.081408
vn  -0.885101 -0.418300 0.204011
vn  -0.923663 -0.051307 0.379755
vn  -0.885101 -0.418300 0.204011
vn  -0.993157 -0.097739 0.063931
vn  -0.509454 0.795738 -0.327502
vn  0.000001 -0.280986 -0.959712
vn  0.244128 0.960324 0.134832
vn  0.192997 0.063919 -0.979115
vn  0.192997 0.063919 -0.979115
vn  0.000001 -0.280986 -0.959712
vn  0.190535 0.067184 -0.979379
vn  -0.007419 0.009220 -0.999930
vn  -0.006794 0.000000 -0.999977
vn  -0.000000 0.234214 0.972185
vn  0.483174 0.082667 0.871613
vn  0.954667 -0.293379 -0.050399
vn  0.795450 -0.182394 0.577921
vn  0.977139 -0.112372 0.180478
vn  0.788993 -0.614271 -0.012688
vn  0.820129 -0.542110 -0.183046
vn  0.580054 -0.814474 0.013010
vn  0.518793 -0.850888 -0.082719
vn  0.893415 -0.441142 -0.084870
vn  0.785233 -0.565215 0.252866
vn  0.500852 -0.864758 0.036621
vn  0.453694 -0.511619 0.729663
vn  0.000000 -0.048706 0.998813
vn  0.113614 -0.986966 0.113975
vn  0.432185 -0.842477 -0.321635
vn  0.487580 -0.852311 -0.189295
vn  0.357920 -0.623074 0.695466
vn  0.413689 -0.855941 0.310204
vn  0.375022 -0.923435 -0.081409
vn  0.885102 -0.418299 0.204011
vn  0.923663 -0.051306 0.379755
vn  0.999883 0.000768 -0.015250
vn  0.993157 -0.097738 0.063932
vn  -0.244129 0.960323 0.134832
vn  -0.000000 -0.280985 -0.959712
vn  -0.244129 0.960323 0.134832
vn  -0.192997 0.063918 -0.979115
vn  -0.000000 -0.280985 -0.959712
# 65 vertex normals

g (null)
usemtl stone-01
s 1
f 21/30/21 15/18/15 23/32/23 22/31/22
s 0
f 26/35/26 4/6/4 25/33/25 24/34/24
f 2/4/2 30/37/30 28/38/28 6/8/6
f 33/48/33 29/53/29 27/52/27 26/42/26
f 29/44/29 30/45/30 2/16/2 27/43/27
f 30/45/30 36/51/36 17/40/17 7/39/7
f 28/24/28 30/25/30 7/11/7 18/17/18
f 32/47/32 34/49/34 33/48/33 31/46/31
f 31/46/31 33/48/33 26/42/26 24/41/24
f 34/49/34 35/54/35 29/53/29 33/48/33
f 35/50/35 36/51/36 30/45/30 29/44/29
s 1
f 56/88/56 15/74/15 54/86/54 55/87/55
s 0
f 59/91/59 57/90/57 58/89/58 41/62/41
f 39/60/39 43/64/43 61/94/61 63/93/63
f 65/104/65 59/98/59 60/108/60 62/109/62
f 62/100/62 60/99/60 39/72/39 63/101/63
f 63/101/63 44/95/44 17/96/17 36/107/36
f 61/80/61 52/73/52 44/67/44 63/81/63
f 32/103/32 64/102/64 65/104/65 34/105/34
f 64/102/64 57/97/57 59/98/59 65/104/65
f 34/105/34 65/104/65 62/109/62 35/110/35
f 35/106/35 62/100/62 63/101/63 36/107/36
f 64/102/64 37/2/37 58/89/58 57/90/57
f 24/41/24 37/2/37 32/103/32 31/46/31
f 37/2/37 24/41/24 25/33/25 1/3/1
f 5/113/5 6/114/6 28/116/28 18/115/18
f 61/120/61 43/118/43 42/117/42 52/119/52
s 1
f 1/3/1 50/1/50 37/2/37
f 1/3/1 3/5/3 50/1/50
f 4/6/4 3/5/3 1/3/1
f 9/7/9 2/55/2 6/56/6
f 10/9/10 2/55/2 9/7/9
f 10/9/10 4/6/4 2/55/2
f 3/5/3 4/6/4 10/9/10
f 6/56/6 5/10/5 20/29/20
f 7/13/7 20/29/20 5/10/5
f 17/14/17 16/12/16 7/13/7
f 8/15/8 9/7/9 6/56/6
f 10/9/10 9/7/9 8/15/8
f 21/30/21 10/9/10 8/15/8
f 11/19/11 10/9/10 22/31/22
f 13/21/13 11/19/11 12/20/12
f 14/22/14 13/21/13 12/20/12
f 50/23/50 13/21/13 14/22/14
f 13/21/13 10/9/10 11/19/11
f 3/5/3 10/9/10 13/21/13
f 50/23/50 3/5/3 13/21/13
f 8/15/8 6/56/6 20/29/20
f 15/18/15 8/15/8 16/12/16
f 5/10/5 18/27/18 7/13/7
f 15/18/15 16/12/16 19/28/19
f 19/28/19 16/12/16 17/26/17
f 7/13/7 16/12/16 20/29/20
f 20/29/20 16/12/16 8/15/8
f 8/15/8 15/18/15 21/30/21
f 11/19/11 22/31/22 23/32/23
f 10/9/10 21/30/21 22/31/22
f 15/18/15 12/20/12 23/32/23
f 23/32/23 12/20/12 11/19/11
s 0
f 4/6/4 1/3/1 25/33/25
f 2/55/2 4/6/4 27/36/27
f 4/6/4 26/35/26 27/36/27
s 1
f 38/59/38 37/58/37 50/57/50
f 38/59/38 50/57/50 40/61/40
f 41/62/41 38/59/38 40/61/40
f 46/63/46 43/112/43 39/111/39
f 47/65/47 46/63/46 39/111/39
f 47/65/47 39/111/39 41/62/41
f 40/61/40 47/65/47 41/62/41
f 43/112/43 53/85/53 42/66/42
f 44/69/44 42/66/42 53/85/53
f 17/70/17 44/69/44 51/68/51
f 45/71/45 43/112/43 46/63/46
f 47/65/47 45/71/45 46/63/46
f 54/86/54 45/71/45 47/65/47
f 48/75/48 55/87/55 47/65/47
f 49/77/49 12/76/12 48/75/48
f 14/78/14 12/76/12 49/77/49
f 50/79/50 14/78/14 49/77/49
f 49/77/49 48/75/48 47/65/47
f 40/61/40 49/77/49 47/65/47
f 50/79/50 49/77/49 40/61/40
f 45/71/45 53/85/53 43/112/43
f 15/74/15 51/68/51 45/71/45
f 42/66/42 44/69/44 52/83/52
f 15/74/15 19/84/19 51/68/51
f 19/84/19 17/82/17 51/68/51
f 44/69/44 53/85/53 51/68/51
f 53/85/53 45/71/45 51/68/51
f 45/71/45 54/86/54 15/74/15
f 48/75/48 56/88/56 55/87/55
f 47/65/47 55/87/55 54/86/54
f 15/74/15 56/88/56 12/76/12
f 56/88/56 48/75/48 12/76/12
s 0
f 41/62/41 58/89/58 38/59/38
f 39/111/39 60/92/60 41/62/41
f 41/62/41 60/92/60 59/91/59
f 64/102/64 32/103/32 37/2/37
f 58/89/58 37/2/37 38/59/38
# 99 faces

g
