# Max2Obj Version 4.0 Mar 10th, 2001
#
mtllib ./rock-pillar_07.mtl
g
# object (null) to come ...
#
v  -2.269372 1.495612 -0.651430
v  -1.014711 1.727136 -0.845460
v  -0.561349 2.932837 -0.766861
v  -1.362650 3.907012 -0.494231
v  -2.617311 3.675487 -0.300201
v  -3.070672 2.469787 -0.378800
v  -1.301748 1.800477 2.718277
v  -0.861491 1.888098 2.615426
v  -0.699708 2.318354 2.643474
v  -0.978182 2.660990 2.774373
v  -1.418438 2.573369 2.877224
v  -1.580221 2.143112 2.849176
v  -1.060110 1.925880 0.957319
v  -0.803150 2.609258 1.001868
v  -1.257318 3.161410 1.156391
v  -1.968446 3.030184 1.266366
v  -2.225407 2.346807 1.221817
v  -1.771239 1.794655 1.067293
v  -0.784084 1.537603 4.332561
v  -0.386325 1.624167 4.207168
v  -0.236689 2.022119 4.233110
v  -0.484813 2.333506 4.384446
v  -0.882572 2.246941 4.509840
v  -1.032208 1.848989 4.483897
v  -0.372486 1.388899 6.231294
v  -0.158446 1.958131 6.268403
v  0.293223 2.138294 5.901317
v  0.316813 1.179991 5.460015
v  1.414696 0.751416 7.206721
v  1.043102 0.651287 7.389264
v  -0.134857 0.999828 5.827101
v  0.530853 1.749224 5.497124
v  1.564332 1.149368 7.232664
v  1.342374 1.447190 7.441149
v  0.970780 1.347061 7.623690
v  0.821144 0.949110 7.597748
v  2.781231 -0.019686 7.886129
v  2.472201 -0.388029 8.555183
v  3.070669 0.750065 7.936309
v  3.051077 1.151474 8.655543
v  2.742046 0.783131 9.324596
v  2.452608 0.013379 9.274418
v  0.301159 1.313049 5.730614
v  0.050083 1.212899 5.934670
v  0.420140 1.629476 5.751242
v  0.288046 1.845754 5.975927
v  0.036970 1.745604 6.179984
v  -0.082012 1.429177 6.159356
v  -2.269373 -1.495612 -0.651430
v  -1.014711 -1.727136 -0.845460
v  -0.561349 -2.932836 -0.766861
v  -1.362650 -3.907012 -0.494231
v  -2.617311 -3.675488 -0.300201
v  -3.070673 -2.469788 -0.378800
v  -1.301747 -1.800476 2.718277
v  -0.861491 -1.888097 2.615425
v  -0.699708 -2.318354 2.643474
v  -0.978181 -2.660990 2.774373
v  -1.418437 -2.573369 2.877224
v  -1.580220 -2.143112 2.849176
v  -1.060110 -1.925880 0.957319
v  -0.803150 -2.609258 1.001868
v  -1.257318 -3.161410 1.156391
v  -1.968446 -3.030184 1.266366
v  -2.225406 -2.346807 1.221817
v  -1.771239 -1.794654 1.067293
v  -0.784084 -1.537602 4.332561
v  -0.386325 -1.624167 4.207168
v  -0.236689 -2.022119 4.233110
v  -0.484812 -2.333505 4.384446
v  -0.882571 -2.246940 4.509840
v  -1.032207 -1.848989 4.483897
v  -0.372486 -1.388898 6.231294
v  -0.158445 -1.958130 6.268402
v  0.293224 -2.138293 5.901316
v  0.316814 -1.179990 5.460015
v  1.414697 -0.751415 7.206721
v  1.043103 -0.651286 7.389263
v  -0.134856 -0.999828 5.827100
v  0.530854 -1.749223 5.497123
v  1.564333 -1.149366 7.232664
v  1.342375 -1.447189 7.441147
v  0.970781 -1.347061 7.623689
v  0.821145 -0.949109 7.597747
v  2.781232 0.019687 7.886128
v  2.472202 0.388030 8.555182
v  3.070670 -0.750064 7.936307
v  3.051078 -1.151472 8.655542
v  2.742047 -0.783129 9.324596
v  2.452609 -0.013378 9.274416
v  0.301160 -1.313048 5.730613
v  0.050084 -1.212898 5.934670
v  0.420141 -1.629475 5.751241
v  0.288047 -1.845753 5.975926
v  0.036971 -1.745604 6.179983
v  -0.082011 -1.429176 6.159356
# 96 vertices

vt  0.718609 0.726619 1.000000
vt  0.615004 0.726619 1.000000
vt  0.720335 0.726619 1.000000
vt  0.825245 0.726619 1.000000
vt  0.929292 0.726619 1.000000
vt  0.823519 0.726619 1.000000
vt  0.720720 0.727110 1.000000
vt  0.644584 0.727126 1.000000
vt  0.720944 0.727112 1.000000
vt  0.823173 0.727110 1.000000
vt  0.899481 0.727126 1.000000
vt  0.822950 0.727112 1.000000
vt  0.721732 0.726659 1.000000
vt  0.654270 0.726658 1.000000
vt  0.723066 0.726658 1.000000
vt  0.822186 0.726659 1.000000
vt  0.889822 0.726658 1.000000
vt  0.820851 0.726658 1.000000
vt  0.637640 0.575157 1.000000
vt  0.720625 0.575750 1.000000
vt  0.825489 0.575749 1.000000
vt  0.906530 0.575150 1.000000
vt  0.823272 0.575749 1.000000
vt  0.718410 0.575748 1.000000
vt  0.722718 0.576704 1.000000
vt  0.656587 0.577640 1.000000
vt  0.723006 0.576837 1.000000
vt  0.821194 0.576705 1.000000
vt  0.887474 0.577642 1.000000
vt  0.820907 0.576836 1.000000
vt  0.652335 0.726563 1.000000
vt  0.656587 0.577355 1.000000
vt  0.722718 0.576704 1.000000
vt  0.722148 0.726565 1.000000
vt  0.721781 0.726563 1.000000
vt  0.723006 0.576797 1.000000
vt  0.821766 0.726565 1.000000
vt  0.821194 0.576704 1.000000
vt  0.891763 0.726562 1.000000
vt  0.887474 0.577356 1.000000
vt  0.822135 0.726563 1.000000
vt  0.820907 0.576796 1.000000
vt  0.631688 0.681365 1.000000
vt  0.717385 0.681355 1.000000
vt  0.719493 0.681355 1.000000
vt  0.826494 0.681355 1.000000
vt  0.912404 0.681365 1.000000
vt  0.824386 0.681355 1.000000
vt  0.659602 0.727318 1.000000
vt  0.724248 0.727318 1.000000
vt  0.722817 0.727316 1.000000
vt  0.819672 0.727318 1.000000
vt  0.884467 0.727318 1.000000
vt  0.821106 0.727316 1.000000
vt  0.718609 0.726619 1.000000
vt  0.615004 0.726619 1.000000
vt  0.720335 0.726619 1.000000
vt  0.825245 0.726619 1.000000
vt  0.929292 0.726619 1.000000
vt  0.823519 0.726619 1.000000
vt  0.720720 0.727110 1.000000
vt  0.644584 0.727126 1.000000
vt  0.720944 0.727112 1.000000
vt  0.823173 0.727110 1.000000
vt  0.899481 0.727126 1.000000
vt  0.822950 0.727112 1.000000
vt  0.721732 0.726659 1.000000
vt  0.654270 0.726658 1.000000
vt  0.723066 0.726658 1.000000
vt  0.822186 0.726659 1.000000
vt  0.889822 0.726658 1.000000
vt  0.820851 0.726658 1.000000
vt  0.637640 0.575157 1.000000
vt  0.720625 0.575750 1.000000
vt  0.825489 0.575749 1.000000
vt  0.906530 0.575150 1.000000
vt  0.823272 0.575749 1.000000
vt  0.718410 0.575748 1.000000
vt  0.722718 0.576704 1.000000
vt  0.656587 0.577640 1.000000
vt  0.723006 0.576837 1.000000
vt  0.821194 0.576705 1.000000
vt  0.887474 0.577642 1.000000
vt  0.820907 0.576836 1.000000
vt  0.652335 0.726563 1.000000
vt  0.656587 0.577355 1.000000
vt  0.722718 0.576704 1.000000
vt  0.722148 0.726565 1.000000
vt  0.721781 0.726563 1.000000
vt  0.723006 0.576797 1.000000
vt  0.821766 0.726565 1.000000
vt  0.821194 0.576704 1.000000
vt  0.891763 0.726562 1.000000
vt  0.887474 0.577356 1.000000
vt  0.822135 0.726563 1.000000
vt  0.820907 0.576796 1.000000
vt  0.631688 0.681365 1.000000
vt  0.717385 0.681355 1.000000
vt  0.719493 0.681355 1.000000
vt  0.826494 0.681355 1.000000
vt  0.912404 0.681365 1.000000
vt  0.824386 0.681355 1.000000
vt  0.659602 0.727318 1.000000
vt  0.724248 0.727318 1.000000
vt  0.722817 0.727316 1.000000
vt  0.819672 0.727318 1.000000
vt  0.884467 0.727318 1.000000
vt  0.821106 0.727316 1.000000
vt  0.467638 0.804663 0.433643
vt  0.442310 0.854415 0.372752
vt  0.520570 0.803258 0.560891
vt  0.548173 0.851605 0.627248
vt  0.522844 0.901357 0.566357
vt  0.469912 0.902762 0.439109
vt  0.470346 0.804663 0.433643
vt  0.495675 0.854415 0.372752
vt  0.417414 0.803258 0.560891
vt  0.389812 0.851605 0.627248
vt  0.415141 0.901357 0.566357
vt  0.468072 0.902762 0.439109
# 120 texture vertices

vn  -0.280338 -0.928678 0.242832
vn  0.644570 -0.758004 0.099797
vn  0.978778 0.130811 0.157739
vn  0.388078 0.848952 0.358715
vn  -0.536831 0.678277 0.501750
vn  -0.871038 -0.210538 0.443808
vn  -0.339466 -0.940149 0.029697
vn  0.619449 -0.760054 -0.196473
vn  0.974166 0.181598 -0.134246
vn  0.360612 0.920123 0.152750
vn  -0.584141 0.721531 0.371716
vn  -0.929694 -0.197566 0.310863
vn  0.641531 -0.767029 0.010228
vn  0.986336 0.149469 0.069278
vn  0.377070 0.878283 0.294001
vn  -0.557462 0.694057 0.455545
vn  -0.894654 -0.203902 0.397516
vn  -0.304790 -0.935839 0.176941
vn  -0.386959 -0.917441 -0.092550
vn  0.549567 -0.722996 -0.418633
vn  0.906853 0.226597 -0.355347
vn  0.314993 0.948429 0.035514
vn  -0.593651 0.723806 0.351688
vn  -0.938870 -0.186814 0.289178
vn  -0.506546 -0.345072 0.790150
vn  -0.188920 0.502616 0.843615
vn  0.545807 0.748932 0.375759
vn  0.665971 -0.724010 -0.179699
vn  0.288397 -0.584698 -0.758258
vn  -0.451528 -0.884438 -0.117867
vn  -0.091828 -0.959548 0.266150
vn  0.984316 0.124387 -0.125103
vn  0.645692 0.341483 -0.682987
vn  0.259057 0.965675 0.019024
vn  -0.475156 0.652564 0.590243
vn  -0.815336 -0.236655 0.528414
vn  0.103945 -0.569328 -0.815513
vn  -0.570927 -0.820924 -0.011247
vn  0.472903 0.463593 -0.749296
vn  0.089142 0.991094 0.098922
vn  -0.474202 0.569006 0.671837
vn  -0.754467 -0.189428 0.628408
vn  0.741211 -0.668648 -0.059301
vn  0.144150 -0.927752 0.344234
vn  0.999714 0.018795 -0.014774
vn  0.702745 0.558782 0.440355
vn  0.047383 0.384872 0.921753
vn  -0.255500 -0.423610 0.869065
vn  -0.695914 2.305358 0.602808
vn  1.600087 1.881675 0.247736
vn  2.429728 -0.324727 0.391571
vn  0.963367 -2.107445 0.890478
vn  -1.332633 -1.683761 1.245549
vn  -2.162274 0.522641 1.101714
vn  -0.339466 0.940149 0.029697
vn  0.619449 0.760054 -0.196473
vn  0.974166 -0.181598 -0.134246
vn  0.360613 -0.920123 0.152750
vn  -0.584140 -0.721531 0.371716
vn  -0.929694 0.197566 0.310863
vn  0.641531 0.767029 0.010228
vn  0.986337 -0.149468 0.069278
vn  0.377070 -0.878283 0.294001
vn  -0.557462 -0.694057 0.455545
vn  -0.894654 0.203902 0.397516
vn  -0.304790 0.935839 0.176942
vn  -0.386959 0.917441 -0.092550
vn  0.549567 0.722996 -0.418633
vn  0.906853 -0.226597 -0.355347
vn  0.314993 -0.948429 0.035514
vn  -0.593650 -0.723806 0.351688
vn  -0.938870 0.186814 0.289178
vn  -0.506545 0.345072 0.790150
vn  -0.188920 -0.502616 0.843615
vn  0.545807 -0.748932 0.375759
vn  0.665971 0.724010 -0.179699
vn  0.288397 0.584697 -0.758259
vn  -0.451528 0.884438 -0.117867
vn  -0.091829 0.959548 0.266150
vn  0.984316 -0.124387 -0.125103
vn  0.645692 -0.341482 -0.682988
vn  0.259058 -0.965674 0.019023
vn  -0.475156 -0.652564 0.590243
vn  -0.815336 0.236655 0.528414
vn  0.294057 1.610612 -2.307061
vn  -1.453587 2.090082 -0.028634
vn  1.329511 -1.303337 -2.106556
vn  0.225375 -2.505731 0.250098
vn  -1.123169 -1.347717 1.591276
vn  -1.790277 0.449494 1.491151
vn  0.741211 0.668648 -0.059301
vn  0.144150 0.927752 0.344233
vn  0.999714 -0.018795 -0.014774
vn  0.702744 -0.558782 0.440355
vn  0.047384 -0.384873 0.921752
vn  -0.255499 0.423609 0.869066
# 96 vertex normals

g (null)
usemtl gate
s 8
f 18/24/18 1/1/1 2/2/2 13/19/13
f 13/19/13 2/2/2 3/3/3 14/20/14
f 14/20/14 3/3/3 4/4/4 15/21/15
f 15/21/15 4/4/4 5/5/5 16/22/16
f 16/22/16 5/5/5 6/6/6 17/23/17
f 17/23/17 6/6/6 1/1/1 18/24/18
f 7/13/7 8/14/8 20/26/20 19/25/19
f 8/14/8 9/15/9 21/27/21 20/26/20
f 9/15/9 10/16/10 22/28/22 21/27/21
f 10/16/10 11/17/11 23/29/23 22/28/22
f 11/17/11 12/18/12 24/30/24 23/29/23
f 12/18/12 7/13/7 19/25/19 24/30/24
f 18/24/18 13/19/13 8/14/8 7/13/7
f 13/19/13 14/20/14 9/15/9 8/14/8
f 14/20/14 15/21/15 10/16/10 9/15/9
f 15/21/15 16/22/16 11/17/11 10/16/10
f 16/22/16 17/23/17 12/18/12 11/17/11
f 17/23/17 18/24/18 7/13/7 12/18/12
f 19/25/19 20/26/20 28/8/28 31/7/31
f 20/26/20 21/27/21 32/9/32 28/8/28
f 21/27/21 22/28/22 27/10/27 32/9/32
f 22/28/22 23/29/23 26/11/26 27/10/27
f 23/29/23 24/30/24 25/12/25 26/11/26
f 24/30/24 19/25/19 31/7/31 25/12/25
f 31/34/31 28/31/28 43/49/43 44/50/44
f 28/31/28 32/35/32 45/51/45 43/49/43
f 32/35/32 27/37/27 46/52/46 45/51/45
f 27/37/27 26/39/26 47/53/47 46/52/46
f 26/39/26 25/41/25 48/54/48 47/53/47
f 25/41/25 31/34/31 44/50/44 48/54/48
f 30/33/30 29/32/29 37/43/37 38/44/38
f 29/32/29 33/36/33 39/45/39 37/43/37
f 33/36/33 34/38/34 40/46/40 39/45/39
f 34/38/34 35/40/35 41/47/41 40/46/40
f 35/40/35 36/42/36 42/48/42 41/47/41
f 36/42/36 30/33/30 38/44/38 42/48/42
f 44/50/44 43/49/43 29/32/29 30/33/30
f 43/49/43 45/51/45 33/36/33 29/32/29
f 45/51/45 46/52/46 34/38/34 33/36/33
f 46/52/46 47/53/47 35/40/35 34/38/34
f 47/53/47 48/54/48 36/42/36 35/40/35
f 48/54/48 44/50/44 30/33/30 36/42/36
f 66/78/66 61/73/61 50/56/50 49/55/49
f 61/73/61 62/74/62 51/57/51 50/56/50
f 62/74/62 63/75/63 52/58/52 51/57/51
f 63/75/63 64/76/64 53/59/53 52/58/52
f 64/76/64 65/77/65 54/60/54 53/59/53
f 65/77/65 66/78/66 49/55/49 54/60/54
f 55/67/55 67/79/67 68/80/68 56/68/56
f 56/68/56 68/80/68 69/81/69 57/69/57
f 57/69/57 69/81/69 70/82/70 58/70/58
f 58/70/58 70/82/70 71/83/71 59/71/59
f 59/71/59 71/83/71 72/84/72 60/72/60
f 60/72/60 72/84/72 67/79/67 55/67/55
f 66/78/66 55/67/55 56/68/56 61/73/61
f 61/73/61 56/68/56 57/69/57 62/74/62
f 62/74/62 57/69/57 58/70/58 63/75/63
f 63/75/63 58/70/58 59/71/59 64/76/64
f 64/76/64 59/71/59 60/72/60 65/77/65
f 65/77/65 60/72/60 55/67/55 66/78/66
f 67/79/67 79/61/79 76/62/76 68/80/68
f 68/80/68 76/62/76 80/63/80 69/81/69
f 69/81/69 80/63/80 75/64/75 70/82/70
f 70/82/70 75/64/75 74/65/74 71/83/71
f 71/83/71 74/65/74 73/66/73 72/84/72
f 72/84/72 73/66/73 79/61/79 67/79/67
f 79/88/79 92/104/92 91/103/91 76/85/76
f 76/85/76 91/103/91 93/105/93 80/89/80
f 80/89/80 93/105/93 94/106/94 75/91/75
f 75/91/75 94/106/94 95/107/95 74/93/74
f 74/93/74 95/107/95 96/108/96 73/95/73
f 73/95/73 96/108/96 92/104/92 79/88/79
f 78/87/78 86/98/86 85/97/85 77/86/77
f 77/86/77 85/97/85 87/99/87 81/90/81
f 81/90/81 87/99/87 88/100/88 82/92/82
f 82/92/82 88/100/88 89/101/89 83/94/83
f 83/94/83 89/101/89 90/102/90 84/96/84
f 84/96/84 90/102/90 86/98/86 78/87/78
f 92/104/92 78/87/78 77/86/77 91/103/91
f 91/103/91 77/86/77 81/90/81 93/105/93
f 93/105/93 81/90/81 82/92/82 94/106/94
f 94/106/94 82/92/82 83/94/83 95/107/95
f 95/107/95 83/94/83 84/96/84 96/108/96
f 96/108/96 84/96/84 78/87/78 92/104/92
s 1
f 50/56/50 52/58/52 54/60/54 49/55/49
f 86/116/86 89/119/89 87/117/87 85/115/85
s 0
f 6/6/6 4/4/4 2/2/2 1/1/1
f 39/111/39 41/113/41 38/110/38 37/109/37
s 1
f 50/56/50 51/57/51 52/58/52
f 54/60/54 52/58/52 53/59/53
f 86/116/86 90/120/90 89/119/89
f 87/117/87 89/119/89 88/118/88
s 0
f 6/6/6 5/5/5 4/4/4
f 2/2/2 4/4/4 3/3/3
f 39/111/39 40/112/40 41/113/41
f 38/110/38 41/113/41 42/114/42
# 96 faces

g
