# Max2Obj Version 4.0 Mar 10th, 2001
#
mtllib ./rock-pillar_04.mtl
g
# object (null) to come ...
#
v  -1.990600 1.284334 -0.744628
v  -1.665518 0.802788 0.974095
v  -1.076475 0.383322 0.864121
v  -0.951337 0.544257 -0.938658
v  -1.132398 -0.344626 0.908670
v  -1.050003 -0.740076 -0.860059
v  -1.777363 -0.653105 1.063193
v  -2.187932 -1.284336 -0.587429
v  -2.366406 -0.233638 1.173168
v  -3.227195 -0.544260 -0.393399
v  -2.310484 0.494307 1.128619
v  -3.128529 0.740073 -0.471998
v  -0.880498 0.333624 2.522227
v  -1.242475 0.599096 2.625078
v  -0.662217 0.618567 4.239363
v  -0.338309 0.372012 4.113970
v  -0.915707 -0.124693 2.550276
v  -0.370874 -0.051893 4.139912
v  -1.312893 -0.317539 2.681175
v  -0.727348 -0.229244 4.291248
v  -1.674871 -0.052068 2.784026
v  -1.051256 0.017311 4.416642
v  -1.639661 0.406250 2.755978
v  -1.018691 0.441216 4.390699
v  0.153456 0.831581 5.733902
v  0.486668 0.477413 5.366817
v  0.440087 -0.128944 5.403925
v  0.060293 -0.381134 5.808118
v  -0.272919 -0.026967 6.175204
v  -0.226338 0.579389 6.138096
v  0.231021 0.560314 5.841472
v  0.416248 0.363439 5.637415
v  0.390354 0.026374 5.658043
v  0.179233 -0.113814 5.882728
v  -0.005994 0.083061 6.086785
v  0.019900 0.420125 6.066157
v  1.662812 0.401849 7.113523
v  1.368350 0.649640 7.296064
v  3.102787 0.987617 8.461984
v  3.227195 0.523183 7.792930
v  1.630247 -0.022055 7.139465
v  3.164205 -0.296771 7.843109
v  1.303219 -0.198171 7.347950
v  2.976805 -0.652290 8.562344
v  1.008756 0.049618 7.530491
v  2.852397 -0.187856 9.231398
v  1.041322 0.473523 7.504549
v  2.915388 0.632097 9.181219
# 48 vertices

vt  0.494285 0.348960 1.000000
vt  0.494086 0.516117 1.000000
vt  0.413316 0.515527 1.000000
vt  0.390680 0.348960 1.000000
vt  0.496301 0.516119 1.000000
vt  0.496012 0.348960 1.000000
vt  0.601165 0.516118 1.000000
vt  0.600922 0.348960 1.000000
vt  0.682206 0.515520 1.000000
vt  0.704968 0.348960 1.000000
vt  0.598949 0.516118 1.000000
vt  0.599195 0.348960 1.000000
vt  0.429946 0.669363 1.000000
vt  0.497408 0.669396 1.000000
vt  0.498395 0.843620 1.000000
vt  0.432263 0.844557 1.000000
vt  0.498743 0.669360 1.000000
vt  0.498683 0.843754 1.000000
vt  0.597862 0.669396 1.000000
vt  0.596871 0.843621 1.000000
vt  0.665498 0.669359 1.000000
vt  0.663150 0.844559 1.000000
vt  0.596528 0.669360 1.000000
vt  0.596584 0.843753 1.000000
vt  0.496396 0.981840 1.000000
vt  0.420261 0.983518 1.000000
vt  0.496620 0.982079 1.000000
vt  0.598849 0.981842 1.000000
vt  0.675157 0.983524 1.000000
vt  0.598627 0.982077 1.000000
vt  0.428011 0.666936 1.000000
vt  0.497825 0.666987 1.000000
vt  0.499924 0.686143 1.000000
vt  0.435279 0.686145 1.000000
vt  0.497457 0.666952 1.000000
vt  0.498493 0.686101 1.000000
vt  0.597442 0.666987 1.000000
vt  0.595349 0.686143 1.000000
vt  0.667440 0.666932 1.000000
vt  0.660143 0.686140 1.000000
vt  0.597811 0.666951 1.000000
vt  0.596783 0.686101 1.000000
vt  0.432263 0.844557 1.000000
vt  0.498395 0.843620 1.000000
vt  0.493062 0.993419 1.000000
vt  0.407364 0.994962 1.000000
vt  0.498683 0.843754 1.000000
vt  0.495170 0.993430 1.000000
vt  0.596871 0.843621 1.000000
vt  0.602170 0.993420 1.000000
vt  0.663150 0.844559 1.000000
vt  0.688081 0.994967 1.000000
vt  0.596584 0.843753 1.000000
vt  0.600062 0.993428 1.000000
# 54 texture vertices

vn  0.343575 2.383469 0.602808
vn  0.119268 0.976968 0.176942
vn  0.905585 0.424042 0.010228
vn  2.245404 1.029151 0.247736
vn  0.830756 -0.552309 0.069279
vn  2.064846 -1.321149 0.391571
vn  -0.029437 -0.955352 0.294001
vn  -0.017537 -2.317131 0.890478
vn  -0.798553 -0.393436 0.455545
vn  -1.919363 -0.962811 1.245550
vn  -0.724659 0.562894 0.397516
vn  -1.738809 1.387489 1.101714
vn  0.882624 0.427052 -0.196473
vn  0.089663 0.995529 0.029697
vn  0.037024 0.995019 -0.092550
vn  0.803628 0.423000 -0.418633
vn  0.806148 -0.576284 -0.134246
vn  0.726124 -0.588619 -0.355347
vn  -0.062034 -0.986316 0.152749
vn  -0.115343 -0.992691 0.035514
vn  -0.834343 -0.407061 0.371716
vn  -0.843923 -0.405104 0.351688
vn  -0.759094 0.571962 0.310863
vn  -0.771954 0.566094 0.289178
vn  0.322297 0.908454 0.266150
vn  0.909555 0.374724 -0.179700
vn  0.839525 -0.528722 -0.125103
vn  0.178157 -0.909431 0.375759
vn  -0.383634 -0.375684 0.843615
vn  -0.313253 0.526816 0.790151
vn  0.522729 0.779908 0.344235
vn  0.954348 0.292752 -0.059302
vn  0.898106 -0.439532 -0.014774
vn  0.400751 -0.803422 0.440355
vn  -0.119710 -0.368839 0.921752
vn  -0.052536 0.491899 0.869066
vn  0.508480 0.408034 -0.758259
vn  -0.035444 0.992397 -0.117867
vn  -0.434091 2.508570 -0.028634
vn  0.947180 1.335435 -2.307062
vn  0.440880 -0.582368 -0.682988
vn  0.654131 -1.743100 -2.106557
vn  -0.173325 -0.984681 0.019023
vn  -0.854709 -2.366210 0.250098
vn  -0.706422 -0.390615 0.590243
vn  -1.587507 -0.746774 1.591276
vn  -0.638931 0.559058 0.528414
vn  -1.432577 1.163983 1.491151
# 48 vertex normals

g (null)
usemtl wall1
s 8
f 2/2/2 3/3/3 4/4/4 1/1/1
f 3/3/3 5/5/5 6/6/6 4/4/4
f 5/5/5 7/7/7 8/8/8 6/6/6
f 7/7/7 9/9/9 10/10/10 8/8/8
f 9/9/9 11/11/11 12/12/12 10/10/10
f 11/11/11 2/2/2 1/1/1 12/12/12
f 14/14/14 15/15/15 16/16/16 13/13/13
f 13/13/13 16/16/16 18/18/18 17/17/17
f 17/17/17 18/18/18 20/20/20 19/19/19
f 19/19/19 20/20/20 22/22/22 21/21/21
f 21/21/21 22/22/22 24/24/24 23/23/23
f 23/23/23 24/24/24 15/15/15 14/14/14
f 2/2/2 14/14/14 13/13/13 3/3/3
f 3/3/3 13/13/13 17/17/17 5/5/5
f 5/5/5 17/17/17 19/19/19 7/7/7
f 7/7/7 19/19/19 21/21/21 9/9/9
f 9/9/9 21/21/21 23/23/23 11/11/11
f 11/11/11 23/23/23 14/14/14 2/2/2
f 15/15/15 25/25/25 26/26/26 16/16/16
f 16/16/16 26/26/26 27/27/27 18/18/18
f 18/18/18 27/27/27 28/28/28 20/20/20
f 20/20/20 28/28/28 29/29/29 22/22/22
f 22/22/22 29/29/29 30/30/30 24/24/24
f 24/24/24 30/30/30 25/25/25 15/15/15
f 25/32/25 31/33/31 32/34/32 26/31/26
f 26/31/26 32/34/32 33/36/33 27/35/27
f 27/35/27 33/36/33 34/38/34 28/37/28
f 28/37/28 34/38/34 35/40/35 29/39/29
f 29/39/29 35/40/35 36/42/36 30/41/30
f 30/41/30 36/42/36 31/33/31 25/32/25
f 38/44/38 39/45/39 40/46/40 37/43/37
f 37/43/37 40/46/40 42/48/42 41/47/41
f 41/47/41 42/48/42 44/50/44 43/49/43
f 43/49/43 44/50/44 46/52/46 45/51/45
f 45/51/45 46/52/46 48/54/48 47/53/47
f 47/53/47 48/54/48 39/45/39 38/44/38
f 31/33/31 38/44/38 37/43/37 32/34/32
f 32/34/32 37/43/37 41/47/41 33/36/33
f 33/36/33 41/47/41 43/49/43 34/38/34
f 34/38/34 43/49/43 45/51/45 35/40/35
f 35/40/35 45/51/45 47/53/47 36/42/36
f 36/42/36 47/53/47 38/44/38 31/33/31
s 1
f 4/4/4 8/8/8 12/12/12 1/1/1
f 39/45/39 46/52/46 42/48/42 40/46/40
f 4/4/4 6/6/6 8/8/8
f 12/12/12 8/8/8 10/10/10
f 39/45/39 48/54/48 46/52/46
f 42/48/42 46/52/46 44/50/44
# 48 faces

g
