# Max2Obj Version 4.0 Mar 10th, 2001
#
mtllib ./rock-pillar_02.mtl
g
# object (null) to come ...
#
v  5.187170 -0.205323 -0.744620
v  4.087359 0.441358 -0.938650
v  4.073713 1.729405 -0.860051
v  5.159877 2.370770 -0.587421
v  6.259686 1.724088 -0.393391
v  6.273333 0.436042 -0.471990
v  4.382170 0.412104 2.625087
v  3.998432 0.645017 2.522235
v  3.993562 1.104659 2.550284
v  4.372430 1.331388 2.681183
v  4.756167 1.098475 2.784034
v  4.761037 0.638832 2.755986
v  4.197996 0.612589 0.864129
v  4.190260 1.342640 0.908678
v  4.805886 1.706159 1.063201
v  5.429247 1.339626 1.173176
v  5.436981 0.609576 1.128627
v  4.821356 0.246057 0.974103
v  3.805817 0.342134 4.239371
v  3.461653 0.559520 4.113978
v  3.457148 0.984651 4.139920
v  3.796809 1.192395 4.291256
v  4.140973 0.975009 4.416650
v  4.145477 0.549879 4.390707
v  3.368182 0.343173 6.138103
v  3.361739 0.951283 6.175213
v  2.998928 1.275061 5.808126
v  2.649001 0.382618 5.366826
v  1.372443 0.366423 6.846842
v  1.666957 0.159583 7.017546
v  3.011813 0.058841 5.733911
v  2.642559 0.990728 5.403934
v  1.368231 0.763983 6.871102
v  1.658533 0.954704 7.066067
v  1.953047 0.747865 7.236770
v  1.957259 0.350304 7.212509
v  -0.045096 -0.299982 7.625244
v  -0.045096 1.238007 7.689445
v  -0.045096 0.815485 8.008284
v  -0.045096 0.046490 7.976184
v  2.709220 0.502298 5.637424
v  2.910901 0.322315 5.841480
v  2.705639 0.840336 5.658051
v  2.903738 0.998392 5.882737
v  3.105419 0.818409 6.086794
v  3.109001 0.480371 6.066165
v  -5.277363 -0.212479 -0.744620
v  -4.177554 0.434202 -0.938650
v  -4.163906 1.722248 -0.860051
v  -5.250070 2.363614 -0.587421
v  -6.349880 1.716932 -0.393391
v  -6.363526 0.428886 -0.471990
v  -4.472363 0.404948 2.625086
v  -4.088625 0.637861 2.522235
v  -4.083755 1.097503 2.550283
v  -4.462623 1.324232 2.681183
v  -4.846360 1.091319 2.784034
v  -4.851230 0.631676 2.755986
v  -4.288188 0.605433 0.864129
v  -4.280454 1.335484 0.908678
v  -4.896080 1.699002 1.063201
v  -5.519440 1.332470 1.173176
v  -5.527174 0.602420 1.128627
v  -4.911549 0.238901 0.974103
v  -3.896010 0.334978 4.239371
v  -3.551846 0.552364 4.113977
v  -3.547341 0.977495 4.139920
v  -3.887002 1.185239 4.291256
v  -4.231166 0.967853 4.416649
v  -4.235670 0.542722 4.390707
v  -3.458375 0.336017 6.138103
v  -3.451931 0.944126 6.175212
v  -3.089120 1.267904 5.808126
v  -2.739194 0.375462 5.366825
v  -1.462636 0.359730 6.846842
v  -1.757149 0.152891 7.017545
v  -3.102005 0.051685 5.733910
v  -2.732751 0.983572 5.403933
v  -1.458423 0.757291 6.871102
v  -1.748725 0.948012 7.066065
v  -2.043239 0.741173 7.236769
v  -2.047451 0.343613 7.212508
v  -0.045096 0.122541 7.325211
v  -0.045096 0.891535 7.357309
v  -2.799413 0.495142 5.637423
v  -3.001094 0.315159 5.841480
v  -2.795831 0.833180 5.658051
v  -2.993931 0.991236 5.882736
v  -3.195611 0.811253 6.086793
v  -3.199193 0.473215 6.066165
v  3.599375 -1.520928 2.179530
v  2.397058 -1.083320 1.300490
v  3.678641 -0.478048 0.684237
v  4.271329 -1.765499 0.067985
v  2.989746 -2.370771 0.684238
v  3.069012 -1.327892 -0.811054
v  2.859050 -1.251471 2.177325
v  3.765266 -0.823480 1.741568
v  4.184360 -1.733845 1.305812
v  3.278144 -2.161837 1.741569
v  2.484027 -1.114974 0.062663
v  3.390244 -0.686983 -0.373093
v  3.809337 -1.597348 -0.808850
v  2.903121 -2.025340 -0.373093
v  2.915100 -0.514044 1.119994
v  4.240410 -0.996418 0.248482
v  3.753288 -2.334775 0.248482
v  2.427978 -1.852402 1.119994
v  3.299818 0.614679 2.253629
v  2.693050 0.988059 0.516402
v  3.790904 1.423580 1.027774
v  4.326926 0.315477 1.403611
v  3.229071 -0.120044 0.892239
v  3.720157 0.688857 -0.333617
v  2.783713 0.863336 1.561060
v  3.560013 1.171296 1.922655
v  3.939038 0.387748 2.188412
v  3.162737 0.079789 1.826817
v  3.080937 0.915787 -0.268399
v  3.857238 1.223747 0.093196
v  4.236262 0.440200 0.358953
v  3.459962 0.132240 -0.002642
v  3.130963 1.435315 0.694249
v  4.286288 0.959727 1.321601
v  3.889012 -0.131779 1.225764
v  2.733687 0.343808 0.598412
v  4.861258 -0.221402 1.621223
v  3.358989 0.325379 0.022542
v  5.408039 1.280867 0.022542
v  6.363526 -0.768183 0.022542
v  4.314477 -1.723671 0.022542
v  4.861258 -0.221402 -1.576139
v  3.798993 0.165231 1.152980
v  5.247890 0.840862 1.152980
v  5.923522 -0.608035 1.152981
v  4.474625 -1.283666 1.152981
v  3.798993 0.165231 -1.107897
v  5.247890 0.840862 -1.107897
v  5.923522 -0.608035 -1.107896
v  4.474625 -1.283666 -1.107896
v  4.185626 1.227495 0.022542
v  6.310155 0.454230 0.022542
v  5.536890 -1.670299 0.022542
v  3.412361 -0.897034 0.022542
# 144 vertices

vt  0.494285 0.348960 1.000000
vt  0.390680 0.348960 1.000000
vt  0.496012 0.348960 1.000000
vt  0.600922 0.348960 1.000000
vt  0.704968 0.348960 1.000000
vt  0.599195 0.348960 1.000000
vt  0.496396 0.981840 1.000000
vt  0.420261 0.983518 1.000000
vt  0.496620 0.982079 1.000000
vt  0.598849 0.981842 1.000000
vt  0.675157 0.983524 1.000000
vt  0.598627 0.982077 1.000000
vt  0.497408 0.669396 1.000000
vt  0.429946 0.669363 1.000000
vt  0.498743 0.669360 1.000000
vt  0.597862 0.669396 1.000000
vt  0.665498 0.669359 1.000000
vt  0.596528 0.669360 1.000000
vt  0.413316 0.515527 1.000000
vt  0.496301 0.516119 1.000000
vt  0.601165 0.516118 1.000000
vt  0.682206 0.515520 1.000000
vt  0.598949 0.516118 1.000000
vt  0.494086 0.516117 1.000000
vt  0.498395 0.843620 1.000000
vt  0.432263 0.844557 1.000000
vt  0.498683 0.843754 1.000000
vt  0.596871 0.843621 1.000000
vt  0.663150 0.844559 1.000000
vt  0.596584 0.843753 1.000000
vt  0.428011 0.666936 1.000000
vt  0.432263 0.844557 1.000000
vt  0.498395 0.843620 1.000000
vt  0.497825 0.666987 1.000000
vt  0.497457 0.666952 1.000000
vt  0.498683 0.843754 1.000000
vt  0.597442 0.666987 1.000000
vt  0.596871 0.843621 1.000000
vt  0.667440 0.666932 1.000000
vt  0.663150 0.844559 1.000000
vt  0.597811 0.666951 1.000000
vt  0.596584 0.843753 1.000000
vt  0.407364 0.994962 1.000000
vt  0.493062 0.993419 1.000000
vt  0.495170 0.993430 1.000000
vt  0.602170 0.993420 1.000000
vt  0.688081 0.994967 1.000000
vt  0.600062 0.993428 1.000000
vt  0.435279 0.686145 1.000000
vt  0.499924 0.686143 1.000000
vt  0.498493 0.686101 1.000000
vt  0.595349 0.686143 1.000000
vt  0.660143 0.686140 1.000000
vt  0.596783 0.686101 1.000000
vt  0.494285 0.348960 1.000000
vt  0.390680 0.348960 1.000000
vt  0.496012 0.348960 1.000000
vt  0.600922 0.348960 1.000000
vt  0.704968 0.348960 1.000000
vt  0.599195 0.348960 1.000000
vt  0.496396 0.981840 1.000000
vt  0.420261 0.983518 1.000000
vt  0.496620 0.982079 1.000000
vt  0.598849 0.981842 1.000000
vt  0.675157 0.983524 1.000000
vt  0.598627 0.982077 1.000000
vt  0.497408 0.669396 1.000000
vt  0.429946 0.669363 1.000000
vt  0.498743 0.669360 1.000000
vt  0.597862 0.669396 1.000000
vt  0.665498 0.669359 1.000000
vt  0.596528 0.669360 1.000000
vt  0.413316 0.515527 1.000000
vt  0.496301 0.516119 1.000000
vt  0.601165 0.516118 1.000000
vt  0.682206 0.515520 1.000000
vt  0.598949 0.516118 1.000000
vt  0.494086 0.516117 1.000000
vt  0.498395 0.843620 1.000000
vt  0.432263 0.844557 1.000000
vt  0.498683 0.843754 1.000000
vt  0.596871 0.843621 1.000000
vt  0.663150 0.844559 1.000000
vt  0.596584 0.843753 1.000000
vt  0.428011 0.666936 1.000000
vt  0.432263 0.844557 1.000000
vt  0.498395 0.843620 1.000000
vt  0.497825 0.666987 1.000000
vt  0.497457 0.666952 1.000000
vt  0.498683 0.843754 1.000000
vt  0.597442 0.666987 1.000000
vt  0.596871 0.843621 1.000000
vt  0.667440 0.666932 1.000000
vt  0.663150 0.844559 1.000000
vt  0.597811 0.666951 1.000000
vt  0.596584 0.843753 1.000000
vt  0.407364 0.994962 1.000000
vt  0.493062 0.993419 1.000000
vt  0.495170 0.993430 1.000000
vt  0.602170 0.993420 1.000000
vt  0.688081 0.994967 1.000000
vt  0.600062 0.993428 1.000000
vt  0.435279 0.686145 1.000000
vt  0.499924 0.686143 1.000000
vt  0.498493 0.686101 1.000000
vt  0.595349 0.686143 1.000000
vt  0.660143 0.686140 1.000000
vt  0.596783 0.686101 1.000000
vt  0.802197 0.666229 0.000000
vt  0.975565 0.755214 0.000000
vt  0.887104 0.672532 0.000000
vt  0.710080 0.904678 0.000000
vt  0.827860 0.832432 0.000000
vt  0.890474 1.009524 0.000000
vt  0.835736 0.826254 0.000000
vt  0.982096 0.905872 0.000000
vt  0.720848 0.756982 0.000000
vt  0.819517 0.741746 0.000000
vt  0.811397 0.749107 0.000000
vt  0.797856 0.987661 0.000000
vt  0.860861 0.904816 0.000000
vt  0.865442 0.930857 0.000000
vt  0.771610 0.873028 0.000000
vt  0.888929 0.792470 0.000000
vt  0.782327 0.859286 0.000000
vt  0.901329 0.792723 0.000000
vt  0.108910 0.677319 0.000000
vt  0.296080 0.764200 0.000000
vt  0.215165 0.688135 0.000000
vt  0.019233 0.872020 0.000000
vt  0.142554 0.820409 0.000000
vt  0.213423 0.969915 0.000000
vt  0.150429 0.814231 0.000000
vt  0.298796 0.874219 0.000000
vt  0.031578 0.763114 0.000000
vt  0.131327 0.752494 0.000000
vt  0.127846 0.758162 0.000000
vt  0.097966 0.947895 0.000000
vt  0.173012 0.870300 0.000000
vt  0.179844 0.894352 0.000000
vt  0.085560 0.849857 0.000000
vt  0.206498 0.791648 0.000000
vt  0.094360 0.836814 0.000000
vt  0.217127 0.793078 0.000000
vt  0.461699 0.677319 0.000000
vt  0.648868 0.764200 0.000000
vt  0.567954 0.688135 0.000000
vt  0.372022 0.872020 0.000000
vt  0.495343 0.820409 0.000000
vt  0.566212 0.969915 0.000000
vt  0.503218 0.814231 0.000000
vt  0.651585 0.874219 0.000000
vt  0.384367 0.763114 0.000000
vt  0.484116 0.752494 0.000000
vt  0.480635 0.758162 0.000000
vt  0.450755 0.947895 0.000000
vt  0.525801 0.870300 0.000000
vt  0.532633 0.894352 0.000000
vt  0.438349 0.849857 0.000000
vt  0.559287 0.791648 0.000000
vt  0.447149 0.836814 0.000000
vt  0.569916 0.793078 0.000000
# 162 texture vertices

vn  -0.054195 -0.968553 0.242832
vn  -0.864951 -0.491834 0.099797
vn  -0.875011 0.457684 0.157739
vn  -0.074315 0.930484 0.358715
vn  0.736440 0.453765 0.501750
vn  0.746500 -0.495754 0.443808
vn  -0.002556 -0.999556 0.029697
vn  -0.842045 -0.502353 -0.196473
vn  -0.853307 0.503831 -0.134246
vn  -0.024164 0.987969 0.152749
vn  0.795691 0.478229 0.371716
vn  0.806055 -0.503626 0.310863
vn  -0.865181 -0.501355 0.010228
vn  -0.875732 0.477801 0.069278
vn  -0.053939 0.954282 0.294001
vn  0.761225 0.461537 0.455544
vn  0.770961 -0.497595 0.397516
vn  -0.033667 -0.983645 0.176942
vn  0.049839 -0.994460 -0.092550
vn  -0.763703 -0.491431 -0.418632
vn  -0.774662 0.523093 -0.355347
vn  0.028386 0.998966 0.035514
vn  0.805405 0.477114 0.351688
vn  0.818355 -0.496660 0.289178
vn  0.357976 -0.497510 0.790150
vn  0.349432 0.407690 0.843615
vn  -0.256741 0.890443 0.375759
vn  -0.873434 -0.452571 -0.179699
vn  -0.384650 -0.423196 -0.820335
vn  0.111151 -0.989514 -0.092240
vn  -0.241894 -0.933087 0.266150
vn  -0.882411 0.453541 -0.125103
vn  -0.391824 0.499963 -0.772341
vn  0.060807 0.992565 0.105439
vn  0.500044 0.417774 0.758565
vn  0.530493 -0.489247 0.692253
vn  0.001491 -0.998912 0.046612
vn  -0.001690 0.977791 0.209574
vn  -0.000463 0.299610 0.954062
vn  0.000528 -0.402509 0.915416
vn  -0.911131 -0.397101 -0.110233
vn  -0.435348 -0.824956 0.360444
vn  -0.919555 0.388642 -0.058103
vn  -0.456738 0.759634 0.462975
vn  0.019627 0.342428 0.939339
vn  0.034356 -0.452462 0.891122
vn  0.134535 -2.404345 0.602808
vn  2.147162 -1.220935 0.247736
vn  2.172134 1.136159 0.391571
vn  0.184480 2.309842 0.890478
vn  -1.828146 1.126429 1.245549
vn  -1.853119 -1.230663 1.101714
vn  0.002556 -0.999556 0.029697
vn  0.842045 -0.502353 -0.196473
vn  0.853307 0.503831 -0.134246
vn  0.024164 0.987969 0.152749
vn  -0.795690 0.478229 0.371717
vn  -0.806055 -0.503626 0.310863
vn  0.865181 -0.501355 0.010228
vn  0.875732 0.477802 0.069278
vn  0.053940 0.954282 0.294001
vn  -0.761225 0.461537 0.455545
vn  -0.770961 -0.497595 0.397516
vn  0.033666 -0.983645 0.176942
vn  -0.049839 -0.994460 -0.092550
vn  0.763703 -0.491431 -0.418633
vn  0.774662 0.523093 -0.355347
vn  -0.028386 0.998966 0.035514
vn  -0.805405 0.477114 0.351688
vn  -0.818355 -0.496660 0.289178
vn  -0.357976 -0.497510 0.790150
vn  -0.349431 0.407691 0.843615
vn  0.256741 0.890443 0.375760
vn  0.873435 -0.452571 -0.179699
vn  0.385399 -0.424280 -0.819423
vn  -0.109630 -0.989860 -0.090328
vn  0.241894 -0.933087 0.266150
vn  0.882411 0.453542 -0.125103
vn  0.391005 0.499180 -0.773262
vn  -0.062157 0.992633 0.104004
vn  -0.500460 0.417622 0.758374
vn  -0.529944 -0.489468 0.692517
vn  0.000811 -0.348385 -0.937351
vn  -0.001146 0.440179 -0.897909
vn  0.911131 -0.397119 -0.110168
vn  0.435419 -0.824886 0.360519
vn  0.919553 0.388637 -0.058178
vn  0.456664 0.759719 0.462910
vn  -0.019700 0.342416 0.939342
vn  -0.034280 -0.452473 0.891119
vn  0.398721 -0.145123 0.905517
vn  -0.912331 0.332062 0.239555
vn  0.342020 0.939693 -0.000000
vn  0.912332 -0.332061 -0.239555
vn  -0.342020 -0.939693 0.000000
vn  -0.398721 0.145123 -0.905517
vn  -0.462988 0.168514 0.870199
vn  0.510297 0.653454 0.559101
vn  0.882017 -0.321028 0.344946
vn  -0.029122 -0.828588 0.559102
vn  -0.882017 0.321028 -0.344946
vn  0.029122 0.828587 -0.559102
vn  0.462988 -0.168514 -0.870199
vn  -0.510297 -0.653454 -0.559102
vn  -0.368307 0.913462 0.173023
vn  0.869302 0.463009 -0.173023
vn  0.368308 -0.913462 -0.173023
vn  -0.869302 -0.463009 0.173023
vn  -0.357676 0.048298 0.932596
vn  -0.917415 0.350461 -0.188484
vn  0.340862 0.936510 0.082229
vn  0.917415 -0.350461 0.188484
vn  -0.340862 -0.936510 -0.082229
vn  0.357675 -0.048298 -0.932596
vn  -0.872938 0.282823 0.397480
vn  0.058248 0.777330 0.626391
vn  0.497398 -0.253875 0.829544
vn  -0.486681 -0.719849 0.494933
vn  -0.497398 0.253875 -0.829544
vn  0.486681 0.719849 -0.494933
vn  0.872938 -0.282823 -0.397481
vn  -0.058248 -0.777330 -0.626391
vn  -0.363045 0.928963 -0.072298
vn  0.867718 0.457616 0.194044
vn  0.363045 -0.928963 0.072298
vn  -0.867718 -0.457616 -0.194044
vn  0.000000 0.000000 1.000000
vn  -0.939693 0.342020 0.000000
vn  0.342020 0.939693 -0.000000
vn  0.939693 -0.342020 -0.000000
vn  -0.342020 -0.939693 -0.000000
vn  0.000000 -0.000000 -1.000000
vn  -0.664463 0.241845 0.707107
vn  0.241845 0.664463 0.707107
vn  0.664463 -0.241845 0.707107
vn  -0.241845 -0.664463 0.707107
vn  -0.664463 0.241845 -0.707107
vn  0.241845 0.664463 -0.707107
vn  0.664463 -0.241845 -0.707107
vn  -0.241845 -0.664463 -0.707107
vn  -0.422618 0.906308 0.000000
vn  0.906308 0.422618 -0.000000
vn  0.422618 -0.906308 -0.000000
vn  -0.906308 -0.422618 0.000000
# 144 vertex normals

g (null)
usemtl wall1
s 8
f 18/24/18 13/19/13 2/2/2 1/1/1
f 13/19/13 14/20/14 3/3/3 2/2/2
f 14/20/14 15/21/15 4/4/4 3/3/3
f 15/21/15 16/22/16 5/5/5 4/4/4
f 16/22/16 17/23/17 6/6/6 5/5/5
f 17/23/17 18/24/18 1/1/1 6/6/6
f 7/13/7 19/25/19 20/26/20 8/14/8
f 8/14/8 20/26/20 21/27/21 9/15/9
f 9/15/9 21/27/21 22/28/22 10/16/10
f 10/16/10 22/28/22 23/29/23 11/17/11
f 11/17/11 23/29/23 24/30/24 12/18/12
f 12/18/12 24/30/24 19/25/19 7/13/7
f 18/24/18 7/13/7 8/14/8 13/19/13
f 13/19/13 8/14/8 9/15/9 14/20/14
f 14/20/14 9/15/9 10/16/10 15/21/15
f 15/21/15 10/16/10 11/17/11 16/22/16
f 16/22/16 11/17/11 12/18/12 17/23/17
f 17/23/17 12/18/12 7/13/7 18/24/18
f 19/25/19 31/7/31 28/8/28 20/26/20
f 20/26/20 28/8/28 32/9/32 21/27/21
f 21/27/21 32/9/32 27/10/27 22/28/22
f 22/28/22 27/10/27 26/11/26 23/29/23
f 23/29/23 26/11/26 25/12/25 24/30/24
f 24/30/24 25/12/25 31/7/31 19/25/19
f 31/34/31 42/50/42 41/49/41 28/31/28
f 28/31/28 41/49/41 43/51/43 32/35/32
f 32/35/32 43/51/43 44/52/44 27/37/27
f 27/37/27 44/52/44 45/53/45 26/39/26
f 26/39/26 45/53/45 46/54/46 25/41/25
f 25/41/25 46/54/46 42/50/42 31/34/31
f 30/33/30 37/44/37 83/43/83 29/32/29
f 29/32/29 83/43/83 84/45/84 33/36/33
f 33/36/33 84/45/84 38/46/38 34/38/34
f 34/38/34 38/46/38 39/47/39 35/40/35
f 35/40/35 39/47/39 40/48/40 36/42/36
f 36/42/36 40/48/40 37/44/37 30/33/30
f 42/50/42 30/33/30 29/32/29 41/49/41
f 41/49/41 29/32/29 33/36/33 43/51/43
f 43/51/43 33/36/33 34/38/34 44/52/44
f 44/52/44 34/38/34 35/40/35 45/53/45
f 45/53/45 35/40/35 36/42/36 46/54/46
f 46/54/46 36/42/36 30/33/30 42/50/42
f 64/78/64 47/55/47 48/56/48 59/73/59
f 59/73/59 48/56/48 49/57/49 60/74/60
f 60/74/60 49/57/49 50/58/50 61/75/61
f 61/75/61 50/58/50 51/59/51 62/76/62
f 62/76/62 51/59/51 52/60/52 63/77/63
f 63/77/63 52/60/52 47/55/47 64/78/64
f 53/67/53 54/68/54 66/80/66 65/79/65
f 54/68/54 55/69/55 67/81/67 66/80/66
f 55/69/55 56/70/56 68/82/68 67/81/67
f 56/70/56 57/71/57 69/83/69 68/82/68
f 57/71/57 58/72/58 70/84/70 69/83/69
f 58/72/58 53/67/53 65/79/65 70/84/70
f 64/78/64 59/73/59 54/68/54 53/67/53
f 59/73/59 60/74/60 55/69/55 54/68/54
f 60/74/60 61/75/61 56/70/56 55/69/55
f 61/75/61 62/76/62 57/71/57 56/70/56
f 62/76/62 63/77/63 58/72/58 57/71/57
f 63/77/63 64/78/64 53/67/53 58/72/58
f 65/79/65 66/80/66 74/62/74 77/61/77
f 66/80/66 67/81/67 78/63/78 74/62/74
f 67/81/67 68/82/68 73/64/73 78/63/78
f 68/82/68 69/83/69 72/65/72 73/64/73
f 69/83/69 70/84/70 71/66/71 72/65/72
f 70/84/70 65/79/65 77/61/77 71/66/71
f 77/88/77 74/85/74 85/103/85 86/104/86
f 74/85/74 78/89/78 87/105/87 85/103/85
f 78/89/78 73/91/73 88/106/88 87/105/87
f 73/91/73 72/93/72 89/107/89 88/106/88
f 72/93/72 71/95/71 90/108/90 89/107/89
f 71/95/71 77/88/77 86/104/86 90/108/90
f 76/87/76 75/86/75 83/97/83 37/98/37
f 75/86/75 79/90/79 84/99/84 83/97/83
f 79/90/79 80/92/80 38/100/38 84/99/84
f 80/92/80 81/94/81 39/101/39 38/100/38
f 81/94/81 82/96/82 40/102/40 39/101/39
f 82/96/82 76/87/76 37/98/37 40/102/40
f 86/104/86 85/103/85 75/86/75 76/87/76
f 85/103/85 87/105/87 79/90/79 75/86/75
f 87/105/87 88/106/88 80/92/80 79/90/79
f 88/106/88 89/107/89 81/94/81 80/92/80
f 89/107/89 90/108/90 82/96/82 81/94/81
f 90/108/90 86/104/86 76/87/76 82/96/82
s 1
f 52/60/52 50/58/50 48/56/48 47/55/47
s 0
f 2/2/2 4/4/4 6/6/6 1/1/1
s 1
f 52/60/52 51/59/51 50/58/50
f 48/56/48 50/58/50 49/57/49
s 0
f 2/2/2 3/3/3 4/4/4
f 6/6/6 4/4/4 5/5/5
usemtl stone-01
s 1
f 91/109/91 98/119/98 97/111/97
f 97/111/97 105/124/105 92/110/92
f 97/111/97 98/119/98 105/124/105
f 98/119/98 93/115/93 105/124/105
f 91/109/91 99/117/99 98/119/98
f 98/119/98 106/125/106 93/115/93
f 98/119/98 99/117/99 106/125/106
f 99/117/99 94/112/94 106/125/106
f 91/109/91 100/118/100 99/117/99
f 99/117/99 107/123/107 94/112/94
f 99/117/99 100/118/100 107/123/107
f 100/118/100 95/113/95 107/123/107
f 91/109/91 97/111/97 100/118/100
f 100/118/100 108/126/108 95/113/95
f 100/118/100 97/111/97 108/126/108
f 97/111/97 92/110/92 108/126/108
f 96/114/96 101/116/101 102/121/102
f 102/121/102 105/124/105 93/115/93
f 102/121/102 101/116/101 105/124/105
f 101/116/101 92/110/92 105/124/105
f 96/114/96 102/121/102 103/120/103
f 103/120/103 106/125/106 94/112/94
f 103/120/103 102/121/102 106/125/106
f 102/121/102 93/115/93 106/125/106
f 96/114/96 103/120/103 104/122/104
f 104/122/104 107/123/107 95/113/95
f 104/122/104 103/120/103 107/123/107
f 103/120/103 94/112/94 107/123/107
f 96/114/96 104/122/104 101/116/101
f 101/116/101 108/126/108 92/110/92
f 101/116/101 104/122/104 108/126/108
f 104/122/104 95/113/95 108/126/108
f 109/127/109 116/137/116 115/129/115
f 115/129/115 123/142/123 110/128/110
f 115/129/115 116/137/116 123/142/123
f 116/137/116 111/133/111 123/142/123
f 109/127/109 117/135/117 116/137/116
f 116/137/116 124/143/124 111/133/111
f 116/137/116 117/135/117 124/143/124
f 117/135/117 112/130/112 124/143/124
f 109/127/109 118/136/118 117/135/117
f 117/135/117 125/141/125 112/130/112
f 117/135/117 118/136/118 125/141/125
f 118/136/118 113/131/113 125/141/125
f 109/127/109 115/129/115 118/136/118
f 118/136/118 126/144/126 113/131/113
f 118/136/118 115/129/115 126/144/126
f 115/129/115 110/128/110 126/144/126
f 114/132/114 119/134/119 120/139/120
f 120/139/120 123/142/123 111/133/111
f 120/139/120 119/134/119 123/142/123
f 119/134/119 110/128/110 123/142/123
f 114/132/114 120/139/120 121/138/121
f 121/138/121 124/143/124 112/130/112
f 121/138/121 120/139/120 124/143/124
f 120/139/120 111/133/111 124/143/124
f 114/132/114 121/138/121 122/140/122
f 122/140/122 125/141/125 113/131/113
f 122/140/122 121/138/121 125/141/125
f 121/138/121 112/130/112 125/141/125
f 114/132/114 122/140/122 119/134/119
f 119/134/119 126/144/126 110/128/110
f 119/134/119 122/140/122 126/144/126
f 122/140/122 113/131/113 126/144/126
f 127/145/127 134/155/134 133/147/133
f 133/147/133 141/160/141 128/146/128
f 133/147/133 134/155/134 141/160/141
f 134/155/134 129/151/129 141/160/141
f 127/145/127 135/153/135 134/155/134
f 134/155/134 142/161/142 129/151/129
f 134/155/134 135/153/135 142/161/142
f 135/153/135 130/148/130 142/161/142
f 127/145/127 136/154/136 135/153/135
f 135/153/135 143/159/143 130/148/130
f 135/153/135 136/154/136 143/159/143
f 136/154/136 131/149/131 143/159/143
f 127/145/127 133/147/133 136/154/136
f 136/154/136 144/162/144 131/149/131
f 136/154/136 133/147/133 144/162/144
f 133/147/133 128/146/128 144/162/144
f 132/150/132 137/152/137 138/157/138
f 138/157/138 141/160/141 129/151/129
f 138/157/138 137/152/137 141/160/141
f 137/152/137 128/146/128 141/160/141
f 132/150/132 138/157/138 139/156/139
f 139/156/139 142/161/142 130/148/130
f 139/156/139 138/157/138 142/161/142
f 138/157/138 129/151/129 142/161/142
f 132/150/132 139/156/139 140/158/140
f 140/158/140 143/159/143 131/149/131
f 140/158/140 139/156/139 143/159/143
f 139/156/139 130/148/130 143/159/143
f 132/150/132 140/158/140 137/152/137
f 137/152/137 144/162/144 128/146/128
f 137/152/137 140/158/140 144/162/144
f 140/158/140 131/149/131 144/162/144
# 186 faces

g
