# Max2Obj Version 4.0 Mar 10th, 2001
#
mtllib ./rock-pillar_13.mtl
g
# object (null) to come ...
#
v  2.032193 0.000000 -0.762161
v  1.016097 1.759931 -0.762161
v  -1.016097 1.759931 -0.762161
v  -2.032193 -0.000000 -0.762161
v  -1.016096 -1.759931 -0.762161
v  1.016097 -1.759931 -0.762161
v  0.597924 0.000000 3.719736
v  0.298962 0.517818 3.719736
v  -0.298962 0.517818 3.719736
v  -0.597924 -0.000000 3.719736
v  -0.298962 -0.517818 3.719736
v  0.298962 -0.517818 3.719736
v  0.608071 1.053210 1.478788
v  -0.608071 1.053210 1.478788
v  -1.216142 -0.000000 1.478788
v  -0.608071 -1.053210 1.478788
v  0.608071 -1.053210 1.478788
v  1.216142 0.000000 1.478788
v  0.553030 0.000000 6.287887
v  0.276515 0.478938 6.287887
v  -0.276515 0.478938 6.287887
v  -0.553030 -0.000000 6.287887
v  -0.276515 -0.478938 6.287887
v  0.276515 -0.478938 6.287887
v  0.575386 -0.996984 8.810217
v  -0.575386 -0.996985 8.810217
v  -1.150772 -0.000386 8.810217
v  0.575386 0.996212 8.810217
v  1.150772 -0.000386 8.810217
v  -0.575386 0.996212 8.810217
v  0.000000 0.008291 8.594438
# 31 vertices

vt  0.898128 0.690585 1.000000
vt  0.959751 0.690585 1.000000
vt  0.897101 0.690585 1.000000
vt  0.834701 0.690585 1.000000
vt  0.772816 0.690585 1.000000
vt  0.835728 0.690585 1.000000
vt  0.835881 0.677063 1.000000
vt  0.790596 0.678061 1.000000
vt  0.836014 0.677205 1.000000
vt  0.896819 0.677064 1.000000
vt  0.942206 0.678064 1.000000
vt  0.896686 0.677203 1.000000
vt  0.896270 0.499994 1.000000
vt  0.936395 0.500013 1.000000
vt  0.895476 0.500015 1.000000
vt  0.836521 0.499994 1.000000
vt  0.796292 0.500016 1.000000
vt  0.837315 0.500015 1.000000
vt  0.946287 0.591513 1.000000
vt  0.896928 0.591161 1.000000
vt  0.834557 0.591161 1.000000
vt  0.786354 0.591517 1.000000
vt  0.835875 0.591161 1.000000
vt  0.898246 0.591162 1.000000
vt  0.837070 0.594851 1.000000
vt  0.797735 0.595408 1.000000
vt  0.837241 0.594931 1.000000
vt  0.895642 0.594852 1.000000
vt  0.935064 0.595409 1.000000
vt  0.895471 0.594930 1.000000
vt  0.937547 0.501457 1.000000
vt  0.896022 0.501427 1.000000
vt  0.896241 0.501448 1.000000
vt  0.836771 0.501427 1.000000
vt  0.795137 0.501459 1.000000
vt  0.836551 0.501448 1.000000
vt  0.866380 0.490041 1.000000
vt  0.836483 0.491225 1.000000
vt  0.796357 0.491205 1.000000
vt  0.837276 0.491203 1.000000
vt  0.896232 0.491225 1.000000
vt  0.936461 0.491203 1.000000
vt  0.895438 0.491203 1.000000
# 43 texture vertices

vn  2.310719 0.000000 0.841458
vn  1.155359 2.001142 0.841458
vn  -1.155360 2.001141 0.841458
vn  -2.310719 -0.000000 0.841458
vn  -1.155359 -2.001142 0.841458
vn  1.155360 -2.001142 0.841458
vn  0.988862 0.000000 0.148839
vn  0.494431 0.856379 0.148839
vn  -0.494431 0.856379 0.148839
vn  -0.988862 -0.000000 0.148839
vn  -0.494431 -0.856379 0.148839
vn  0.494431 -0.856379 0.148839
vn  0.475682 0.823905 0.308072
vn  -0.475682 0.823905 0.308072
vn  -0.951363 -0.000000 0.308072
vn  -0.475682 -0.823905 0.308072
vn  0.475682 -0.823905 0.308072
vn  0.951363 0.000000 0.308072
vn  0.993720 0.000027 -0.111899
vn  0.496852 0.860600 -0.111832
vn  -0.496852 0.860600 -0.111832
vn  -0.993720 0.000027 -0.111899
vn  -0.496868 -0.860573 -0.111967
vn  0.496868 -0.860573 -0.111967
vn  0.407633 -0.705839 0.579334
vn  -0.407632 -0.705839 0.579334
vn  -0.814803 0.000205 0.579739
vn  0.407165 0.705439 0.580149
vn  0.814803 0.000205 0.579739
vn  -0.407165 0.705439 0.580149
vn  -0.000000 -0.001651 0.999999
# 31 vertex normals

g (null)
usemtl gate
s 8
f 18/24/18 1/1/1 2/2/2 13/19/13
f 13/19/13 2/2/2 3/3/3 14/20/14
f 14/20/14 3/3/3 4/4/4 15/21/15
f 15/21/15 4/4/4 5/5/5 16/22/16
f 16/22/16 5/5/5 6/6/6 17/23/17
f 17/23/17 6/6/6 1/1/1 18/24/18
f 7/38/7 8/39/8 20/26/20 19/25/19
f 8/39/8 9/40/9 21/27/21 20/26/20
f 9/40/9 10/41/10 22/28/22 21/27/21
f 10/41/10 11/42/11 23/29/23 22/28/22
f 11/42/11 12/43/12 24/30/24 23/29/23
f 12/43/12 7/38/7 19/25/19 24/30/24
f 18/24/18 13/19/13 8/14/8 7/13/7
f 13/19/13 14/20/14 9/15/9 8/14/8
f 14/20/14 15/21/15 10/16/10 9/15/9
f 15/21/15 16/22/16 11/17/11 10/16/10
f 16/22/16 17/23/17 12/18/12 11/17/11
f 17/23/17 18/24/18 7/13/7 12/18/12
f 19/25/19 20/26/20 28/8/28 29/7/29
f 20/26/20 21/27/21 30/9/30 28/8/28
f 21/27/21 22/28/22 27/10/27 30/9/30
f 22/28/22 23/29/23 26/11/26 27/10/27
f 23/29/23 24/30/24 25/12/25 26/11/26
f 24/30/24 19/25/19 29/7/29 25/12/25
s 1
f 6/6/6 4/4/4 2/2/2 1/1/1
s 8
f 28/31/28 31/37/31 29/32/29
f 30/33/30 31/37/31 28/31/28
f 27/34/27 31/37/31 30/33/30
f 26/35/26 31/37/31 27/34/27
f 25/36/25 31/37/31 26/35/26
f 29/32/29 31/37/31 25/36/25
s 1
f 6/6/6 5/5/5 4/4/4
f 2/2/2 4/4/4 3/3/3
# 33 faces

g
