# Max2Obj Version 4.0 Mar 10th, 2001
#
mtllib ./skull.mtl
g
# object (null) to come ...
#
v  -0.371678 -0.006606 -0.225966
v  -0.271855 0.312835 -0.199557
v  0.007922 0.353577 -0.292035
v  -0.233506 0.444403 0.159612
v  -0.299868 0.124166 0.290908
v  -0.000424 0.168560 0.429620
v  -0.192851 -0.076986 0.392018
v  -0.239070 -0.270574 0.176494
v  -0.031992 -0.378611 0.100800
v  0.283043 -0.238202 0.052359
v  0.160330 -0.096958 0.391525
v  0.261766 0.417612 0.160150
v  0.289505 0.093456 0.293957
v  0.381992 0.171848 0.002713
v  0.226146 -0.207071 -0.388031
v  0.054709 -0.442534 -0.069159
v  0.076876 -0.484622 -0.219409
v  0.051499 -0.522286 -0.419235
v  -0.265286 -0.180465 -0.388542
v  -0.381991 0.213960 0.001454
v  -0.039176 -0.513630 -0.332324
v  -0.147780 -0.473841 -0.221040
v  -0.229322 -0.378102 -0.021060
v  -0.330615 -0.256422 -0.110452
v  -0.295736 -0.114671 -0.266175
v  -0.039246 -0.535174 -0.199924
v  -0.121852 -0.432231 -0.071037
v  0.013456 0.435427 0.281796
v  0.348234 -0.044774 -0.225624
v  0.278993 0.280950 -0.199846
v  -0.327361 -0.204654 0.048561
v  0.020609 0.535174 -0.044008
v  0.256955 -0.147877 -0.264026
v  0.277853 -0.290475 -0.108495
v  0.164182 -0.400010 -0.021261
v  0.158710 -0.335623 -0.432488
v  -0.130898 -0.512936 -0.418732
v  -0.213596 -0.313500 -0.434557
v  -0.015290 -0.100380 0.434557
# 39 vertices

vt  0.942329 0.382006 0.000000
vt  0.959982 0.399013 0.000000
vt  0.977599 0.389290 0.000000
vt  0.958785 0.442750 0.000000
vt  0.921750 0.441839 0.000000
vt  0.937764 0.466455 0.000000
vt  0.900272 0.440961 0.000000
vt  0.901887 0.409158 0.000000
vt  0.879378 0.399338 0.000000
vt  0.879412 0.399338 0.000000
vt  0.918279 0.401517 0.000000
vt  0.900100 0.440961 0.000000
vt  0.958785 0.442750 0.000000
vt  0.921750 0.441839 0.000000
vt  0.947622 0.415304 0.000000
vt  0.925564 0.355504 0.000000
vt  0.889516 0.379339 0.000000
vt  0.892849 0.361877 0.000000
vt  0.935460 0.344242 0.000000
vt  0.939515 0.366355 0.000000
vt  0.951921 0.342584 0.000000
vt  0.918038 0.401582 0.000000
vt  0.947622 0.415304 0.000000
vt  0.925633 0.355504 0.000000
vt  0.879103 0.350235 0.000000
vt  0.892712 0.361877 0.000000
vt  0.904774 0.382363 0.000000
vt  0.923812 0.380835 0.000000
vt  0.926355 0.371535 0.000000
vt  0.878966 0.361877 0.000000
vt  0.868759 0.379339 0.000000
vt  0.966939 0.463041 0.000000
vt  0.942329 0.382006 0.000000
vt  0.959931 0.398850 0.000000
vt  0.918038 0.401582 0.000000
vt  0.921922 0.441871 0.000000
vt  0.921784 0.441807 0.000000
vt  0.918073 0.401517 0.000000
vt  0.979684 0.423629 0.000000
vt  0.879172 0.468081 0.000000
vt  0.879275 0.468081 0.000000
vt  0.950958 0.373606 0.000000
vt  0.964842 0.346974 0.000000
vt  0.923880 0.380835 0.000000
vt  0.904670 0.382363 0.000000
vt  0.926458 0.371535 0.000000
vt  0.955426 0.380565 0.000000
vt  0.973502 0.345868 0.000000
vt  0.907832 0.346073 0.000000
vt  0.878966 0.350235 0.000000
vt  0.890065 0.339700 0.000000
vt  0.923777 0.380998 0.000000
vt  0.926458 0.371567 0.000000
vt  0.923777 0.380998 0.000000
vt  0.926458 0.371567 0.000000
vt  0.889310 0.379339 0.000000
vt  0.930855 0.353055 0.000000
vt  0.907798 0.346073 0.000000
vt  0.889962 0.339862 0.000000
vt  0.879309 0.444928 0.000000
vt  0.868106 0.339700 0.000000
vt  0.879137 0.444928 0.000000
vt  0.879103 0.361877 0.000000
# 63 texture vertices

vn  -0.332273 0.180369 -0.925776
vn  -0.332273 0.180369 -0.925776
vn  -0.332273 0.180369 -0.925776
vn  -0.432182 0.417318 0.799415
vn  -0.432182 0.417318 0.799415
vn  -0.432182 0.417318 0.799415
vn  -0.129775 -0.723664 0.677841
vn  -0.129775 -0.723664 0.677841
vn  -0.129775 -0.723664 0.677841
vn  0.418232 -0.774856 0.474005
vn  0.418232 -0.774856 0.474005
vn  0.910514 0.221927 0.348874
vn  0.910514 0.221927 0.348874
vn  0.910514 0.221927 0.348874
vn  0.908483 -0.347947 0.231500
vn  0.908483 -0.347947 0.231500
vn  0.908483 -0.347947 0.231500
vn  0.006184 0.095116 -0.995447
vn  0.006184 0.095116 -0.995447
vn  -0.878277 0.325578 0.350183
vn  -0.688292 -0.547442 -0.475984
vn  -0.688292 -0.547442 -0.475984
vn  -0.230387 -0.693370 -0.682759
vn  -0.230386 -0.693370 -0.682760
vn  -0.230387 -0.693370 -0.682759
vn  -0.052888 -0.796521 0.602293
vn  -0.052888 -0.796521 0.602293
vn  0.423066 0.422116 0.801769
vn  -0.008630 -0.171607 -0.985128
vn  0.845073 0.512013 -0.153930
vn  -0.964956 -0.098564 0.243198
vn  0.592475 0.762146 -0.260973
vn  0.054972 0.885071 -0.462198
vn  0.168560 -0.715155 -0.678336
vn  0.168560 -0.715155 -0.678336
vn  0.640061 -0.317969 0.699441
vn  0.001929 0.091208 -0.995830
vn  -0.669578 -0.221391 0.708979
vn  -0.229067 0.030524 0.972932
# 39 vertex normals

g (null)
usemtl stone-01
s 0
f 1/1/1 2/2/2 3/3/3
f 4/4/4 5/5/5 6/6/6
f 7/7/7 8/8/8 9/9/9
f 9/10/9 10/11/10 11/12/11
f 12/13/12 13/14/13 14/15/14
f 15/16/15 16/17/16 17/18/17
f 18/19/18 19/20/19 15/21/15
f 13/14/13 10/22/10 14/15/14
f 20/23/20 5/5/5 4/4/4
f 19/24/19 21/25/21 22/26/22
f 23/27/23 24/28/24 25/29/25
f 26/30/26 16/17/16 27/31/27
f 28/32/28 6/6/6 12/13/12
f 2/2/2 20/23/20 4/4/4
f 29/33/29 1/1/1 3/3/3
f 14/15/14 30/34/30 12/13/12
f 5/5/5 20/23/20 31/35/31
f 11/12/11 10/11/10 13/36/13
f 5/37/5 31/38/31 7/7/7
f 30/34/30 32/39/32 12/13/12
f 12/13/12 32/39/32 28/32/28
f 9/9/9 31/38/31 23/27/23
f 6/40/6 5/37/5 7/7/7
f 13/36/13 6/41/6 11/12/11
f 19/20/19 25/42/25 33/43/33
f 34/44/34 35/45/35 33/46/33
f 35/45/35 10/11/10 9/10/9
f 6/6/6 13/14/13 12/13/12
f 33/43/33 1/47/1 29/48/29
f 36/49/36 21/50/21 18/51/18
f 3/3/3 2/2/2 32/39/32
f 2/2/2 4/4/4 32/39/32
f 29/33/29 34/52/34 33/53/33
f 24/54/24 1/1/1 25/55/25
f 22/26/22 27/56/27 19/24/19
f 27/31/27 16/17/16 9/10/9
f 37/57/37 19/20/19 18/19/18
f 32/39/32 30/34/30 3/3/3
f 3/3/3 30/34/30 29/33/29
f 15/16/15 17/18/17 21/50/21
f 32/39/32 4/4/4 28/32/28
f 4/4/4 6/6/6 28/32/28
f 27/56/27 25/29/25 19/24/19
f 15/16/15 33/46/33 16/17/16
f 31/35/31 20/23/20 1/1/1
f 1/1/1 20/23/20 2/2/2
f 38/58/38 37/59/37 21/25/21
f 29/33/29 30/34/30 14/15/14
f 14/15/14 10/22/10 29/33/29
f 6/40/6 7/7/7 39/60/39
f 39/60/39 7/7/7 9/9/9
f 31/38/31 24/28/24 23/27/23
f 10/11/10 35/45/35 34/44/34
f 18/51/18 21/50/21 37/61/37
f 6/41/6 39/62/39 11/12/11
f 11/12/11 39/62/39 9/10/9
f 10/22/10 34/52/34 29/33/29
f 31/35/31 1/1/1 24/54/24
f 15/21/15 19/20/19 33/43/33
f 25/42/25 1/47/1 33/43/33
f 16/17/16 26/30/26 17/18/17
f 17/18/17 26/30/26 21/50/21
f 21/25/21 26/63/26 22/26/22
f 26/63/26 27/56/27 22/26/22
f 19/24/19 38/58/38 21/25/21
f 15/16/15 21/50/21 36/49/36
f 7/7/7 31/38/31 8/8/8
f 8/8/8 31/38/31 9/9/9
f 9/9/9 23/27/23 27/56/27
f 27/56/27 23/27/23 25/29/25
f 33/46/33 35/45/35 16/17/16
f 16/17/16 35/45/35 9/10/9
# 72 faces

g
