# Max2Obj Version 4.0 Mar 10th, 2001
#
mtllib ./stalagmite_05.mtl
g
# object (null) to come ...
#
v  0.176886 1.576369 -1.046086
v  -1.271539 0.940788 -0.926356
v  -1.448424 -0.635583 -0.926356
v  -0.176884 -1.576372 -1.046086
v  1.271540 -0.940791 -1.165815
v  1.448425 0.635580 -1.165815
v  0.584773 -0.065619 5.679839
v  0.399669 0.565161 2.773312
v  -0.153860 0.322268 2.819067
v  -0.221458 -0.280156 2.819067
v  0.264472 -0.639687 2.773312
v  0.818001 -0.396794 2.727556
v  0.885599 0.205630 2.727556
v  -0.554659 0.514597 0.931474
v  -0.654916 -0.378873 0.931474
v  0.065779 -0.912102 0.863613
v  0.886730 -0.551861 0.795751
v  0.986987 0.341608 0.795751
v  0.266292 0.874837 0.863613
v  0.603785 0.667140 4.961845
v  -0.063063 0.374521 5.016968
v  -0.144500 -0.351233 5.016968
v  0.440911 -0.784368 4.961845
v  1.107759 -0.491749 4.906722
v  1.189196 0.234005 4.906722
# 25 vertices

vt  0.494285 0.348960 1.000000
vt  0.390680 0.348960 1.000000
vt  0.496012 0.348960 1.000000
vt  0.600922 0.348960 1.000000
vt  0.704968 0.348960 1.000000
vt  0.599195 0.348960 1.000000
vt  0.547659 0.921256 1.000000
vt  0.496456 0.668960 1.000000
vt  0.426797 0.669054 1.000000
vt  0.497857 0.669032 1.000000
vt  0.598811 0.668960 1.000000
vt  0.668655 0.669050 1.000000
vt  0.597409 0.669031 1.000000
vt  0.413316 0.515527 1.000000
vt  0.496301 0.516119 1.000000
vt  0.601165 0.516118 1.000000
vt  0.682206 0.515520 1.000000
vt  0.598949 0.516118 1.000000
vt  0.494086 0.516117 1.000000
vt  0.496694 0.849984 1.000000
vt  0.423103 0.850383 1.000000
vt  0.498976 0.851887 1.000000
vt  0.598559 0.849986 1.000000
vt  0.672339 0.850381 1.000000
vt  0.596277 0.851887 1.000000
# 25 texture vertices

vn  0.330441 2.295399 0.827749
vn  -1.786072 1.366654 1.002705
vn  -2.044546 -0.936820 1.002705
vn  -0.186507 -2.311550 0.827749
vn  1.930007 -1.382805 0.652794
vn  2.188480 0.920669 0.652794
vn  0.086612 -0.009719 0.996195
vn  0.115638 0.992080 0.049032
vn  -0.796360 0.591888 0.124420
vn  -0.907735 -0.400671 0.124420
vn  -0.107112 -0.993037 0.049032
vn  0.804886 -0.592845 -0.026355
vn  0.916261 0.399714 -0.026355
vn  -0.753603 0.571331 0.325058
vn  -0.861486 -0.390102 0.325058
vn  -0.085970 -0.963892 0.252034
vn  0.797429 -0.576249 0.179011
vn  0.905311 0.385184 0.179011
vn  0.129795 0.958974 0.252034
vn  0.133454 0.937752 0.320641
vn  -0.731060 0.558396 0.392104
vn  -0.836636 -0.382484 0.392104
vn  -0.077699 -0.944008 0.320641
vn  0.786815 -0.564652 0.249179
vn  0.892391 0.376228 0.249179
# 25 vertex normals

g (null)
usemtl wall1
s 8
f 19/19/19 1/1/1 2/2/2 14/14/14
f 14/14/14 2/2/2 3/3/3 15/15/15
f 15/15/15 3/3/3 4/4/4 16/16/16
f 16/16/16 4/4/4 5/5/5 17/17/17
f 17/17/17 5/5/5 6/6/6 18/18/18
f 18/18/18 6/6/6 1/1/1 19/19/19
f 8/8/8 9/9/9 21/21/21 20/20/20
f 9/9/9 10/10/10 22/22/22 21/21/21
f 10/10/10 11/11/11 23/23/23 22/22/22
f 11/11/11 12/12/12 24/24/24 23/23/23
f 12/12/12 13/13/13 25/25/25 24/24/24
f 13/13/13 8/8/8 20/20/20 25/25/25
f 19/19/19 14/14/14 9/9/9 8/8/8
f 14/14/14 15/15/15 10/10/10 9/9/9
f 15/15/15 16/16/16 11/11/11 10/10/10
f 16/16/16 17/17/17 12/12/12 11/11/11
f 17/17/17 18/18/18 13/13/13 12/12/12
f 18/18/18 19/19/19 8/8/8 13/13/13
s 1
f 6/6/6 4/4/4 2/2/2 1/1/1
s 8
f 21/21/21 7/7/7 20/20/20
f 22/22/22 7/7/7 21/21/21
f 23/23/23 7/7/7 22/22/22
f 24/24/24 7/7/7 23/23/23
f 25/25/25 7/7/7 24/24/24
f 20/20/20 7/7/7 25/25/25
s 1
f 6/6/6 5/5/5 4/4/4
f 2/2/2 4/4/4 3/3/3
# 27 faces

g
