# Max2Obj Version 4.0 Mar 10th, 2001
#
mtllib ./stone_15.mtl
g
# object (null) to come ...
#
v  0.428127 -0.108965 0.649687
v  0.005702 -0.500479 -0.316864
v  0.402829 0.156080 -0.239277
v  -0.005702 0.500479 0.316864
v  -0.402829 -0.156080 0.239277
v  -0.428127 0.108965 -0.649687
v  0.306763 -0.430942 0.235341
v  0.587575 0.033315 0.290203
v  0.298700 0.276842 0.683455
v  0.017888 -0.187416 0.628592
v  -0.298700 -0.276842 -0.683455
v  -0.017888 0.187416 -0.628592
v  -0.306763 0.430942 -0.235341
v  -0.587575 -0.033315 -0.290203
v  0.288875 -0.243527 -0.393251
v  0.280812 0.464258 0.054862
v  -0.288875 0.243527 0.393251
v  -0.280812 -0.464258 -0.054862
# 18 vertices

vt  0.108910 1.037230 0.000000
vt  0.296080 1.124111 0.000000
vt  0.215165 1.048046 0.000000
vt  0.019233 1.231932 0.000000
vt  0.142554 1.180321 0.000000
vt  0.213423 1.329827 0.000000
vt  0.150429 1.174143 0.000000
vt  0.298796 1.234130 0.000000
vt  0.031578 1.123025 0.000000
vt  0.131327 1.112406 0.000000
vt  0.127846 1.118074 0.000000
vt  0.097966 1.307806 0.000000
vt  0.173012 1.230211 0.000000
vt  0.179844 1.254264 0.000000
vt  0.085560 1.209769 0.000000
vt  0.206498 1.151559 0.000000
vt  0.094360 1.196726 0.000000
vt  0.217127 1.152989 0.000000
# 18 texture vertices

vn  0.574089 -0.339236 0.745212
vn  0.167316 -0.930660 -0.325389
vn  0.815695 0.316049 -0.484515
vn  -0.167316 0.930660 0.325389
vn  -0.815695 -0.316049 0.484515
vn  -0.574089 0.339236 -0.745212
vn  0.450952 -0.872008 0.190380
vn  0.996918 0.049507 0.060861
vn  0.277167 0.521643 0.806887
vn  -0.307116 -0.455754 0.835445
vn  -0.277167 -0.521643 -0.806887
vn  0.307116 0.455754 -0.835445
vn  -0.450952 0.872008 -0.190380
vn  -0.996918 -0.049507 -0.060861
vn  0.712673 -0.390455 -0.582787
vn  0.495028 0.858392 -0.134576
vn  -0.712673 0.390455 0.582787
vn  -0.495028 -0.858392 0.134576
# 18 vertex normals

g (null)
usemtl stone-01
s 1
f 1/1/1 7/3/7 8/11/8
f 7/3/7 2/2/2 15/16/15
f 7/3/7 15/16/15 8/11/8
f 8/11/8 15/16/15 3/7/3
f 1/1/1 8/11/8 9/9/9
f 8/11/8 3/7/3 16/17/16
f 8/11/8 16/17/16 9/9/9
f 9/9/9 16/17/16 4/4/4
f 1/1/1 9/9/9 10/10/10
f 9/9/9 4/4/4 17/15/17
f 9/9/9 17/15/17 10/10/10
f 10/10/10 17/15/17 5/5/5
f 1/1/1 10/10/10 7/3/7
f 10/10/10 5/5/5 18/18/18
f 10/10/10 18/18/18 7/3/7
f 7/3/7 18/18/18 2/2/2
f 6/6/6 12/13/12 11/8/11
f 12/13/12 3/7/3 15/16/15
f 12/13/12 15/16/15 11/8/11
f 11/8/11 15/16/15 2/2/2
f 6/6/6 13/12/13 12/13/12
f 13/12/13 4/4/4 16/17/16
f 13/12/13 16/17/16 12/13/12
f 12/13/12 16/17/16 3/7/3
f 6/6/6 14/14/14 13/12/13
f 14/14/14 5/5/5 17/15/17
f 14/14/14 17/15/17 13/12/13
f 13/12/13 17/15/17 4/4/4
f 6/6/6 11/8/11 14/14/14
f 11/8/11 2/2/2 18/18/18
f 11/8/11 18/18/18 14/14/14
f 14/14/14 18/18/18 5/5/5
# 32 faces

g
