# Max2Obj Version 4.0 Mar 10th, 2001
#
mtllib ./stone_06.mtl
g
# object (null) to come ...
#
v  0.095198 0.075285 1.249740
v  0.256788 -1.185190 0.050682
v  0.967456 0.195925 -0.032467
v  -0.180152 1.245794 -0.017831
v  -0.890819 -0.135321 0.065317
v  -0.026169 -0.020696 -1.249740
v  0.233019 -0.797373 0.912734
v  0.735537 0.179223 0.853939
v  -0.075943 0.921592 0.864287
v  -0.256970 -0.064331 0.799959
v  0.242663 -1.350097 -0.644261
v  1.032031 0.183964 -0.736618
v  -0.242663 1.350097 -0.720362
v  -1.032031 -0.183964 -0.628005
v  0.849799 -0.712067 0.006077
v  0.540836 1.006898 -0.042370
v  -0.773163 0.772671 0.026774
v  -0.464200 -0.946294 0.075220
# 18 vertices

vt  0.108910 0.677319 0.000000
vt  0.296080 0.764200 0.000000
vt  0.215165 0.688135 0.000000
vt  0.019233 0.872020 0.000000
vt  0.142554 0.820409 0.000000
vt  0.213423 0.969915 0.000000
vt  0.150429 0.814231 0.000000
vt  0.298796 0.874219 0.000000
vt  0.031578 0.763114 0.000000
vt  0.131327 0.752494 0.000000
vt  0.127846 0.758162 0.000000
vt  0.097966 0.947895 0.000000
vt  0.173012 0.870300 0.000000
vt  0.179844 0.894352 0.000000
vt  0.085560 0.849857 0.000000
vt  0.206498 0.791648 0.000000
vt  0.094360 0.836814 0.000000
vt  0.217127 0.793078 0.000000
# 18 texture vertices

vn  -0.143128 0.009984 0.989654
vn  0.184304 -0.932989 0.309134
vn  0.969535 0.179504 0.166675
vn  -0.155395 0.955478 0.250828
vn  -0.891523 -0.143494 0.429647
vn  -0.046040 -0.036410 -0.998276
vn  0.076318 -0.643499 0.761633
vn  0.781071 0.157418 0.604274
vn  -0.167020 0.663745 0.729073
vn  -0.750713 -0.139642 0.645702
vn  0.132241 -0.887668 -0.441087
vn  0.852637 0.138117 -0.503918
vn  -0.180378 0.850288 -0.494444
vn  -0.898413 -0.173773 -0.403308
vn  0.869657 -0.479291 0.118223
vn  0.647134 0.758126 0.080392
vn  -0.861828 0.449894 0.234195
vn  -0.651835 -0.711033 0.263711
# 18 vertex normals

g (null)
usemtl stone-01
s 1
f 1/1/1 7/3/7 8/11/8
f 7/3/7 2/2/2 15/16/15
f 7/3/7 15/16/15 8/11/8
f 8/11/8 15/16/15 3/7/3
f 1/1/1 8/11/8 9/9/9
f 8/11/8 3/7/3 16/17/16
f 8/11/8 16/17/16 9/9/9
f 9/9/9 16/17/16 4/4/4
f 1/1/1 9/9/9 10/10/10
f 9/9/9 4/4/4 17/15/17
f 9/9/9 17/15/17 10/10/10
f 10/10/10 17/15/17 5/5/5
f 1/1/1 10/10/10 7/3/7
f 10/10/10 5/5/5 18/18/18
f 10/10/10 18/18/18 7/3/7
f 7/3/7 18/18/18 2/2/2
f 6/6/6 12/13/12 11/8/11
f 12/13/12 3/7/3 15/16/15
f 12/13/12 15/16/15 11/8/11
f 11/8/11 15/16/15 2/2/2
f 6/6/6 13/12/13 12/13/12
f 13/12/13 4/4/4 16/17/16
f 13/12/13 16/17/16 12/13/12
f 12/13/12 16/17/16 3/7/3
f 6/6/6 14/14/14 13/12/13
f 14/14/14 5/5/5 17/15/17
f 14/14/14 17/15/17 13/12/13
f 13/12/13 17/15/17 4/4/4
f 6/6/6 11/8/11 14/14/14
f 11/8/11 2/2/2 18/18/18
f 11/8/11 18/18/18 14/14/14
f 14/14/14 18/18/18 5/5/5
# 32 faces

g
