# Max2Obj Version 4.0 Mar 10th, 2001
#
mtllib ./stone_21.mtl
g
# object (null) to come ...
#
v  -0.141948 -0.123832 0.588495
v  0.279613 -0.734555 -0.087122
v  0.646672 0.222116 0.202718
v  -0.279613 0.734555 0.087122
v  -0.646672 -0.222116 -0.202718
v  0.141948 0.123832 -0.588495
v  0.097344 -0.606971 0.354524
v  0.356894 0.069497 0.559473
v  -0.298088 0.431846 0.477734
v  -0.557639 -0.244622 0.272786
v  0.298088 -0.431846 -0.477734
v  0.557639 0.244622 -0.272786
v  -0.097344 0.606971 -0.354524
v  -0.356894 -0.069497 -0.559473
v  0.654982 -0.362349 0.081739
v  0.259550 0.676469 0.204948
v  -0.654982 0.362349 -0.081739
v  -0.259550 -0.676469 -0.204948
# 18 vertices

vt  -0.108261 0.245632 0.000000
vt  0.022248 0.306212 0.000000
vt  -0.034172 0.253174 0.000000
vt  -0.170791 0.381393 0.000000
vt  -0.084802 0.345406 0.000000
vt  -0.035387 0.449653 0.000000
vt  -0.079311 0.341098 0.000000
vt  0.024142 0.382926 0.000000
vt  -0.162183 0.305455 0.000000
vt  -0.092630 0.298050 0.000000
vt  -0.095057 0.302002 0.000000
vt  -0.115892 0.434298 0.000000
vt  -0.063564 0.380193 0.000000
vt  -0.058800 0.396964 0.000000
vt  -0.124543 0.365939 0.000000
vt  -0.040215 0.325351 0.000000
vt  -0.118406 0.356844 0.000000
vt  -0.032804 0.326348 0.000000
# 18 texture vertices

vn  -0.229723 -0.200405 0.952400
vn  0.353588 -0.928891 -0.110171
vn  0.906754 0.311448 0.284248
vn  -0.353588 0.928891 0.110171
vn  -0.906754 -0.311448 -0.284248
vn  0.229723 0.200405 -0.952400
vn  0.055312 -0.756148 0.652059
vn  0.441963 0.062098 0.894881
vn  -0.404422 0.451592 0.795304
vn  -0.781177 -0.358021 0.511452
vn  0.404422 -0.451592 -0.795304
vn  0.781177 0.358021 -0.511452
vn  -0.055311 0.756148 -0.652059
vn  -0.441963 -0.062098 -0.894881
vn  0.903454 -0.407822 0.132103
vn  0.419945 0.862378 0.282755
vn  -0.903454 0.407822 -0.132103
vn  -0.419945 -0.862378 -0.282755
# 18 vertex normals

g (null)
usemtl gate
s 1
f 1/1/1 7/3/7 8/11/8
f 7/3/7 2/2/2 15/16/15
f 7/3/7 15/16/15 8/11/8
f 8/11/8 15/16/15 3/7/3
f 1/1/1 8/11/8 9/9/9
f 8/11/8 3/7/3 16/17/16
f 8/11/8 16/17/16 9/9/9
f 9/9/9 16/17/16 4/4/4
f 1/1/1 9/9/9 10/10/10
f 9/9/9 4/4/4 17/15/17
f 9/9/9 17/15/17 10/10/10
f 10/10/10 17/15/17 5/5/5
f 1/1/1 10/10/10 7/3/7
f 10/10/10 5/5/5 18/18/18
f 10/10/10 18/18/18 7/3/7
f 7/3/7 18/18/18 2/2/2
f 6/6/6 12/13/12 11/8/11
f 12/13/12 3/7/3 15/16/15
f 12/13/12 15/16/15 11/8/11
f 11/8/11 15/16/15 2/2/2
f 6/6/6 13/12/13 12/13/12
f 13/12/13 4/4/4 16/17/16
f 13/12/13 16/17/16 12/13/12
f 12/13/12 16/17/16 3/7/3
f 6/6/6 14/14/14 13/12/13
f 14/14/14 5/5/5 17/15/17
f 14/14/14 17/15/17 13/12/13
f 13/12/13 17/15/17 4/4/4
f 6/6/6 11/8/11 14/14/14
f 11/8/11 2/2/2 18/18/18
f 11/8/11 18/18/18 14/14/14
f 14/14/14 18/18/18 5/5/5
# 32 faces

g
