# Max2Obj Version 4.0 Mar 10th, 2001
#
mtllib ./stone_20.mtl
g
# object (null) to come ...
#
v  0.002441 0.672228 0.616086
v  0.212563 -0.233874 0.627386
v  0.571106 0.130632 -0.144799
v  -0.212563 0.233874 -0.627386
v  -0.571106 -0.130632 0.144799
v  -0.002441 -0.672228 -0.616086
v  0.152031 0.309963 0.879268
v  0.405559 0.567708 0.333251
v  -0.148579 0.640711 -0.007990
v  -0.402107 0.382966 0.538027
v  0.148579 -0.640711 0.007990
v  0.402107 -0.382966 -0.538027
v  -0.152031 -0.309963 -0.879268
v  -0.405559 -0.567708 -0.333251
v  0.554138 -0.073003 0.341241
v  0.253528 0.257745 -0.546017
v  -0.554138 0.073003 -0.341241
v  -0.253528 -0.257745 0.546017
# 18 vertices

vt  0.678943 0.592168 0.000000
vt  0.889894 0.603530 0.000000
vt  0.771104 0.565911 0.000000
vt  0.652342 0.830046 0.000000
vt  0.755953 0.724486 0.000000
vt  0.875508 0.852329 0.000000
vt  0.762478 0.716277 0.000000
vt  0.941912 0.729705 0.000000
vt  0.619603 0.699952 0.000000
vt  0.719952 0.650180 0.000000
vt  0.713520 0.659490 0.000000
vt  0.770493 0.868177 0.000000
vt  0.812696 0.773979 0.000000
vt  0.825358 0.794502 0.000000
vt  0.708293 0.780100 0.000000
vt  0.808928 0.667615 0.000000
vt  0.715575 0.764376 0.000000
vt  0.822186 0.663211 0.000000
# 18 texture vertices

vn  -0.077876 0.873378 0.480777
vn  0.322793 -0.598257 0.733412
vn  0.946347 0.216463 -0.239938
vn  -0.322793 0.598257 -0.733412
vn  -0.946347 -0.216463 0.239938
vn  0.077876 -0.873378 -0.480777
vn  0.210642 0.149868 0.966007
vn  0.700074 0.705394 0.110975
vn  -0.276000 0.927608 -0.251728
vn  -0.792464 0.363998 0.489395
vn  0.276000 -0.927608 0.251728
vn  0.792464 -0.363998 -0.489395
vn  -0.210642 -0.149868 -0.966007
vn  -0.700074 -0.705394 -0.110975
vn  0.912709 -0.240855 0.330079
vn  0.473510 0.557932 -0.681542
vn  -0.912709 0.240855 -0.330079
vn  -0.473510 -0.557932 0.681542
# 18 vertex normals

g (null)
usemtl gate
s 1
f 1/1/1 7/3/7 8/11/8
f 7/3/7 2/2/2 15/16/15
f 7/3/7 15/16/15 8/11/8
f 8/11/8 15/16/15 3/7/3
f 1/1/1 8/11/8 9/9/9
f 8/11/8 3/7/3 16/17/16
f 8/11/8 16/17/16 9/9/9
f 9/9/9 16/17/16 4/4/4
f 1/1/1 9/9/9 10/10/10
f 9/9/9 4/4/4 17/15/17
f 9/9/9 17/15/17 10/10/10
f 10/10/10 17/15/17 5/5/5
f 1/1/1 10/10/10 7/3/7
f 10/10/10 5/5/5 18/18/18
f 10/10/10 18/18/18 7/3/7
f 7/3/7 18/18/18 2/2/2
f 6/6/6 12/13/12 11/8/11
f 12/13/12 3/7/3 15/16/15
f 12/13/12 15/16/15 11/8/11
f 11/8/11 15/16/15 2/2/2
f 6/6/6 13/12/13 12/13/12
f 13/12/13 4/4/4 16/17/16
f 13/12/13 16/17/16 12/13/12
f 12/13/12 16/17/16 3/7/3
f 6/6/6 14/14/14 13/12/13
f 14/14/14 5/5/5 17/15/17
f 14/14/14 17/15/17 13/12/13
f 13/12/13 17/15/17 4/4/4
f 6/6/6 11/8/11 14/14/14
f 11/8/11 2/2/2 18/18/18
f 11/8/11 18/18/18 14/14/14
f 14/14/14 18/18/18 5/5/5
# 32 faces

g
