# Max2Obj Version 4.0 Mar 10th, 2001
#
mtllib ./stone_02.mtl
g
# object (null) to come ...
#
v  -2.153164 0.114594 -0.347818
v  -0.089218 -1.627845 -0.361784
v  0.134352 0.356244 0.428232
v  0.089218 1.627845 -0.463037
v  -0.153028 -0.405763 -0.659782
v  2.153164 -0.114594 -0.477003
v  -1.589805 -1.072866 -0.339175
v  -1.431298 0.333815 0.345179
v  -1.463298 1.235355 -0.410962
v  -1.842358 -0.194624 -0.601168
v  1.463298 -1.235355 -0.430765
v  1.732805 0.168105 0.396501
v  1.589805 1.072866 -0.502551
v  1.625944 -0.379211 -0.705213
v  0.031999 -0.901541 0.140724
v  0.158507 1.406681 0.025763
v  -0.036351 1.024144 -0.693965
v  -0.180063 -1.597978 -0.612416
v  -1.961470 -0.236345 -0.117350
v  -0.623758 -1.365677 -0.126402
v  -1.131866 -0.621233 0.170055
v  -0.660112 -0.074465 0.571597
v  -1.913566 0.637696 -0.144533
v  -0.612208 0.799576 0.544414
v  -1.036059 1.126848 0.115689
v  -0.460204 1.618484 -0.219210
v  -1.985704 0.446417 -0.497772
v  -0.532342 1.427206 -0.572450
v  -1.180334 0.744291 -0.590790
v  -2.033608 -0.427623 -0.470589
v  -1.276142 -1.003790 -0.536424
v  -0.695896 -1.556955 -0.479641
v  1.985704 -0.446417 -0.235761
v  0.763918 -0.143767 0.692246
v  1.329218 -0.748611 0.234740
v  0.532342 -1.427206 -0.161084
v  2.033608 0.427623 -0.262944
v  0.695896 1.556955 -0.253892
v  1.383354 1.000680 0.145632
v  0.811822 0.730274 0.665063
v  1.961470 0.236345 -0.616183
v  1.131866 0.621233 -0.660153
v  0.623758 1.365677 -0.607131
v  1.913566 -0.637696 -0.589000
v  0.460204 -1.618484 -0.514323
v  1.036059 -1.126848 -0.605787
v  -2.063386 -0.438053 -0.349635
v  -1.631322 -0.424284 0.028892
v  -1.988360 0.227771 -0.054561
v  -0.806820 -1.498880 -0.358138
v  -0.039171 -1.417787 -0.067751
v  -0.881320 -1.057455 0.023817
v  -0.981335 -0.331214 0.419797
v  0.096942 -0.209839 0.383434
v  -0.776937 0.380150 0.593234
v  -1.559466 0.886777 -0.011882
v  -2.003506 0.654497 -0.383613
v  0.156822 0.882712 0.349455
v  -0.909479 0.979847 0.379022
v  -0.744624 1.436666 -0.053751
v  0.129344 1.656884 -0.163374
v  -0.638305 1.575791 -0.453761
v  -1.667673 0.599860 -0.541742
v  -2.078532 -0.011327 -0.496111
v  0.039171 1.417787 -0.604924
v  -0.852831 1.149749 -0.583610
v  -1.739528 -0.711201 -0.500967
v  -0.989527 -1.344373 -0.506042
v  -0.129344 -1.656884 -0.509300
v  2.078532 0.011327 -0.176564
v  1.667673 -0.599860 -0.070074
v  2.003506 -0.654497 -0.471637
v  0.936117 0.295466 0.705213
v  1.020745 -0.431280 0.523106
v  0.852831 -1.149749 -0.028206
v  0.638305 -1.575791 -0.401490
v  2.063386 0.438053 -0.505616
v  1.739528 0.711201 -0.110849
v  0.806820 1.498880 -0.497113
v  0.989527 1.344373 -0.105773
v  1.092600 0.879781 0.482331
v  1.988360 -0.227771 -0.618113
v  1.631322 0.424284 -0.640708
v  0.881320 1.057456 -0.635633
v  1.559466 -0.886777 -0.599933
v  0.744624 -1.436666 -0.558065
# 86 vertices

vt  0.829912 0.263562 0.000000
vt  0.957648 0.416086 0.000000
vt  0.919022 0.308812 0.000000
vt  0.692676 0.414954 0.000000
vt  0.809724 0.411577 0.000000
vt  0.822707 0.577726 0.000000
vt  0.820158 0.408022 0.000000
vt  0.925344 0.526724 0.000000
vt  0.735093 0.310833 0.000000
vt  0.825591 0.327376 0.000000
vt  0.821254 0.334417 0.000000
vt  0.729209 0.521905 0.000000
vt  0.821369 0.484874 0.000000
vt  0.817781 0.514815 0.000000
vt  0.740331 0.419548 0.000000
vt  0.886552 0.409132 0.000000
vt  0.755947 0.409416 0.000000
vt  0.896034 0.414178 0.000000
vt  0.862986 0.284367 0.000000
vt  0.936451 0.371927 0.000000
vt  0.880589 0.343715 0.000000
vt  0.841942 0.382666 0.000000
vt  0.791132 0.285215 0.000000
vt  0.798137 0.382940 0.000000
vt  0.764929 0.344837 0.000000
vt  0.713137 0.372294 0.000000
vt  0.793062 0.283552 0.000000
vt  0.708431 0.376000 0.000000
vt  0.762153 0.346880 0.000000
vt  0.864916 0.282704 0.000000
vt  0.885908 0.344241 0.000000
vt  0.939840 0.374116 0.000000
vt  0.862668 0.549390 0.000000
vt  0.842179 0.433104 0.000000
vt  0.884144 0.479185 0.000000
vt  0.939769 0.456959 0.000000
vt  0.785180 0.547082 0.000000
vt  0.710821 0.454170 0.000000
vt  0.762851 0.477150 0.000000
vt  0.798374 0.433377 0.000000
vt  0.784269 0.557461 0.000000
vt  0.757234 0.491234 0.000000
vt  0.706115 0.457875 0.000000
vt  0.861757 0.559769 0.000000
vt  0.943158 0.459148 0.000000
vt  0.886622 0.491753 0.000000
vt  0.874265 0.271951 0.000000
vt  0.874869 0.312904 0.000000
vt  0.826744 0.282878 0.000000
vt  0.949945 0.363553 0.000000
vt  0.937369 0.413375 0.000000
vt  0.909751 0.353606 0.000000
vt  0.857050 0.366590 0.000000
vt  0.847537 0.407851 0.000000
vt  0.820010 0.376498 0.000000
vt  0.774100 0.314033 0.000000
vt  0.784447 0.273012 0.000000
vt  0.792780 0.408192 0.000000
vt  0.784330 0.367143 0.000000
vt  0.738263 0.354820 0.000000
vt  0.710708 0.412408 0.000000
vt  0.701632 0.364186 0.000000
vt  0.775335 0.312881 0.000000
vt  0.829156 0.280800 0.000000
vt  0.704826 0.417040 0.000000
vt  0.732863 0.359036 0.000000
vt  0.878128 0.311373 0.000000
vt  0.914470 0.355926 0.000000
vt  0.941605 0.416111 0.000000
vt  0.822450 0.549594 0.000000
vt  0.878345 0.514629 0.000000
vt  0.872979 0.568412 0.000000
vt  0.820307 0.439545 0.000000
vt  0.858176 0.450894 0.000000
vt  0.913958 0.472505 0.000000
vt  0.954092 0.469843 0.000000
vt  0.776119 0.565527 0.000000
vt  0.770533 0.511813 0.000000
vt  0.698737 0.466530 0.000000
vt  0.735428 0.469773 0.000000
vt  0.784047 0.450659 0.000000
vt  0.821311 0.562568 0.000000
vt  0.768218 0.525713 0.000000
vt  0.729317 0.476999 0.000000
vt  0.878053 0.528150 0.000000
vt  0.917967 0.477836 0.000000
# 86 texture vertices

vn  -0.998142 0.060923 0.000811
vn  -0.031416 -0.916041 0.399851
vn  -0.092125 0.041062 0.994900
vn  0.029001 0.866988 -0.497484
vn  -0.031868 -0.030528 -0.999026
vn  0.963976 -0.069234 -0.256820
vn  -0.647580 -0.761762 0.018945
vn  -0.486380 0.082938 0.869802
vn  -0.556919 0.761816 -0.330873
vn  -0.259111 -0.061873 -0.963864
vn  0.545712 -0.826379 -0.138910
vn  0.661061 0.032848 0.749612
vn  0.590678 0.666142 -0.455362
vn  0.129508 -0.071217 -0.989018
vn  -0.028960 -0.441766 0.896663
vn  0.040620 0.642507 0.765202
vn  -0.027624 0.109561 -0.993596
vn  -0.076604 -0.556935 -0.827016
vn  -0.686256 -0.248110 0.683736
vn  -0.176012 -0.643327 0.745084
vn  -0.322627 -0.448589 0.833475
vn  -0.037302 -0.213748 0.976176
vn  -0.728277 0.439124 0.526101
vn  -0.029378 0.345756 0.937864
vn  -0.393484 0.669943 0.629561
vn  -0.148122 0.936861 0.316784
vn  -0.554597 0.209159 -0.805403
vn  -0.119854 0.398377 -0.909357
vn  -0.151275 0.150702 -0.976937
vn  -0.724444 -0.329577 -0.605442
vn  -0.286588 -0.321131 -0.902631
vn  -0.306991 -0.886796 -0.345470
vn  0.773131 -0.383282 0.505335
vn  -0.063042 -0.215427 0.974483
vn  0.410232 -0.561440 0.718676
vn  0.159598 -0.673415 0.721832
vn  0.873114 0.385285 0.298709
vn  0.275870 0.919896 0.278723
vn  0.544091 0.675266 0.497978
vn  -0.009427 0.349209 0.936998
vn  0.405944 0.116693 -0.906417
vn  0.095205 0.118997 -0.988320
vn  0.094050 0.369113 -0.924614
vn  0.508432 -0.340908 -0.790745
vn  0.164050 -0.889207 -0.427081
vn  0.161572 -0.296265 -0.941340
vn  -0.894786 -0.405160 0.187626
vn  -0.467021 -0.355369 0.809694
vn  -0.751484 0.075680 0.655396
vn  -0.360805 -0.862735 0.354270
vn  -0.008139 -0.610721 0.791804
vn  -0.217187 -0.495989 0.840729
vn  -0.319211 -0.389971 0.863728
vn  -0.111217 -0.212636 0.970782
vn  -0.143149 0.051179 0.988377
vn  -0.524500 0.560939 0.640505
vn  -0.836068 0.498351 -0.229428
vn  -0.078271 0.377435 0.922722
vn  -0.340848 0.575736 0.743203
vn  -0.252299 0.745397 0.617032
vn  0.057995 0.908494 0.413855
vn  -0.265995 0.861504 -0.432500
vn  -0.193465 0.191379 -0.962260
vn  -0.708473 -0.009553 -0.705674
vn  -0.007197 0.400653 -0.916202
vn  -0.174332 0.201515 -0.963847
vn  -0.403268 -0.394112 -0.825863
vn  -0.360955 -0.510622 -0.780370
vn  -0.051293 -0.987787 -0.147125
vn  0.917955 -0.024080 0.395954
vn  0.636123 -0.485236 0.599911
vn  0.856748 -0.510512 -0.073214
vn  0.091341 0.036573 0.995148
vn  0.192720 -0.460136 0.866680
vn  0.172083 -0.632104 0.755535
vn  0.295502 -0.928310 0.225654
vn  0.832095 0.374055 -0.409513
vn  0.735690 0.549538 0.395939
vn  0.316953 0.804407 -0.502464
vn  0.362398 0.803759 0.471847
vn  0.344729 0.594241 0.726663
vn  0.494080 -0.071004 -0.866512
vn  0.130260 0.150797 -0.979945
vn  0.121179 0.160575 -0.979557
vn  0.238155 -0.363642 -0.900581
vn  0.213036 -0.457316 -0.863411
# 86 vertex normals

g (null)
usemtl gate
s 1
f 19/19/19 49/49/49 1/1/1 47/47/47
f 19/19/19 47/47/47 7/3/7 48/48/48
f 19/19/19 48/48/48 8/11/8 49/49/49
f 20/20/20 52/52/52 7/3/7 50/50/50
f 20/20/20 50/50/50 2/2/2 51/51/51
f 20/20/20 51/51/51 15/16/15 52/52/52
f 21/21/21 48/48/48 7/3/7 52/52/52
f 21/21/21 52/52/52 15/16/15 53/53/53
f 21/21/21 53/53/53 8/11/8 48/48/48
f 22/22/22 55/55/55 8/11/8 53/53/53
f 22/22/22 53/53/53 15/16/15 54/54/54
f 22/22/22 54/54/54 3/7/3 55/55/55
f 23/23/23 57/57/57 1/1/1 49/49/49
f 23/23/23 49/49/49 8/11/8 56/56/56
f 23/23/23 56/56/56 9/9/9 57/57/57
f 24/24/24 59/59/59 8/11/8 55/55/55
f 24/24/24 55/55/55 3/7/3 58/58/58
f 24/24/24 58/58/58 16/17/16 59/59/59
f 25/25/25 56/56/56 8/11/8 59/59/59
f 25/25/25 59/59/59 16/17/16 60/60/60
f 25/25/25 60/60/60 9/9/9 56/56/56
f 26/26/26 62/62/62 9/9/9 60/60/60
f 26/26/26 60/60/60 16/17/16 61/61/61
f 26/26/26 61/61/61 4/4/4 62/62/62
f 27/27/27 64/64/64 1/1/1 57/57/57
f 27/27/27 57/57/57 9/9/9 63/63/63
f 28/28/28 66/66/66 9/9/9 62/62/62
f 28/28/28 62/62/62 4/4/4 65/65/65
f 29/29/29 63/63/63 9/9/9 66/66/66
f 30/30/30 47/47/47 1/1/1 64/64/64
f 30/30/30 67/67/67 7/3/7 47/47/47
f 31/31/31 68/68/68 7/3/7 67/67/67
f 32/32/32 50/50/50 7/3/7 68/68/68
f 32/32/32 69/69/69 2/2/2 50/50/50
f 33/33/33 72/72/72 6/6/6 70/70/70
f 33/33/33 70/70/70 12/13/12 71/71/71
f 33/33/33 71/71/71 11/8/11 72/72/72
f 34/34/34 74/74/74 12/13/12 73/73/73
f 34/34/34 73/73/73 3/7/3 54/54/54
f 34/34/34 54/54/54 15/16/15 74/74/74
f 35/35/35 71/71/71 12/13/12 74/74/74
f 35/35/35 74/74/74 15/16/15 75/75/75
f 35/35/35 75/75/75 11/8/11 71/71/71
f 36/36/36 76/76/76 11/8/11 75/75/75
f 36/36/36 75/75/75 15/16/15 51/51/51
f 36/36/36 51/51/51 2/2/2 76/76/76
f 37/37/37 70/70/70 6/6/6 77/77/77
f 37/37/37 77/77/77 13/12/13 78/78/78
f 37/37/37 78/78/78 12/13/12 70/70/70
f 38/38/38 80/80/80 13/12/13 79/79/79
f 38/38/38 79/79/79 4/4/4 61/61/61
f 38/38/38 61/61/61 16/17/16 80/80/80
f 39/39/39 78/78/78 13/12/13 80/80/80
f 39/39/39 80/80/80 16/17/16 81/81/81
f 39/39/39 81/81/81 12/13/12 78/78/78
f 40/40/40 73/73/73 12/13/12 81/81/81
f 40/40/40 81/81/81 16/17/16 58/58/58
f 40/40/40 58/58/58 3/7/3 73/73/73
f 41/41/41 77/77/77 6/6/6 82/82/82
f 41/41/41 83/83/83 13/12/13 77/77/77
f 42/42/42 84/84/84 13/12/13 83/83/83
f 43/43/43 79/79/79 13/12/13 84/84/84
f 43/43/43 65/65/65 4/4/4 79/79/79
f 44/44/44 82/82/82 6/6/6 72/72/72
f 44/44/44 72/72/72 11/8/11 85/85/85
f 45/45/45 86/86/86 11/8/11 76/76/76
f 45/45/45 76/76/76 2/2/2 69/69/69
f 46/46/46 85/85/85 11/8/11 86/86/86
f 10/10/10 17/15/17 5/5/5
f 10/10/10 5/5/5 18/18/18
f 14/14/14 5/5/5 17/15/17
f 14/14/14 18/18/18 5/5/5
f 10/10/10 64/64/64 27/27/27
f 63/63/63 10/10/10 27/27/27
f 17/15/17 66/66/66 28/28/28
f 65/65/65 17/15/17 28/28/28
f 17/15/17 10/10/10 29/29/29
f 66/66/66 17/15/17 29/29/29
f 10/10/10 63/63/63 29/29/29
f 10/10/10 67/67/67 30/30/30
f 64/64/64 10/10/10 30/30/30
f 10/10/10 18/18/18 31/31/31
f 67/67/67 10/10/10 31/31/31
f 18/18/18 68/68/68 31/31/31
f 18/18/18 69/69/69 32/32/32
f 68/68/68 18/18/18 32/32/32
f 14/14/14 83/83/83 41/41/41
f 82/82/82 14/14/14 41/41/41
f 14/14/14 17/15/17 42/42/42
f 83/83/83 14/14/14 42/42/42
f 17/15/17 84/84/84 42/42/42
f 17/15/17 65/65/65 43/43/43
f 84/84/84 17/15/17 43/43/43
f 14/14/14 82/82/82 44/44/44
f 85/85/85 14/14/14 44/44/44
f 18/18/18 86/86/86 45/45/45
f 69/69/69 18/18/18 45/45/45
f 18/18/18 14/14/14 46/46/46
f 86/86/86 18/18/18 46/46/46
f 14/14/14 85/85/85 46/46/46
# 100 faces

g
