# Max2Obj Version 4.0 Mar 10th, 2001
#
mtllib ./stone_14.mtl
g
# object (null) to come ...
#
v  -0.388600 0.406579 0.548582
v  0.179434 -0.512924 0.235855
v  0.422533 0.212891 0.141527
v  -0.179434 0.512924 -0.235855
v  -0.422533 -0.212891 -0.141527
v  0.388600 -0.406579 -0.548582
v  -0.147902 -0.075197 0.554681
v  0.023994 0.438031 0.487981
v  -0.401661 0.650186 0.221132
v  -0.573557 0.136958 0.287831
v  0.401661 -0.650186 -0.221132
v  0.573557 -0.136958 -0.287831
v  0.147902 0.075197 -0.554681
v  -0.023994 -0.438031 -0.487981
v  0.425655 -0.212155 0.266849
v  0.171897 0.513228 -0.066700
v  -0.425655 0.212155 -0.266849
v  -0.171897 -0.513228 0.066700
# 18 vertices

vt  0.108910 0.677319 0.000000
vt  0.296080 0.764200 0.000000
vt  0.215165 0.688135 0.000000
vt  0.019233 0.872020 0.000000
vt  0.142554 0.820409 0.000000
vt  0.213423 0.969915 0.000000
vt  0.150429 0.814231 0.000000
vt  0.298796 0.874219 0.000000
vt  0.031578 0.763114 0.000000
vt  0.131327 0.752494 0.000000
vt  0.127846 0.758162 0.000000
vt  0.097966 0.947895 0.000000
vt  0.173012 0.870300 0.000000
vt  0.179844 0.894352 0.000000
vt  0.085560 0.849857 0.000000
vt  0.206498 0.791648 0.000000
vt  0.094360 0.836814 0.000000
vt  0.217127 0.793078 0.000000
# 18 texture vertices

vn  -0.449643 0.344600 0.824058
vn  0.176665 -0.763545 0.621118
vn  0.855592 0.431085 0.286580
vn  -0.176665 0.763545 -0.621118
vn  -0.855592 -0.431085 -0.286580
vn  0.449643 -0.344600 -0.824058
vn  -0.129189 -0.358279 0.924633
vn  0.413520 0.552321 0.723839
vn  -0.470650 0.878319 0.083935
vn  -0.954297 -0.136846 0.265689
vn  0.470650 -0.878319 -0.083935
vn  0.954297 0.136846 -0.265689
vn  0.129189 0.358279 -0.924633
vn  -0.413520 -0.552321 -0.723839
vn  0.755362 -0.197344 0.624886
vn  0.511410 0.835600 -0.200581
vn  -0.755362 0.197344 -0.624886
vn  -0.511410 -0.835600 0.200581
# 18 vertex normals

g (null)
usemtl stone-01
s 1
f 1/1/1 7/3/7 8/11/8
f 7/3/7 2/2/2 15/16/15
f 7/3/7 15/16/15 8/11/8
f 8/11/8 15/16/15 3/7/3
f 1/1/1 8/11/8 9/9/9
f 8/11/8 3/7/3 16/17/16
f 8/11/8 16/17/16 9/9/9
f 9/9/9 16/17/16 4/4/4
f 1/1/1 9/9/9 10/10/10
f 9/9/9 4/4/4 17/15/17
f 9/9/9 17/15/17 10/10/10
f 10/10/10 17/15/17 5/5/5
f 1/1/1 10/10/10 7/3/7
f 10/10/10 5/5/5 18/18/18
f 10/10/10 18/18/18 7/3/7
f 7/3/7 18/18/18 2/2/2
f 6/6/6 12/13/12 11/8/11
f 12/13/12 3/7/3 15/16/15
f 12/13/12 15/16/15 11/8/11
f 11/8/11 15/16/15 2/2/2
f 6/6/6 13/12/13 12/13/12
f 13/12/13 4/4/4 16/17/16
f 13/12/13 16/17/16 12/13/12
f 12/13/12 16/17/16 3/7/3
f 6/6/6 14/14/14 13/12/13
f 14/14/14 5/5/5 17/15/17
f 14/14/14 17/15/17 13/12/13
f 13/12/13 17/15/17 4/4/4
f 6/6/6 11/8/11 14/14/14
f 11/8/11 2/2/2 18/18/18
f 11/8/11 18/18/18 14/14/14
f 14/14/14 18/18/18 5/5/5
# 32 faces

g
