# Max2Obj Version 4.0 Mar 10th, 2001
#
mtllib ./stone_19.mtl
g
# object (null) to come ...
#
v  -0.668414 0.370217 0.182812
v  -0.065085 -0.577166 0.116439
v  0.166449 0.073840 0.459052
v  0.065085 0.577166 -0.116439
v  -0.166449 -0.073840 -0.459052
v  0.668414 -0.370217 -0.182812
v  -0.518662 -0.146335 0.211603
v  -0.354943 0.313996 0.453866
v  -0.426618 0.669901 0.046933
v  -0.590338 0.209570 -0.195331
v  0.426618 -0.669901 -0.046933
v  0.590338 -0.209570 0.195331
v  0.518662 0.146335 -0.211603
v  0.354943 -0.313996 -0.453866
v  0.071675 -0.355905 0.406933
v  0.163720 0.460331 0.242264
v  -0.071675 0.355905 -0.406933
v  -0.163720 -0.460331 -0.242264
# 18 vertices

vt  0.095586 0.697086 0.000000
vt  0.282756 0.783967 0.000000
vt  0.201841 0.707902 0.000000
vt  0.005909 0.891788 0.000000
vt  0.129229 0.840177 0.000000
vt  0.200099 0.989683 0.000000
vt  0.137105 0.833999 0.000000
vt  0.285472 0.893986 0.000000
vt  0.018254 0.782881 0.000000
vt  0.118003 0.772262 0.000000
vt  0.114522 0.777930 0.000000
vt  0.084642 0.967662 0.000000
vt  0.159688 0.890067 0.000000
vt  0.166520 0.914120 0.000000
vt  0.072236 0.869625 0.000000
vt  0.193174 0.811415 0.000000
vt  0.081036 0.856582 0.000000
vt  0.203803 0.812845 0.000000
# 18 texture vertices

vn  -0.918040 0.271167 0.289258
vn  -0.361207 -0.891220 0.274328
vn  0.337046 0.149520 0.929540
vn  0.361207 0.891220 -0.274328
vn  -0.337046 -0.149520 -0.929540
vn  0.918040 -0.271167 -0.289258
vn  -0.789304 -0.493327 0.365551
vn  -0.282049 0.283225 0.916642
vn  -0.366056 0.930439 -0.016935
vn  -0.820877 0.044191 -0.569393
vn  0.366056 -0.930439 0.016935
vn  0.820877 -0.044191 0.569393
vn  0.789304 0.493327 -0.365551
vn  0.282049 -0.283225 -0.916642
vn  0.012429 -0.491267 0.870920
vn  0.486594 0.712643 0.505337
vn  -0.012429 0.491267 -0.870920
vn  -0.486594 -0.712643 -0.505337
# 18 vertex normals

g (null)
usemtl stone-01
s 1
f 1/1/1 7/3/7 8/11/8
f 7/3/7 2/2/2 15/16/15
f 7/3/7 15/16/15 8/11/8
f 8/11/8 15/16/15 3/7/3
f 1/1/1 8/11/8 9/9/9
f 8/11/8 3/7/3 16/17/16
f 8/11/8 16/17/16 9/9/9
f 9/9/9 16/17/16 4/4/4
f 1/1/1 9/9/9 10/10/10
f 9/9/9 4/4/4 17/15/17
f 9/9/9 17/15/17 10/10/10
f 10/10/10 17/15/17 5/5/5
f 1/1/1 10/10/10 7/3/7
f 10/10/10 5/5/5 18/18/18
f 10/10/10 18/18/18 7/3/7
f 7/3/7 18/18/18 2/2/2
f 6/6/6 12/13/12 11/8/11
f 12/13/12 3/7/3 15/16/15
f 12/13/12 15/16/15 11/8/11
f 11/8/11 15/16/15 2/2/2
f 6/6/6 13/12/13 12/13/12
f 13/12/13 4/4/4 16/17/16
f 13/12/13 16/17/16 12/13/12
f 12/13/12 16/17/16 3/7/3
f 6/6/6 14/14/14 13/12/13
f 14/14/14 5/5/5 17/15/17
f 14/14/14 17/15/17 13/12/13
f 13/12/13 17/15/17 4/4/4
f 6/6/6 11/8/11 14/14/14
f 11/8/11 2/2/2 18/18/18
f 11/8/11 18/18/18 14/14/14
f 14/14/14 18/18/18 5/5/5
# 32 faces

g
