# Max2Obj Version 4.0 Mar 10th, 2001
#
mtllib ./stone_10.mtl
g
# object (null) to come ...
#
v  0.049652 0.039267 1.076611
v  0.336150 -1.024511 0.021864
v  1.023541 0.334564 -0.059407
v  -0.336150 1.024511 -0.021864
v  -1.023541 -0.334564 0.059407
v  -0.049652 -0.039267 -1.076611
v  0.272803 -0.696673 0.776739
v  0.758862 0.264338 0.719272
v  -0.202584 0.752205 0.745819
v  -0.688643 -0.208807 0.803286
v  0.202584 -0.752205 -0.745819
v  0.688643 0.208807 -0.803286
v  -0.272803 0.696673 -0.776739
v  -0.758862 -0.264338 -0.719272
v  0.961447 -0.487867 -0.026547
v  0.486059 0.961011 -0.057467
v  -0.961447 0.487867 0.026547
v  -0.486059 -0.961011 0.057467
# 18 vertices

vt  0.295591 0.445886 0.000000
vt  0.208709 0.633055 0.000000
vt  0.284774 0.552141 0.000000
vt  0.100890 0.356207 0.000000
vt  0.152500 0.479528 0.000000
vt  0.002994 0.550397 0.000000
vt  0.158678 0.487404 0.000000
vt  0.098690 0.635770 0.000000
vt  0.209796 0.368553 0.000000
vt  0.220416 0.468303 0.000000
vt  0.214748 0.464821 0.000000
vt  0.025015 0.434941 0.000000
vt  0.102610 0.509987 0.000000
vt  0.078557 0.516819 0.000000
vt  0.123052 0.422535 0.000000
vt  0.181261 0.543473 0.000000
vt  0.136096 0.431335 0.000000
vt  0.179832 0.554102 0.000000
# 18 texture vertices

vn  0.046040 0.036410 0.998276
vn  0.311691 -0.949967 0.020273
vn  0.949067 0.310221 -0.055085
vn  -0.311691 0.949967 -0.020273
vn  -0.949067 -0.310221 0.055085
vn  -0.046040 -0.036410 -0.998276
vn  0.252954 -0.645983 0.720223
vn  0.703647 0.245105 0.666937
vn  -0.187844 0.697474 0.691553
vn  -0.638537 -0.193614 0.744838
vn  0.187844 -0.697474 -0.691553
vn  0.638537 0.193614 -0.744838
vn  -0.252954 0.645983 -0.720223
vn  -0.703647 -0.245105 -0.666937
vn  0.891491 -0.452369 -0.024616
vn  0.450693 0.891087 -0.053286
vn  -0.891491 0.452369 0.024616
vn  -0.450693 -0.891087 0.053286
# 18 vertex normals

g (null)
usemtl stone-01
s 1
f 1/1/1 7/3/7 8/11/8
f 7/3/7 2/2/2 15/16/15
f 7/3/7 15/16/15 8/11/8
f 8/11/8 15/16/15 3/7/3
f 1/1/1 8/11/8 9/9/9
f 8/11/8 3/7/3 16/17/16
f 8/11/8 16/17/16 9/9/9
f 9/9/9 16/17/16 4/4/4
f 1/1/1 9/9/9 10/10/10
f 9/9/9 4/4/4 17/15/17
f 9/9/9 17/15/17 10/10/10
f 10/10/10 17/15/17 5/5/5
f 1/1/1 10/10/10 7/3/7
f 10/10/10 5/5/5 18/18/18
f 10/10/10 18/18/18 7/3/7
f 7/3/7 18/18/18 2/2/2
f 6/6/6 12/13/12 11/8/11
f 12/13/12 3/7/3 15/16/15
f 12/13/12 15/16/15 11/8/11
f 11/8/11 15/16/15 2/2/2
f 6/6/6 13/12/13 12/13/12
f 13/12/13 4/4/4 16/17/16
f 13/12/13 16/17/16 12/13/12
f 12/13/12 16/17/16 3/7/3
f 6/6/6 14/14/14 13/12/13
f 14/14/14 5/5/5 17/15/17
f 14/14/14 17/15/17 13/12/13
f 13/12/13 17/15/17 4/4/4
f 6/6/6 11/8/11 14/14/14
f 11/8/11 2/2/2 18/18/18
f 11/8/11 18/18/18 14/14/14
f 14/14/14 18/18/18 5/5/5
# 32 faces

g
