# Max2Obj Version 4.0 Mar 10th, 2001
#
mtllib ./stone_03.mtl
g
# object (null) to come ...
#
v  -1.830666 0.099208 -0.468947
v  -0.297033 -1.627845 -0.482913
v  -0.073462 0.356244 0.788621
v  -0.118597 1.627845 -0.584166
v  -0.360842 -0.405763 -0.780910
v  1.945349 -0.114594 -0.598132
v  -1.514858 -1.081070 -0.460304
v  -1.108800 0.318429 0.224050
v  -1.388350 1.227152 -0.532090
v  -1.519860 -0.210010 -0.722297
v  1.255483 -1.235355 -0.551894
v  1.296621 0.174730 0.116678
v  1.381991 1.072866 -0.623680
v  1.418129 -0.379211 -0.826342
v  -0.167264 -0.606808 0.164089
v  -0.049308 1.406681 0.142362
v  -0.244166 1.024144 -0.815094
v  -0.387877 -1.597978 -0.733545
v  -1.843433 -0.245799 -0.238479
v  -0.831573 -1.365677 -0.247530
v  -1.122965 -0.627521 0.048927
v  -0.395691 -0.219176 0.295392
v  -1.795529 0.628242 -0.265661
v  -0.447079 0.788756 0.268209
v  -1.107184 1.122882 -0.082929
v  -0.668019 1.618484 -0.340339
v  -1.867667 0.436964 -0.618901
v  -0.740157 1.427206 -0.693578
v  -1.105387 0.736088 -0.711918
v  -1.915571 -0.437077 -0.591718
v  -1.201195 -1.011994 -0.657553
v  -0.903711 -1.556955 -0.600770
v  1.777889 -0.446418 -0.356889
v  0.629876 -0.145907 0.826342
v  0.972520 -0.744291 -0.020437
v  0.324528 -1.427206 -0.282212
v  1.825793 0.427623 -0.384072
v  0.488082 1.556955 -0.375021
v  1.068328 1.003790 -0.074803
v  0.675329 0.643685 0.575676
v  1.753655 0.236345 -0.737312
v  0.924052 0.621233 -0.781282
v  0.415944 1.365677 -0.728260
v  1.705752 -0.637696 -0.710129
v  0.252390 -1.618484 -0.635452
v  0.828244 -1.126848 -0.726916
v  -1.945349 -0.447507 -0.470764
v  -1.513285 -0.433738 -0.092237
v  -1.665862 0.212385 -0.175690
v  -1.014635 -1.498880 -0.479266
v  -0.246986 -1.417787 -0.188880
v  -1.089135 -1.057456 -0.097312
v  -0.826087 -0.448032 0.143593
v  -0.110872 -0.209839 0.706643
v  -0.621735 0.369618 0.317030
v  -1.441429 0.877323 -0.133011
v  -1.885469 0.645044 -0.504742
v  -0.050992 0.882711 0.621356
v  -0.936037 0.974588 0.102818
v  -0.952438 1.436666 -0.174880
v  -0.078471 1.656884 -0.284503
v  -0.846120 1.575791 -0.574890
v  -1.549636 0.590406 -0.662870
v  -1.756034 -0.026713 -0.617239
v  -0.168644 1.417787 -0.726052
v  -1.060645 1.149749 -0.704739
v  -1.621492 -0.720655 -0.622096
v  -1.197341 -1.344373 -0.627171
v  -0.337158 -1.656884 -0.630429
v  1.870718 0.011327 -0.297692
v  1.459858 -0.599860 -0.191203
v  1.795692 -0.654498 -0.592766
v  0.802075 0.293326 0.816281
v  0.886702 -0.433421 0.657202
v  0.645016 -1.149749 -0.149334
v  0.430491 -1.575791 -0.522618
v  1.855572 0.438053 -0.626745
v  1.531714 0.711201 -0.231977
v  0.599006 1.498880 -0.618242
v  0.781712 1.344373 -0.226902
v  0.798113 0.882295 0.195310
v  1.780545 -0.227771 -0.739242
v  1.423507 0.424284 -0.761836
v  0.673505 1.057455 -0.756761
v  1.351651 -0.886777 -0.721062
v  0.536809 -1.436666 -0.679193
# 86 vertices

vt  0.517439 0.349585 0.000000
vt  0.663198 0.494941 0.000000
vt  0.619122 0.392708 0.000000
vt  0.360840 0.493862 0.000000
vt  0.494403 0.490643 0.000000
vt  0.509218 0.648984 0.000000
vt  0.506309 0.487255 0.000000
vt  0.626336 0.600380 0.000000
vt  0.409243 0.394634 0.000000
vt  0.512508 0.410400 0.000000
vt  0.507559 0.417110 0.000000
vt  0.402528 0.595787 0.000000
vt  0.507691 0.560496 0.000000
vt  0.503597 0.589030 0.000000
vt  0.415220 0.498240 0.000000
vt  0.582071 0.488313 0.000000
vt  0.433038 0.488584 0.000000
vt  0.592890 0.493123 0.000000
vt  0.555180 0.369412 0.000000
vt  0.639010 0.452857 0.000000
vt  0.575266 0.425971 0.000000
vt  0.531167 0.463091 0.000000
vt  0.473188 0.370221 0.000000
vt  0.481181 0.463352 0.000000
vt  0.443288 0.427041 0.000000
vt  0.384189 0.453207 0.000000
vt  0.475389 0.368636 0.000000
vt  0.378818 0.456739 0.000000
vt  0.440120 0.428987 0.000000
vt  0.557382 0.367827 0.000000
vt  0.581335 0.426472 0.000000
vt  0.642877 0.454943 0.000000
vt  0.554817 0.621980 0.000000
vt  0.531437 0.511159 0.000000
vt  0.579323 0.555074 0.000000
vt  0.642796 0.533893 0.000000
vt  0.466396 0.619780 0.000000
vt  0.381546 0.531235 0.000000
vt  0.440916 0.553135 0.000000
vt  0.481452 0.511419 0.000000
vt  0.465357 0.629671 0.000000
vt  0.434507 0.566557 0.000000
vt  0.376176 0.534766 0.000000
vt  0.553777 0.631871 0.000000
vt  0.646663 0.535979 0.000000
vt  0.582151 0.567052 0.000000
vt  0.568049 0.357580 0.000000
vt  0.568739 0.396608 0.000000
vt  0.513825 0.367993 0.000000
vt  0.654407 0.444877 0.000000
vt  0.640057 0.492357 0.000000
vt  0.608543 0.435397 0.000000
vt  0.548406 0.447770 0.000000
vt  0.537550 0.487093 0.000000
vt  0.506140 0.457213 0.000000
vt  0.453753 0.397684 0.000000
vt  0.465559 0.358591 0.000000
vt  0.475068 0.487418 0.000000
vt  0.465426 0.448298 0.000000
vt  0.412860 0.436554 0.000000
vt  0.381417 0.491435 0.000000
vt  0.371061 0.445480 0.000000
vt  0.455162 0.396586 0.000000
vt  0.516577 0.366012 0.000000
vt  0.374704 0.495850 0.000000
vt  0.406697 0.440572 0.000000
vt  0.572458 0.395148 0.000000
vt  0.613927 0.437608 0.000000
vt  0.644891 0.494965 0.000000
vt  0.508924 0.622174 0.000000
vt  0.572705 0.588853 0.000000
vt  0.566582 0.640108 0.000000
vt  0.506478 0.517297 0.000000
vt  0.549691 0.528113 0.000000
vt  0.613343 0.548708 0.000000
vt  0.659139 0.546172 0.000000
vt  0.456056 0.637359 0.000000
vt  0.449683 0.586168 0.000000
vt  0.367757 0.543014 0.000000
vt  0.409624 0.546105 0.000000
vt  0.465104 0.527889 0.000000
vt  0.507625 0.634538 0.000000
vt  0.447041 0.599415 0.000000
vt  0.402651 0.552991 0.000000
vt  0.572372 0.601738 0.000000
vt  0.617917 0.553789 0.000000
# 86 texture vertices

vn  -0.998665 0.026100 0.044569
vn  -0.031416 -0.916041 0.399851
vn  -0.359554 0.123270 0.924946
vn  0.029001 0.866988 -0.497484
vn  -0.040548 -0.030212 -0.998721
vn  0.963976 -0.069234 -0.256820
vn  -0.758044 -0.652140 -0.009111
vn  -0.366465 0.055156 0.928796
vn  -0.672750 0.668407 -0.317239
vn  -0.204880 -0.028655 -0.978368
vn  0.553962 -0.827442 -0.092009
vn  0.698331 0.079126 0.711388
vn  0.595788 0.685298 -0.418812
vn  0.129508 -0.071217 -0.989018
vn  -0.132306 -0.558938 0.818586
vn  0.001191 0.723793 0.690016
vn  -0.034934 0.105910 -0.993762
vn  -0.083130 -0.553011 -0.829016
vn  -0.780686 -0.044921 0.623307
vn  -0.212444 -0.637833 0.740295
vn  -0.322507 -0.293894 0.899786
vn  -0.471260 -0.332348 0.816982
vn  -0.777241 0.255953 0.574791
vn  -0.431695 0.338061 0.836274
vn  -0.495179 0.486035 0.720117
vn  -0.216569 0.949127 0.228596
vn  -0.766697 0.040378 -0.640738
vn  -0.148185 0.399467 -0.904692
vn  -0.182800 0.100858 -0.977963
vn  -0.755692 -0.148463 -0.637878
vn  -0.295299 -0.180817 -0.938138
vn  -0.333852 -0.879176 -0.339989
vn  0.741335 -0.333525 0.582395
vn  0.060126 -0.321642 0.944950
vn  0.388099 -0.572039 0.722600
vn  0.161336 -0.672536 0.722264
vn  0.837091 0.355041 0.416203
vn  0.307177 0.932725 0.188853
vn  0.531137 0.567122 0.629497
vn  0.427764 0.583288 0.690502
vn  0.405944 0.116693 -0.906417
vn  0.095205 0.118997 -0.988320
vn  0.094050 0.369113 -0.924614
vn  0.508432 -0.340908 -0.790745
vn  0.164050 -0.889207 -0.427082
vn  0.161572 -0.296265 -0.941340
vn  -0.956674 -0.246083 0.155622
vn  -0.487481 -0.284605 0.825447
vn  -0.716927 0.047226 0.695547
vn  -0.483986 -0.827057 0.285891
vn  -0.007221 -0.621356 0.783495
vn  -0.353953 -0.472846 0.806929
vn  -0.164999 -0.258118 0.951919
vn  -0.449740 -0.436782 0.779074
vn  -0.388319 0.052368 0.920036
vn  -0.529871 0.475224 0.702424
vn  -0.914409 0.363675 -0.177756
vn  -0.231290 0.499902 0.834628
vn  -0.374377 0.380027 0.845826
vn  -0.453739 0.703672 0.546778
vn  0.059123 0.972000 0.227420
vn  -0.369912 0.842783 -0.391001
vn  -0.191037 0.164172 -0.967756
vn  -0.635029 0.022704 -0.772154
vn  -0.007197 0.400653 -0.916202
vn  -0.294097 0.198788 -0.934874
vn  -0.368043 -0.328515 -0.869840
vn  -0.559220 -0.579119 -0.593206
vn  -0.051293 -0.987787 -0.147125
vn  0.821247 -0.010343 0.570479
vn  0.497900 -0.401606 0.768641
vn  0.856748 -0.510512 -0.073214
vn  0.458919 0.288937 0.840184
vn  0.439174 -0.580466 0.685700
vn  0.224920 -0.544536 0.808017
vn  0.295502 -0.928310 0.225654
vn  0.832095 0.374055 -0.409513
vn  0.644891 0.488133 0.588083
vn  0.316953 0.804407 -0.502464
vn  0.453604 0.757520 0.469474
vn  0.513788 0.571095 0.640213
vn  0.494080 -0.071004 -0.866512
vn  0.130260 0.150797 -0.979945
vn  0.121179 0.160574 -0.979557
vn  0.238155 -0.363642 -0.900581
vn  0.213036 -0.457315 -0.863411
# 86 vertex normals

g (null)
usemtl stone-01
s 2
f 19/19/19 49/49/49 1/1/1 47/47/47
f 19/19/19 47/47/47 7/3/7 48/48/48
f 19/19/19 48/48/48 8/11/8 49/49/49
f 20/20/20 52/52/52 7/3/7 50/50/50
f 20/20/20 50/50/50 2/2/2 51/51/51
f 20/20/20 51/51/51 15/16/15 52/52/52
f 21/21/21 48/48/48 7/3/7 52/52/52
f 21/21/21 52/52/52 15/16/15 53/53/53
f 21/21/21 53/53/53 8/11/8 48/48/48
f 22/22/22 55/55/55 8/11/8 53/53/53
f 22/22/22 54/54/54 3/7/3 55/55/55
f 23/23/23 57/57/57 1/1/1 49/49/49
f 23/23/23 49/49/49 8/11/8 56/56/56
f 23/23/23 56/56/56 9/9/9 57/57/57
f 24/24/24 59/59/59 8/11/8 55/55/55
f 24/24/24 55/55/55 3/7/3 58/58/58
f 25/25/25 56/56/56 8/11/8 59/59/59
f 25/25/25 59/59/59 16/17/16 60/60/60
f 25/25/25 60/60/60 9/9/9 56/56/56
f 26/26/26 62/62/62 9/9/9 60/60/60
f 26/26/26 60/60/60 16/17/16 61/61/61
f 26/26/26 61/61/61 4/4/4 62/62/62
f 27/27/27 64/64/64 1/1/1 57/57/57
f 27/27/27 57/57/57 9/9/9 63/63/63
f 28/28/28 66/66/66 9/9/9 62/62/62
f 28/28/28 62/62/62 4/4/4 65/65/65
f 29/29/29 63/63/63 9/9/9 66/66/66
f 30/30/30 47/47/47 1/1/1 64/64/64
f 30/30/30 67/67/67 7/3/7 47/47/47
f 31/31/31 68/68/68 7/3/7 67/67/67
f 32/32/32 50/50/50 7/3/7 68/68/68
f 32/32/32 69/69/69 2/2/2 50/50/50
f 33/33/33 72/72/72 6/6/6 70/70/70
f 33/33/33 70/70/70 12/13/12 71/71/71
f 33/33/33 71/71/71 11/8/11 72/72/72
f 34/34/34 73/73/73 3/7/3 54/54/54
f 34/34/34 54/54/54 15/16/15 74/74/74
f 35/35/35 71/71/71 12/13/12 74/74/74
f 35/35/35 74/74/74 15/16/15 75/75/75
f 35/35/35 75/75/75 11/8/11 71/71/71
f 36/36/36 76/76/76 11/8/11 75/75/75
f 36/36/36 75/75/75 15/16/15 51/51/51
f 36/36/36 51/51/51 2/2/2 76/76/76
f 37/37/37 70/70/70 6/6/6 77/77/77
f 37/37/37 77/77/77 13/12/13 78/78/78
f 37/37/37 78/78/78 12/13/12 70/70/70
f 38/38/38 80/80/80 13/12/13 79/79/79
f 38/38/38 79/79/79 4/4/4 61/61/61
f 38/38/38 61/61/61 16/17/16 80/80/80
f 39/39/39 78/78/78 13/12/13 80/80/80
f 39/39/39 80/80/80 16/17/16 81/81/81
f 39/39/39 81/81/81 12/13/12 78/78/78
f 40/40/40 73/73/73 12/13/12 81/81/81
f 40/40/40 81/81/81 16/17/16 58/58/58
f 40/40/40 58/58/58 3/7/3 73/73/73
f 41/41/41 77/77/77 6/6/6 82/82/82
f 41/41/41 83/83/83 13/12/13 77/77/77
f 42/42/42 84/84/84 13/12/13 83/83/83
f 43/43/43 79/79/79 13/12/13 84/84/84
f 43/43/43 65/65/65 4/4/4 79/79/79
f 44/44/44 82/82/82 6/6/6 72/72/72
f 44/44/44 72/72/72 11/8/11 85/85/85
f 45/45/45 86/86/86 11/8/11 76/76/76
f 45/45/45 76/76/76 2/2/2 69/69/69
f 46/46/46 85/85/85 11/8/11 86/86/86
f 10/10/10 17/15/17 5/5/5
f 10/10/10 5/5/5 18/18/18
f 14/14/14 5/5/5 17/15/17
f 14/14/14 18/18/18 5/5/5
f 15/16/15 54/54/54 22/22/22
f 16/17/16 24/24/24 58/58/58
f 10/10/10 64/64/64 27/27/27
f 63/63/63 10/10/10 27/27/27
f 17/15/17 66/66/66 28/28/28
f 65/65/65 17/15/17 28/28/28
f 17/15/17 10/10/10 29/29/29
f 66/66/66 17/15/17 29/29/29
f 10/10/10 63/63/63 29/29/29
f 10/10/10 67/67/67 30/30/30
f 64/64/64 10/10/10 30/30/30
f 10/10/10 18/18/18 31/31/31
f 67/67/67 10/10/10 31/31/31
f 18/18/18 68/68/68 31/31/31
f 18/18/18 69/69/69 32/32/32
f 68/68/68 18/18/18 32/32/32
f 12/13/12 73/73/73 74/74/74
f 14/14/14 83/83/83 41/41/41
f 82/82/82 14/14/14 41/41/41
f 14/14/14 17/15/17 42/42/42
f 83/83/83 14/14/14 42/42/42
f 17/15/17 84/84/84 42/42/42
f 17/15/17 65/65/65 43/43/43
f 84/84/84 17/15/17 43/43/43
f 14/14/14 82/82/82 44/44/44
f 85/85/85 14/14/14 44/44/44
f 18/18/18 86/86/86 45/45/45
f 69/69/69 18/18/18 45/45/45
f 18/18/18 14/14/14 46/46/46
f 86/86/86 18/18/18 46/46/46
f 14/14/14 85/85/85 46/46/46
f 16/17/16 59/59/59 24/24/24
f 22/22/22 53/53/53 15/16/15
f 73/73/73 34/34/34 74/74/74
# 103 faces

g
